<svg width="194" height="194" viewBox="0 0 194 194" fill="none" xmlns="http://www.w3.org/2000/svg">
<path d="M111.435 14.6116L121.931 34.9215L143.61 27.6623L144.938 50.4856L167.695 52.6715L159.626 74.0618L179.526 85.3149L163.454 101.574L177.057 119.948L155.761 128.264L160.715 150.583L137.878 149.518L133.325 171.922L112.895 161.661L99.6237 180.276L85.1339 162.593L65.4382 174.2L59.3938 152.152L36.6794 154.745L40.1255 132.145L18.3201 125.275L30.6607 106.03L13.5347 90.8851L32.6361 78.3232L23.1506 57.522L45.71 53.8154L45.5052 30.9544L67.6219 36.744L76.7332 15.7761L94.5829 30.0608L111.435 14.6116Z" fill="#F18221"/>
<circle cx="97.3486" cy="96.3389" r="55.5129" transform="rotate(-102.201 97.3486 96.3389)" fill="#F18221"/>
<path d="M45.3073 100.48L45.4861 94.3966C45.5148 93.4224 45.7155 92.5722 46.0883 91.8462C46.4611 91.1202 46.9707 90.5626 47.6171 90.1734C48.2635 89.7842 49.0058 89.6019 49.8441 89.6266C50.6938 89.6516 51.4296 89.8829 52.0517 90.3207C52.6741 90.7472 53.1501 91.3338 53.4796 92.0805C53.8092 92.8271 53.9594 93.6932 53.9305 94.6788L53.8605 97.0578L57.5814 97.1842L57.4741 100.838L45.3073 100.48ZM51.2781 95.2301C51.2894 94.845 51.2368 94.5146 51.1202 94.2391C50.9926 93.9519 50.812 93.7311 50.5784 93.5769C50.3338 93.4109 50.053 93.3233 49.7358 93.314C49.2486 93.2997 48.8585 93.4583 48.5653 93.7898C48.2724 94.11 48.1175 94.559 48.1005 95.1367L48.0486 96.904L51.2267 96.9804L51.2781 95.2301ZM46.6271 83.7315L49.463 75.5385L52.178 76.4782L50.4987 81.3298L52.2497 81.9359L53.7066 77.7269L56.0681 78.5443L54.6113 82.7533L56.5551 83.4262L58.29 78.4139L61.021 79.3592L58.1295 87.713L46.6271 83.7315ZM52.3476 69.9639L54.8901 66.6435L63.6899 67.986L63.7106 67.959L57.5152 63.2151L59.603 60.4886L69.2672 67.8886L66.7144 71.2225L57.9384 69.8769L57.9177 69.9039L64.0996 74.6374L62.0119 77.3639L52.3476 69.9639ZM64.7865 55.5856L68.3514 53.3992L76.0828 57.8111L76.1118 57.7933L72.0323 51.1417L74.9596 49.3463L81.3232 59.7224L77.7438 61.9176L70.0358 57.5113L70.0068 57.5291L74.0774 64.1662L71.1501 65.9616L64.7865 55.5856ZM88.9012 57.8661C87.8611 58.0967 86.9108 58.1565 86.0504 58.0455C85.1875 57.9234 84.4476 57.6232 83.8307 57.1447C83.2139 56.6662 82.7667 56.0108 82.4892 55.1785L85.5895 53.8467C85.7331 54.2328 85.9487 54.5507 86.2362 54.8003C86.5213 55.0389 86.8593 55.202 87.2502 55.2894C87.6497 55.3633 88.0652 55.3525 88.4967 55.2568C88.8839 55.1709 89.2104 55.0463 89.476 54.8829C89.7391 54.7085 89.9285 54.5156 90.0441 54.3042C90.1708 54.0903 90.2084 53.8672 90.1569 53.6349C90.0956 53.3583 89.907 53.1621 89.5911 53.0464C89.2752 52.9307 88.8063 52.8838 88.1843 52.9057L86.6151 52.975C85.1202 53.0395 83.9838 52.862 83.2059 52.4425C82.4255 52.0119 81.9224 51.2876 81.6967 50.2697C81.5201 49.473 81.5812 48.7281 81.8803 48.0349C82.1903 47.3393 82.6971 46.7452 83.4004 46.2525C84.1038 45.7599 84.9423 45.4056 85.916 45.1897C86.7901 44.9959 87.6186 44.9631 88.4016 45.0913C89.1822 45.2084 89.8526 45.4834 90.413 45.9164C90.9819 46.3358 91.3923 46.8775 91.644 47.5414L88.612 48.9451C88.5076 48.6316 88.3412 48.3783 88.1126 48.1852C87.8927 47.9786 87.6364 47.8439 87.3439 47.7811C87.0489 47.7072 86.7409 47.7058 86.4201 47.777C86.1213 47.8432 85.8668 47.9519 85.6566 48.103C85.4438 48.243 85.295 48.4095 85.2101 48.6025C85.1252 48.7954 85.1061 48.997 85.1527 49.2073C85.2165 49.4949 85.3885 49.6948 85.6687 49.8068C85.9575 49.9052 86.3896 49.9429 86.9649 49.9198L88.5599 49.8099C90.056 49.6987 91.201 49.8627 91.9949 50.3019C92.7999 50.7387 93.3177 51.4771 93.5484 52.5171C93.7397 53.3802 93.6662 54.1743 93.3279 54.8994C93.0006 55.622 92.452 56.237 91.6823 56.7444C90.9236 57.2493 89.9966 57.6232 88.9012 57.8661ZM99.2038 52.4456L95.7599 44.0611L99.5849 44.4219L101.329 49.4699L101.362 49.4731L103.85 44.8242L107.726 45.1898L102.876 52.792L102.487 56.9216L98.8143 56.5752L99.2038 52.4456ZM112.781 46.3579L116.226 47.6773L112.992 56.1231L117.135 57.71L116.016 60.6311L108.428 57.7249L112.781 46.3579ZM122.961 50.7181L126.041 52.9571L122.831 61.8257L122.858 61.8457L130.276 56.0358L133.37 58.2848L122.72 65.5916L119.283 63.0927L122.961 50.7181ZM138.108 64.2329L140.716 67.9272L133.213 78.4049L130.988 75.2523L132.371 73.5268L130.028 70.2075L127.929 70.9191L125.723 67.7943L138.108 64.2329ZM134.069 71.5996L137.144 67.7018L137.124 67.674L132.412 69.2524L134.069 71.5996ZM145.786 76.9995L146.845 81.045L140.382 87.1662L140.391 87.1991L147.939 85.2221L148.809 88.5441L137.035 91.628L135.971 87.5661L142.422 81.4656L142.413 81.4327L134.881 83.4054L134.011 80.0834L145.786 76.9995ZM149.666 94.3652L149.646 98.0541L137.474 97.9893L137.494 94.3003L149.666 94.3652ZM148.183 107.075L147.055 111.454L134.212 112.517L135.174 108.78L137.385 108.718L138.398 104.783L136.497 103.644L137.451 99.9398L148.183 107.075ZM139.953 108.765L144.915 108.586L144.923 108.553L140.67 105.983L139.953 108.765Z" fill="white"/>
<path d="M65.5489 120.496L69.8692 124.783C70.5611 125.469 71.0448 126.197 71.3202 126.965C71.5957 127.733 71.6548 128.486 71.4974 129.224C71.34 129.962 70.966 130.629 70.3753 131.224C69.7766 131.828 69.1049 132.207 68.3602 132.362C67.6236 132.525 66.87 132.472 66.0996 132.203C65.3293 131.933 64.5941 131.451 63.8942 130.757L62.2047 129.08L59.5704 131.711L56.9758 129.137L65.5489 120.496ZM65.3036 128.443C65.5771 128.715 65.8543 128.902 66.1352 129.005C66.4321 129.108 66.7167 129.127 66.9889 129.062C67.2772 128.996 67.533 128.851 67.7565 128.626C68.0998 128.28 68.2505 127.887 68.2087 127.446C68.175 127.013 67.9529 126.594 67.5426 126.187L66.2876 124.941L64.0606 127.21L65.3036 128.443ZM77.0943 144.787C76.706 144.601 76.3852 144.353 76.1317 144.043C75.8734 143.743 75.6929 143.398 75.5902 143.01C75.4978 142.626 75.4834 142.211 75.5471 141.763L75.7742 140.307C75.8293 139.957 75.8091 139.645 75.7134 139.373C75.6279 139.106 75.4523 138.909 75.1867 138.781L74.0984 138.259L72.2306 142.152L68.9046 140.556L74.1698 129.582L79.8715 132.318C80.7911 132.759 81.5118 133.274 82.0334 133.864C82.5652 134.458 82.8773 135.105 82.9698 135.803C83.0672 136.491 82.937 137.207 82.5791 137.953C82.3536 138.423 82.0482 138.811 81.6628 139.116C81.2877 139.427 80.8476 139.637 80.3425 139.746C79.8476 139.861 79.3028 139.87 78.7081 139.773L78.7008 139.788C78.9325 140.013 79.0785 140.259 79.1386 140.526C79.2036 140.784 79.2062 141.093 79.1461 141.454L78.9661 142.536C78.9388 142.724 78.9517 142.894 79.0048 143.045C79.058 143.196 79.1561 143.306 79.2991 143.375C79.4218 143.434 79.554 143.46 79.6958 143.452C79.8478 143.45 79.9919 143.425 80.128 143.377L79.9591 145.144C79.53 145.252 79.0665 145.275 78.5687 145.212C78.066 145.159 77.5746 145.018 77.0943 144.787ZM77.0132 137.018C77.3299 137.17 77.6303 137.251 77.9144 137.262C78.2087 137.277 78.4637 137.217 78.6794 137.082C78.9054 136.951 79.0797 136.758 79.2022 136.503C79.3297 136.237 79.3736 135.975 79.3339 135.718C79.3044 135.465 79.1916 135.228 78.9954 135.008C78.8094 134.793 78.558 134.61 78.2412 134.458L76.356 133.554L75.1279 136.113L77.0132 137.018ZM90.5906 148.529C89.2356 148.414 88.0613 148.046 87.0677 147.427C86.0864 146.797 85.3555 145.966 84.8748 144.936C84.4054 143.906 84.2257 142.748 84.3357 141.46C84.4466 140.162 84.8207 139.045 85.458 138.11C86.1065 137.175 86.9672 136.487 88.0402 136.044C89.1244 135.602 90.344 135.439 91.6991 135.555C93.0655 135.671 94.2398 136.039 95.222 136.658C96.2043 137.276 96.9357 138.101 97.4164 139.131C97.8971 140.162 98.0819 141.327 97.971 142.625C97.861 143.913 97.4818 145.023 96.8332 145.957C96.1847 146.892 95.3235 147.586 94.2496 148.04C93.1766 148.483 91.957 148.646 90.5906 148.529ZM90.8569 145.413C91.4893 145.467 92.0546 145.373 92.553 145.131C93.0514 144.889 93.4517 144.531 93.7539 144.056C94.057 143.57 94.2375 142.989 94.2954 142.311C94.3533 141.634 94.2741 141.03 94.0578 140.499C93.8414 139.969 93.5077 139.548 93.0566 139.237C92.6065 138.914 92.0652 138.725 91.4328 138.671C90.8118 138.618 90.2464 138.712 89.7367 138.953C89.2393 139.183 88.839 139.542 88.5359 140.028C88.244 140.515 88.0692 141.097 88.0113 141.774C87.9534 142.452 88.027 143.055 88.232 143.585C88.4493 144.104 88.783 144.525 89.2331 144.847C89.6946 145.171 90.2358 145.36 90.8569 145.413ZM108.606 147.704C107.45 148.034 106.397 148.123 105.446 147.97C104.503 147.804 103.706 147.407 103.055 146.78C102.404 146.153 101.93 145.322 101.634 144.286L99.6015 137.176L103.148 136.162L105.149 143.158C105.267 143.572 105.448 143.915 105.691 144.188C105.944 144.457 106.245 144.642 106.592 144.743C106.947 144.83 107.332 144.815 107.746 144.696C108.149 144.581 108.473 144.394 108.717 144.136C108.961 143.877 109.12 143.566 109.193 143.204C109.266 142.841 109.24 142.442 109.116 142.006L107.12 135.026L110.667 134.012L112.7 141.122C112.996 142.158 113.028 143.115 112.796 143.995C112.575 144.871 112.109 145.629 111.396 146.269C110.68 146.898 109.75 147.376 108.606 147.704ZM112.898 133.696L117.32 130.737C119.1 129.545 120.759 129.069 122.297 129.309C123.844 129.542 125.159 130.469 126.243 132.089C126.962 133.162 127.36 134.226 127.437 135.279C127.517 136.316 127.275 137.31 126.711 138.26C126.15 139.194 125.276 140.059 124.089 140.853L119.667 143.812L112.898 133.696ZM122.482 138.451C123.009 138.098 123.391 137.7 123.626 137.256C123.864 136.797 123.945 136.306 123.868 135.785C123.795 135.247 123.569 134.696 123.191 134.131C122.618 133.274 121.96 132.759 121.218 132.588C120.485 132.41 119.718 132.589 118.918 133.124L117.448 134.107L121.013 139.434L122.482 138.451Z" fill="white"/>
<mask id="mask0_977_12994" style="mask-type:luminance" maskUnits="userSpaceOnUse" x="65" y="65" width="64" height="64">
<path d="M111.923 126.688L126.571 82.3796L82.2627 67.7313L67.6144 112.04L111.923 126.688Z" fill="white" stroke="white" stroke-width="3"/>
</mask>
<g mask="url(#mask0_977_12994)">
<path d="M112.571 79.7478L124.08 83.5526L119.421 97.6443L114.134 95.8963L114.076 95.4451C113.357 89.7885 109.689 85.3337 104.275 83.5439L99.47 81.9555C94.0547 80.1652 88.452 81.5566 84.5033 85.6722L84.1914 85.9974L78.9039 84.2494L83.5626 70.1577L95.624 74.1452" fill="#F18221"/>
<path d="M112.571 79.7478L124.08 83.5526L119.421 97.6443L114.134 95.8963L114.076 95.4451C113.357 89.7885 109.689 85.3337 104.275 83.5439L99.47 81.9555C94.0547 80.1652 88.452 81.5566 84.5033 85.6722L84.1914 85.9974L78.9039 84.2494L83.5626 70.1577L95.624 74.1452" stroke="white" stroke-width="3" stroke-miterlimit="22.926" stroke-linecap="round" stroke-linejoin="round"/>
<path d="M91.7801 88.0942L106.791 93.0569C108.288 93.5516 109.119 95.1517 108.664 96.6607C106.409 104.133 105.931 111.335 107.145 116.371C108.645 117.767 109.215 119.946 108.592 122.058C107.387 123.657 99.1756 122.52 89.7621 119.409L89.7577 119.408L89.7541 119.407C80.3373 116.293 73.0547 112.307 73.04 110.305C73.1892 109.853 74.6347 106.829 77.6494 106.561C81.6095 103.232 85.4961 97.185 88.1285 89.8717C88.6623 88.3887 90.2836 87.5995 91.7801 88.0942Z" fill="#F18221" stroke="white" stroke-width="3" stroke-miterlimit="22.926" stroke-linecap="round" stroke-linejoin="round"/>
<path d="M89.1313 104.897L86.7461 112.112L90.0414 118.852" fill="#F18221"/>
<path d="M89.1313 104.897L86.7461 112.112L90.0414 118.852" stroke="white" stroke-width="3" stroke-miterlimit="22.926" stroke-linecap="round" stroke-linejoin="round"/>
<path d="M106.256 84.313L103.703 92.0356L94.8688 89.1152L97.4219 81.3925" fill="#F18221"/>
<path d="M106.256 84.313L103.703 92.0356L94.8688 89.1152L97.4219 81.3925" stroke="white" stroke-width="3" stroke-miterlimit="22.926" stroke-linecap="round" stroke-linejoin="round"/>
<path d="M105.83 84.6879L113.637 78.0567L95.2246 71.9695L97.5407 81.9475" fill="#F18221"/>
<path d="M105.83 84.6879L113.637 78.0567L95.2246 71.9695L97.5407 81.9475" stroke="white" stroke-width="3" stroke-miterlimit="22.926" stroke-linecap="round" stroke-linejoin="round"/>
<path d="M87.1666 94.7457L106.884 101.264L87.1666 94.7457Z" fill="#F18221"/>
<path d="M87.1666 94.7457L106.884 101.264" stroke="white" stroke-width="3" stroke-miterlimit="22.926" stroke-linecap="round" stroke-linejoin="round"/>
</g>
</svg>
