<svg width="50" height="59" viewBox="0 0 50 59" fill="none" xmlns="http://www.w3.org/2000/svg">
<path fill-rule="evenodd" clip-rule="evenodd" d="M44.2383 5.38938C41.9019 5.61885 38.3204 5.96741 36.2794 6.164C25.8955 7.16387 26.2814 7.11416 24.8049 7.64238C23.8457 7.98565 22.8691 8.50046 22.0225 9.10931C20.8725 9.93637 9.94707 18.7734 9.81162 18.9861C9.71641 19.1356 7.26126 27.2209 6.62493 29.4803L6.53656 29.7941L3.73238 29.8228C1.01122 29.8506 0.919131 29.8579 0.622845 30.0697C-0.0402349 30.5437 0.000487301 29.7328 0.000487301 42.4505V53.9436L0.220505 54.2708C0.341597 54.4507 0.594231 54.6884 0.782023 54.799L1.12352 55H23.3889C45.4812 55 45.6569 54.9984 45.9785 54.8043C46.1568 54.6967 46.3985 54.4545 46.5156 54.2661L46.7285 53.9236V42.4257C46.7285 31.1038 46.7255 30.9228 46.5332 30.5956C46.4258 30.4129 46.2139 30.1707 46.0622 30.0575C45.7902 29.8541 45.7036 29.8509 39.2925 29.8025L32.7984 29.7536L33.4159 29.3986C34.0221 29.0499 34.0626 29.0414 35.6447 28.9281C37.5457 28.792 38.7702 28.562 40.143 28.0832C42.3246 27.3223 43.953 26.2861 45.6579 24.5736C47.0573 23.1681 47.6649 22.2971 49.0094 19.7689C49.8411 18.2048 50 17.8356 50 17.4675C50 16.6079 49.2413 15.933 48.3838 16.0299C47.6636 16.1112 47.4554 16.3505 46.4248 18.2821C45.1578 20.6571 44.6785 21.3585 43.5647 22.4676C42.4897 23.538 41.2991 24.3684 40.0426 24.924C38.6851 25.5243 37.5546 25.7685 35.3159 25.9451C33.3729 26.0984 33.3406 26.1046 32.5685 26.4771C31.2494 27.1133 28.0607 29.3471 25.0748 31.7266L23.9286 32.64L23.7921 32.313C23.0991 30.6508 23.4971 28.5825 24.7543 27.3128C25.0239 27.0406 27.1855 25.3507 29.5579 23.5572C34.0292 20.1771 34.1798 20.0403 34.1798 19.3604C34.1798 19 33.2512 16.0764 32.9838 15.595C32.8637 15.3788 32.6146 15.1442 32.3637 15.0108L31.9443 14.7879L28.4637 15.0988C25.6535 15.3498 24.9305 15.4434 24.7104 15.585C24.0434 16.0141 15.4311 23.0271 15.302 23.2463C15.2228 23.3809 14.7841 24.7519 14.3273 26.293C13.8705 27.8341 13.4214 29.2543 13.3293 29.4488L13.1617 29.8025H11.4079C9.97324 29.8025 9.65977 29.7782 9.68565 29.6686C9.70303 29.5949 10.3104 27.5405 11.0355 25.1034L12.3539 20.6722L17.8226 16.2666C20.8304 13.8435 23.489 11.719 23.7307 11.5454C24.7262 10.8305 26.2182 10.2293 27.4589 10.043C27.8523 9.98403 32.8322 9.49192 38.5255 8.94961C45.9728 8.24027 48.9677 7.92097 49.2003 7.81157C49.6614 7.59472 50 7.05408 50 6.53457C50 5.70692 49.5279 5.17733 48.6328 5.001C48.5523 4.98515 46.5747 5.15991 44.2383 5.38938ZM28.3161 18.114L26.0168 18.3207L21.9685 21.5797C19.742 23.3721 17.9071 24.8496 17.8908 24.863C17.8747 24.8763 17.5567 25.9124 17.1842 27.1657C16.8117 28.4189 16.4814 29.5248 16.4501 29.6234C16.3964 29.7931 16.5005 29.8025 18.4339 29.8025H20.4743L20.5946 29.1484C20.8718 27.6409 21.7686 25.9763 22.8314 24.9968C23.1461 24.7068 25.1003 23.1925 27.1742 21.6317C31.2051 18.5981 31.008 18.791 30.7254 18.155L30.6154 17.9074L28.3161 18.114ZM2.93015 42.4252V52.0154H23.3401H43.7501V42.4257V32.836H36.1203H28.4904L27.2092 33.8423C26.5045 34.3956 25.631 35.0892 25.2679 35.3835L24.608 35.9184L24.6332 36.4401L24.6584 36.9617L25.1921 37.1496C26.2723 37.5299 27.1474 38.3047 27.1483 38.8816C27.149 39.2787 26.8755 39.7745 26.5442 39.9768C26.0623 40.2713 25.6301 40.2301 24.9798 39.8279C23.9505 39.1913 22.7865 39.1489 22.4039 39.734C22.1186 40.1702 22.2776 40.3124 23.6606 40.8582C25.9034 41.7434 26.5887 42.2164 27.1308 43.253C27.4992 43.9575 27.5032 45.0766 27.1402 45.8506C26.7318 46.721 25.9413 47.4024 24.8782 47.8002C24.6287 47.8936 24.6096 47.94 24.6096 48.4542C24.6096 49.3791 24.1139 49.9125 23.2837 49.8812C22.5638 49.854 22.1682 49.3313 22.1682 48.4073V47.8229L21.802 47.7066C20.9939 47.45 19.8518 46.6476 19.5211 46.1044C19.1365 45.4723 19.4122 44.6024 20.0866 44.3201C20.5907 44.109 21.0013 44.2193 21.5918 44.7243C22.184 45.2308 22.7801 45.4592 23.5104 45.4592C24.6158 45.4592 25.283 44.6772 24.6699 44.1C24.5418 43.9796 23.7091 43.5801 22.8193 43.2125C20.9706 42.4485 20.739 42.3058 20.3206 41.6729C19.9207 41.0679 19.793 40.5574 19.848 39.7837C19.9287 38.6491 20.6814 37.6072 21.7337 37.1736L22.1676 36.9948L22.1678 36.2226C22.1682 35.4838 22.1506 35.4223 21.7594 34.8037C21.5345 34.4481 21.2294 33.8708 21.0815 33.521L20.8126 32.8849L11.8714 32.86L2.93015 32.835V42.4252ZM7.03362 36.2367C6.84671 36.3307 6.5929 36.5589 6.46976 36.7437L6.24564 37.0798L6.2725 42.4873L6.29925 47.8948L6.63675 48.2437C6.8223 48.4354 7.12991 48.6359 7.32034 48.6888C7.51067 48.7418 8.65685 48.7854 9.86738 48.7857C11.9562 48.7863 12.0906 48.775 12.5041 48.5661C13.3625 48.1324 13.6086 47.0379 13.0085 46.3232C12.593 45.8285 12.2798 45.7528 10.648 45.7528H9.18009V42.3768V39.0008H10.7555C12.588 39.0008 12.8211 38.9202 13.1887 38.1591C13.5371 37.4381 13.3315 36.7849 12.599 36.2854C12.2853 36.0715 12.2063 36.0652 9.82481 36.0654C7.68586 36.0655 7.3301 36.0873 7.03362 36.2367ZM34.1227 36.2019C33.5188 36.4702 33.1537 37.2213 33.3035 37.8869C33.3506 38.0959 33.534 38.3994 33.7351 38.6011L34.0849 38.9519L35.7437 38.9828L37.4025 39.0138V42.3767V45.7396L35.8156 45.7707C34.3367 45.7996 34.207 45.8172 33.9098 46.0296C33.0274 46.6603 33.076 47.9824 34.0022 48.5416C34.3038 48.7237 34.4995 48.7373 36.8165 48.7373C39.1336 48.7373 39.3293 48.7237 39.6309 48.5416C39.8092 48.434 40.0509 48.1918 40.168 48.0034C40.3788 47.6644 40.3812 47.6099 40.408 42.5236L40.4351 37.3862L40.2127 36.9517C39.7863 36.1181 39.7829 36.1173 36.9317 36.091C34.9821 36.0731 34.357 36.0978 34.1227 36.2019Z" fill="#0057C7"/>
</svg>
