<svg width="50" height="59" viewBox="0 0 50 59" fill="none" xmlns="http://www.w3.org/2000/svg">
<path fill-rule="evenodd" clip-rule="evenodd" d="M36.9291 5.05039C36.7673 5.10064 36.566 5.1952 36.4819 5.26051C36.2233 5.46122 25.6216 17.6609 25.4078 18.0037C24.9893 18.6749 25.2618 19.5726 25.9931 19.9317C26.2775 20.0714 26.6091 20.0994 27.9786 20.0995L29.6228 20.0997L29.5973 24.4871L29.5718 28.8745H27.4626H25.3535L25.3045 26.4119C25.2587 24.1136 25.2419 23.9312 25.0523 23.6788C24.5899 23.0632 24.6828 23.0729 19.242 23.0728C13.9048 23.0726 14.0484 23.0594 13.5327 23.5985L13.2875 23.8548L13.2384 26.3647L13.1894 28.8745L7.28611 28.9224C1.50931 28.9693 1.37688 28.9746 1.10593 29.169C0.953583 29.2782 0.751501 29.5156 0.656836 29.6964C0.495073 30.0054 0.486146 30.7223 0.509689 41.5501L0.534704 53.075L0.741201 53.3457C0.8547 53.4946 1.09583 53.7013 1.27701 53.8049C1.60172 53.9908 1.9071 53.9936 22.6694 53.9967L43.7322 54L44.0033 53.8023C44.1524 53.6935 44.3653 53.4854 44.4766 53.3397C44.6788 53.075 44.6789 53.0707 44.7045 36.5873L44.7301 20.0997H46.5699C48.7341 20.0997 48.9451 20.0388 49.3231 19.3047C49.6047 18.7579 49.5502 18.2505 49.1588 17.7733C48.1223 16.5097 38.2111 5.21994 38.0764 5.14945C37.7933 5.00139 37.2408 4.95363 36.9291 5.05039ZM33.59 12.879C31.5419 15.2294 29.8528 17.1855 29.8365 17.2261C29.8203 17.2667 30.2252 17.3148 30.7363 17.3332C31.567 17.363 31.6932 17.392 31.9274 17.6063C32.0715 17.7382 32.2405 17.9324 32.303 18.0379C32.3836 18.1741 32.4308 19.7728 32.4657 23.5521L32.5147 28.8745L34.7266 28.9224C37.1322 28.9746 37.2611 29.0031 37.639 29.5669C37.8012 29.8089 37.8137 30.4877 37.8382 40.498L37.8644 51.171H39.8236H41.7828L41.8084 34.7003L41.834 18.2297L42.0625 17.9166C42.425 17.4197 42.7272 17.3186 43.8506 17.3186C44.6886 17.3186 44.8382 17.2961 44.7915 17.1772C44.7355 17.0346 37.5331 8.73799 37.3905 8.65188C37.3484 8.62637 35.6381 10.5286 33.59 12.879ZM16.0833 27.388V28.9224H19.2715H22.4596V27.388V25.8537H19.2715H16.0833V27.388ZM3.4286 35.0137V38.324L5.80748 38.2983L8.18636 38.2726L8.23541 36.973C8.29211 35.4698 8.38334 35.2508 9.07729 34.9507C9.60702 34.7216 10.0798 34.7838 10.512 35.1394C10.9828 35.5266 11.0803 35.8742 11.0803 37.1667V38.3205H19.1734H27.2664L27.2668 37.0499C27.2672 35.5442 27.3787 35.2662 28.1077 34.9509C28.8101 34.6472 29.5261 34.8833 29.9059 35.5439C30.0842 35.8541 30.1113 36.0608 30.1113 37.1109V38.3205H32.5147H34.9181V35.012V31.7035H19.1734H3.4286V35.0137ZM3.4286 46.1346V51.171H19.1734H34.9181V46.1363V41.1016H32.5147H30.1113L30.1111 41.9887C30.111 42.9709 29.9641 43.3928 29.5094 43.7186C29.1383 43.9844 28.4725 44.0291 28.0582 43.816C27.4549 43.5056 27.3214 43.2208 27.2664 42.1261L27.2174 41.1495L23.9066 41.1243L20.5958 41.099V41.9729C20.5958 42.5804 20.5472 42.9467 20.4366 43.1748C19.9803 44.1147 18.643 44.2235 18.0031 43.3728C17.8394 43.1551 17.7905 42.9131 17.7509 42.1261L17.7019 41.1495L14.3911 41.1243L11.0803 41.099V41.9729C11.0803 42.9607 10.9333 43.3834 10.4805 43.6986C9.88689 44.1119 9.09485 44.0255 8.57041 43.4906C8.29947 43.2142 8.28191 43.1453 8.23541 42.1743L8.18636 41.1495L5.80748 41.1238L3.4286 41.0981V46.1346Z" fill="#0057C7"/>
</svg>
