<svg width="157" height="157" viewBox="0 0 157 157" fill="none" xmlns="http://www.w3.org/2000/svg">
<g clip-path="url(#clip0_2466_11140)">
<path d="M37.1852 85.8415H93.5228C94.5628 85.8415 95.4252 84.9806 95.4252 83.9425C95.4252 82.9044 94.5628 82.0434 93.5228 82.0434H67.0662V37.6565C71.1247 36.8716 74.3208 33.6812 75.0818 29.6299H93.5228C94.5628 29.6299 95.4252 28.769 95.4252 27.7308C95.4252 26.6927 94.5628 25.8318 93.5228 25.8318H75.0818C74.194 21.1728 70.0847 17.6279 65.1384 17.6279C60.1921 17.6279 56.1081 21.1728 55.195 25.8318H36.754C35.714 25.8318 34.8516 26.6927 34.8516 27.7308C34.8516 28.769 35.714 29.6299 36.754 29.6299H55.195C55.9813 33.6812 59.1774 36.8716 63.236 37.6565V82.0688H37.1599C36.1199 82.0688 35.2574 82.9297 35.2574 83.9678C35.2574 85.006 36.1199 85.8669 37.1599 85.8669L37.1852 85.8415ZM58.8223 27.7308C58.8223 24.2619 61.6633 21.426 65.1384 21.426C68.6135 21.426 71.4545 24.2619 71.4545 27.7308C71.4545 31.1998 68.6389 34.0103 65.1638 34.0357C65.1638 34.0357 65.1638 34.0357 65.1384 34.0357C61.6633 34.0357 58.8477 31.1998 58.8477 27.7308H58.8223Z" fill="#0D2E59"/>
<path d="M101.996 50.8992L91.5196 34.8966C90.8093 33.8331 89.0337 33.8331 88.3235 34.8966L77.7713 51.0005C76.3 53.2287 75.5391 55.8367 75.5391 58.5966C75.5391 66.1675 81.703 72.3204 89.2874 72.3204H90.4795C97.9371 72.3204 104.101 66.2688 104.228 58.622C104.228 58.622 104.228 58.622 104.228 58.5966C104.253 55.862 103.492 53.2287 101.996 50.9245V50.8992ZM89.9469 39.429L98.8249 53.0008C99.5605 54.1149 100.017 55.3809 100.271 56.7229H79.5722C79.8005 55.4316 80.2825 54.1909 81.0181 53.1021L89.9722 39.429H89.9469ZM90.5049 68.5476H89.3127C84.4932 68.5476 80.4854 65.1293 79.5722 60.521H100.245C99.3322 65.0787 95.2991 68.5476 90.5049 68.5476Z" fill="#0D2E59"/>
<path d="M53.0152 50.8991L42.5391 34.8965C42.184 34.3648 41.5752 34.0356 40.941 34.0356C40.3069 34.0356 39.6981 34.3648 39.343 34.8965L28.7908 51.0004C27.3196 53.2286 26.5586 55.8367 26.5586 58.5966C26.5586 66.1674 32.7225 72.3203 40.3069 72.3203H41.4991C48.9566 72.3203 55.1205 66.2687 55.2474 58.6219C55.2474 58.6219 55.2474 58.6219 55.2474 58.5966C55.2727 55.862 54.5118 53.2286 53.0152 50.9245V50.8991ZM40.9664 39.4289L49.8444 53.0007C50.5801 54.1149 51.0366 55.3809 51.2903 56.7229H30.5918C30.8201 55.4315 31.302 54.1908 32.0376 53.102L40.9918 39.4289H40.9664ZM41.5244 68.5476H40.3323C35.5127 68.5476 31.5049 65.1293 30.5918 60.521H51.2649C50.3518 65.0787 46.3186 68.5476 41.5244 68.5476Z" fill="#0D2E59"/>
<path d="M133.728 97.5903H73.7126C64.657 97.5903 56.5653 103.009 53.0902 111.365C51.9995 114.049 51.4414 116.885 51.4414 119.796V134.153C51.4414 146.408 61.4355 156.385 73.7126 156.385H133.728C146.005 156.385 155.999 146.408 155.999 134.153V119.796C155.999 107.541 146.005 97.5649 133.728 97.5649V97.5903ZM152.195 134.178C152.195 144.332 143.925 152.612 133.728 152.612H73.7126C63.5409 152.612 55.2463 144.357 55.2463 134.178V119.822C55.2463 117.391 55.7029 115.036 56.616 112.833C59.4824 105.895 66.179 101.414 73.7126 101.414H133.728C143.9 101.414 152.195 109.668 152.195 119.847V134.204V134.178Z" fill="#0D2E59"/>
<path d="M15.4224 113.441H46.0898C47.1298 113.441 47.9922 112.58 47.9922 111.542C47.9922 110.504 47.1298 109.643 46.0898 109.643H20.6224V4.18273H110.595V90.0701C110.595 91.1082 111.458 91.9691 112.498 91.9691C113.538 91.9691 114.4 91.1082 114.4 90.0701V2.28369C114.4 1.24554 113.538 0.384644 112.498 0.384644H18.72C8.3961 0.384644 0 11.9815 0 26.2623V125.063C0 133.546 6.92488 140.458 15.4224 140.458H45.9629C47.0029 140.458 47.8654 139.597 47.8654 138.559C47.8654 137.521 47.0029 136.66 45.9629 136.66H15.4224C9.00488 136.66 3.80488 131.469 3.80488 125.063C3.80488 121.974 5.02244 119.037 7.2039 116.809C9.36 114.656 12.3532 113.416 15.4224 113.416V113.441ZM3.80488 114.884V26.2623C3.80488 15.0453 9.48683 5.7526 16.8176 4.35997V109.643H15.4224C11.3639 109.643 7.38146 111.289 4.48976 114.15C4.26146 114.403 4.03317 114.631 3.80488 114.884Z" fill="#0D2E59"/>
<path d="M95.3236 114.251L76.147 133.394L68.385 125.646C67.6494 124.911 66.4318 124.911 65.6962 125.646C64.9606 126.38 64.9606 127.595 65.6962 128.33L74.8026 137.42C75.1831 137.799 75.665 137.977 76.147 137.977C76.6289 137.977 77.1109 137.799 77.4914 137.42L98.0123 116.935C98.7479 116.201 98.7479 114.986 98.0123 114.251C97.2767 113.517 96.0592 113.517 95.3236 114.251Z" fill="#0D2E59"/>
<path d="M144.052 112.656C143.317 111.922 142.099 111.922 141.363 112.656L130.304 123.696L119.244 112.656C118.509 111.922 117.291 111.922 116.556 112.656C115.82 113.39 115.82 114.606 116.556 115.34L127.615 126.38L116.556 137.42C115.82 138.154 115.82 139.369 116.556 140.104C116.936 140.483 117.418 140.661 117.9 140.661C118.382 140.661 118.864 140.483 119.244 140.104L130.304 129.064L141.363 140.104C141.744 140.483 142.226 140.661 142.708 140.661C143.19 140.661 143.672 140.483 144.052 140.104C144.788 139.369 144.788 138.154 144.052 137.42L132.993 126.38L144.052 115.34C144.788 114.606 144.788 113.39 144.052 112.656Z" fill="#0D2E59"/>
</g>
<defs>
<clipPath id="clip0_2466_11140">
<rect width="156" height="156" fill="white" transform="translate(0 0.384644)"/>
</clipPath>
</defs>
</svg>
