<svg width="53" height="59" viewBox="0 0 53 59" fill="none" xmlns="http://www.w3.org/2000/svg">
<path fill-rule="evenodd" clip-rule="evenodd" d="M9.80002 5.09419C9.01649 5.36703 8.71276 5.97768 8.71182 7.28236L8.7112 8.01989L6.71503 8.07418C4.93071 8.12277 4.63891 8.15641 3.9656 8.39093C1.8005 9.14517 0.393124 10.8805 0.109409 13.146C-0.0348342 14.2971 -0.0372193 44.4515 0.106816 45.4765C0.397583 47.5464 2.01962 49.1693 4.09667 49.4687C4.5491 49.5338 9.18562 49.574 16.4041 49.5753L27.9857 49.5774L28.4558 50.5709C29.1038 51.9406 29.7583 52.8937 30.7964 53.9799C33.3384 56.6395 36.5072 58.0032 40.1374 58C43.7054 57.9968 46.668 56.7573 49.2087 54.2049C51.7791 51.6227 53 48.6948 53 45.1132C53 42.4431 52.3241 40.1966 50.8303 37.9012C50.2206 36.9644 48.2673 35.0043 47.3685 34.4276L46.6727 33.9811L46.6363 23.4295C46.6087 15.427 46.5688 12.7656 46.4709 12.4135C46.2304 11.5479 45.7194 10.6407 45.0973 9.97498C44.3421 9.16666 43.6904 8.73612 42.6994 8.39093C42.0268 8.15661 41.7338 8.12277 39.9617 8.07449L37.9773 8.02051L37.9358 7.07057C37.9049 6.36441 37.8411 6.02938 37.687 5.76538C37.1074 4.77163 35.6894 4.77163 35.1097 5.76538C34.955 6.03063 34.8918 6.36503 34.8603 7.08542L34.8181 8.0502H32.0431H29.268L29.2258 7.08542C29.1944 6.36503 29.1312 6.03063 28.9765 5.76538C28.3968 4.77163 26.9788 4.77163 26.3992 5.76538C26.2444 6.03063 26.1812 6.36503 26.1498 7.08542L26.1076 8.0502H23.3325H20.5575L20.5153 7.08542C20.4839 6.36503 20.4206 6.03063 20.2659 5.76538C19.6862 4.77163 18.2683 4.77163 17.6886 5.76538C17.5339 6.03063 17.4706 6.36503 17.4392 7.08542L17.397 8.0502H14.6219H11.8469L11.8047 7.08542C11.7573 5.99938 11.5639 5.53158 11.0408 5.23725C10.5704 4.97262 10.2539 4.93608 9.80002 5.09419ZM4.61288 11.359C4.08039 11.6012 3.54749 12.1347 3.30557 12.6678C3.13799 13.0371 3.1158 13.3943 3.11383 15.7587L3.11155 18.432H23.3325H43.5535L43.5512 15.7587C43.5487 12.7782 43.5139 12.5945 42.8196 11.8995C42.1669 11.2459 41.8529 11.1696 39.8068 11.167L37.9786 11.1647L37.9364 12.1295C37.905 12.8499 37.8417 13.1843 37.687 13.4496C37.1074 14.4433 35.6894 14.4433 35.1097 13.4496C34.955 13.1843 34.8918 12.8499 34.8603 12.1295L34.8181 11.1647H32.0431H29.268L29.2258 12.1295C29.1944 12.8499 29.1312 13.1843 28.9765 13.4496C28.3968 14.4433 26.9788 14.4433 26.3992 13.4496C26.2444 13.1843 26.1812 12.8499 26.1498 12.1295L26.1076 11.1647H23.3325H20.5575L20.5153 12.1295C20.4839 12.8499 20.4206 13.1843 20.2659 13.4496C19.6862 14.4433 18.2683 14.4433 17.6886 13.4496C17.5339 13.1843 17.4706 12.8499 17.4392 12.1295L17.397 11.1647H14.6219H11.8469L11.8047 12.1295C11.7733 12.8499 11.71 13.1843 11.5553 13.4496C10.9756 14.4433 9.55768 14.4433 8.97802 13.4496C8.8233 13.1843 8.76004 12.8499 8.72862 12.1295L8.68642 11.1647L6.85824 11.167C5.31221 11.169 4.96555 11.1986 4.61288 11.359ZM3.11196 33.4596C3.11227 45.1639 3.1159 45.3786 3.31842 45.7111C3.43177 45.8972 3.67649 46.1422 3.86242 46.2557C4.19425 46.4584 4.40818 46.4621 15.731 46.4624L27.2616 46.4628L27.2626 45.0745C27.2652 41.6824 28.4646 38.6862 30.7964 36.2465C32.7264 34.2273 34.9456 32.9977 37.6594 32.444C39.3294 32.1032 42.0165 32.1806 43.3619 32.6081C43.5466 32.6669 43.5535 32.4689 43.5535 27.1077V21.5465H23.3325H3.11155L3.11196 33.4596ZM16.6949 25.7252C16.1513 26.0955 15.9527 26.4358 15.9527 26.997C15.9527 27.5581 16.1513 27.8984 16.6949 28.2687C17.0155 28.4873 17.1461 28.5023 18.718 28.5023C20.2898 28.5023 20.4205 28.4873 20.7411 28.2687C21.2847 27.8984 21.4833 27.5581 21.4833 26.997C21.4833 26.4358 21.2847 26.0955 20.7411 25.7252C20.4205 25.5067 20.2898 25.4916 18.718 25.4916C17.1461 25.4916 17.0155 25.5067 16.6949 25.7252ZM25.9239 25.7252C25.3803 26.0955 25.1818 26.4358 25.1818 26.997C25.1818 27.5581 25.3803 27.8984 25.9239 28.2687C26.2445 28.4873 26.3752 28.5023 27.947 28.5023C29.5189 28.5023 29.6496 28.4873 29.9702 28.2687C30.5138 27.8984 30.7123 27.5581 30.7123 26.997C30.7123 26.4358 30.5138 26.0955 29.9702 25.7252C29.6496 25.5067 29.5189 25.4916 27.947 25.4916C26.3752 25.4916 26.2445 25.5067 25.9239 25.7252ZM35.153 25.7252C34.6094 26.0955 34.4108 26.4358 34.4108 26.997C34.4108 27.5581 34.6094 27.8984 35.153 28.2687C35.4736 28.4873 35.6043 28.5023 37.1761 28.5023C38.7479 28.5023 38.8786 28.4873 39.1992 28.2687C39.7428 27.8984 39.9414 27.5581 39.9414 26.997C39.9414 26.4358 39.7428 26.0955 39.1992 25.7252C38.8786 25.5067 38.7479 25.4916 37.1761 25.4916C35.6043 25.4916 35.4736 25.5067 35.153 25.7252ZM7.72608 32.5987C6.29713 33.1212 6.40529 35.0601 7.88557 35.4592C8.16306 35.534 8.87899 35.5672 9.74258 35.5454C10.9284 35.5155 11.2043 35.477 11.5074 35.2988C12.5067 34.7109 12.5067 33.2984 11.5074 32.7106C11.1977 32.5285 10.9405 32.4957 9.64448 32.4731C8.52994 32.4537 8.03354 32.4862 7.72608 32.5987ZM16.9551 32.5987C15.5262 33.1212 15.6343 35.0601 17.1146 35.4592C17.3921 35.534 18.108 35.5672 18.9716 35.5454C20.1574 35.5155 20.4334 35.477 20.7365 35.2988C21.7358 34.7109 21.7358 33.2984 20.7365 32.7106C20.4267 32.5285 20.1695 32.4957 18.8735 32.4731C17.759 32.4537 17.2626 32.4862 16.9551 32.5987ZM26.1842 32.5987C24.7552 33.1212 24.8634 35.0601 26.3437 35.4592C26.6212 35.534 27.3371 35.5672 28.2007 35.5454C29.7814 35.5056 30.156 35.3766 30.524 34.7458C30.9306 34.0489 30.6784 33.1299 29.9655 32.7106C29.6558 32.5285 29.3986 32.4957 28.1026 32.4731C26.9881 32.4537 26.4917 32.4862 26.1842 32.5987ZM38.1612 35.4085C34.2756 36.2067 31.2695 39.2262 30.4306 43.1733C30.2549 44 30.2328 45.9493 30.3892 46.833C30.9263 49.8684 32.9183 52.5451 35.6725 53.932C37.176 54.6891 38.4008 54.9759 40.1315 54.9759C41.8622 54.9759 43.087 54.6891 44.5905 53.932C47.3447 52.5451 49.3367 49.8684 49.8737 46.833C50.0138 46.041 50.0138 44.1854 49.8737 43.3933C49.3367 40.358 47.3447 37.6813 44.5905 36.2944C43.6984 35.8452 42.7353 35.5167 41.8493 35.3596C41.016 35.2118 38.9876 35.2386 38.1612 35.4085ZM39.6648 38.5236C39.1548 38.7012 38.8262 39.066 38.677 39.6207C38.6042 39.8915 38.5751 41.0163 38.5957 42.7596C38.6255 45.2723 38.6437 45.5035 38.8389 45.8363C38.955 46.034 39.2117 46.291 39.4092 46.4073C39.7479 46.6064 39.9382 46.6185 42.7239 46.6185C45.5096 46.6185 45.6999 46.6064 46.0386 46.4073C47.0379 45.8195 47.0379 44.4069 46.0386 43.8191C45.7175 43.6304 45.4676 43.6042 43.691 43.574L41.7026 43.5402L41.6689 41.5495C41.6387 39.7708 41.6126 39.5206 41.4241 39.1992C41.0517 38.5647 40.3361 38.2898 39.6648 38.5236ZM7.4658 39.7406C6.92222 40.1109 6.72364 40.4512 6.72364 41.0124C6.72364 41.5735 6.92222 41.9138 7.4658 42.2841C7.78643 42.5027 7.91709 42.5177 9.48893 42.5177C11.0608 42.5177 11.1914 42.5027 11.5121 42.2841C12.0556 41.9138 12.2542 41.5735 12.2542 41.0124C12.2542 40.4512 12.0556 40.1109 11.5121 39.7406C11.1914 39.5221 11.0608 39.507 9.48893 39.507C7.91709 39.507 7.78643 39.5221 7.4658 39.7406ZM16.6949 39.7406C16.1513 40.1109 15.9527 40.4512 15.9527 41.0124C15.9527 41.5735 16.1513 41.9138 16.6949 42.2841C17.0155 42.5027 17.1461 42.5177 18.718 42.5177C20.2898 42.5177 20.4205 42.5027 20.7411 42.2841C21.2847 41.9138 21.4833 41.5735 21.4833 41.0124C21.4833 40.4512 21.2847 40.1109 20.7411 39.7406C20.4205 39.5221 20.2898 39.507 18.718 39.507C17.1461 39.507 17.0155 39.5221 16.6949 39.7406Z" fill="#0057C7"/>
</svg>
