<svg width="51" height="59" viewBox="0 0 51 59" fill="none" xmlns="http://www.w3.org/2000/svg">
<path fill-rule="evenodd" clip-rule="evenodd" d="M20.7072 5.18229C20.3057 5.28082 19.6103 5.54386 19.1617 5.76673C17.6035 6.54128 16.5177 7.64273 15.7548 9.22291C15.2252 10.3198 15.006 11.2681 15.006 12.461C15.006 13.6539 15.2252 14.6022 15.7548 15.6991C16.5177 17.2793 17.6035 18.3807 19.1617 19.1552C19.6103 19.3781 20.3057 19.6383 20.7072 19.7332L21.4371 19.9059L20.5896 19.9788C18.7317 20.1386 16.1705 20.6947 14.7795 21.2402L14.3039 21.4267L13.7326 21.04C10.6369 18.9446 6.63354 18.6557 3.272 20.2848C1.95905 20.9211 0.509705 22.0352 0.182564 22.6595C-0.00967162 23.0266 -0.00877427 23.7178 0.184459 24.0821C0.267615 24.2388 1.38673 25.4141 2.67136 26.6937L5.00701 29.0201L4.48484 30.0314C4.19759 30.5876 3.88381 31.2555 3.78739 31.5158C3.65019 31.8866 3.56405 31.9891 3.38986 31.9891C3.26762 31.9891 2.85483 32.1454 2.47265 32.3365C1.58385 32.7809 0.755683 33.6329 0.32056 34.5509L0 35.2272V37.9225V40.6177L0.370015 41.3658C0.835649 42.3072 1.66841 43.1291 2.59628 43.563C3.12932 43.8123 3.42695 43.8811 4.14963 43.9223L5.04351 43.9732L5.64993 44.8579C6.39634 45.9468 7.50808 47.228 8.31581 47.93L8.92382 48.4585L8.92422 51.7065C8.92452 54.7718 8.93569 54.9728 9.12274 55.2793C9.23172 55.4579 9.46703 55.693 9.64581 55.8019C9.9535 55.9894 10.1537 56 13.4107 56C16.6676 56 16.8678 55.9894 17.1755 55.8019C17.7786 55.4345 17.8967 55.1025 17.8971 53.7726L17.8975 52.5906L18.2215 52.6461C19.9806 52.948 21.2456 53.0331 23.1321 52.9763C24.2289 52.9433 25.5077 52.8489 25.9738 52.7667C26.4399 52.6844 26.8549 52.6163 26.8961 52.6152C26.9373 52.6141 26.9711 53.14 26.9713 53.7839C26.9717 55.1014 27.091 55.4354 27.6929 55.8019C28.0006 55.9894 28.2008 56 31.4577 56C34.7147 56 34.9149 55.9894 35.2226 55.8019C35.4014 55.693 35.6367 55.4579 35.7456 55.2793C35.9327 54.9729 35.9439 54.7718 35.9442 51.7093L35.9446 48.4639L36.6013 47.8842C38.67 46.0581 40.38 43.4365 41.2248 40.796C41.7536 39.1428 41.9457 37.8338 41.9077 36.1389L41.8772 34.7727L42.276 34.6742C44.9188 34.0213 47.1471 31.801 47.8112 29.1585C47.92 28.7251 48.0092 28.1647 48.0092 27.9131C48.0093 27.4866 48.0436 27.4262 48.5195 27.0167C49.9617 25.7756 51.0011 23.5302 51 21.6574C50.9996 20.8741 50.7985 20.4491 50.2784 20.1322C49.3727 19.5804 48.0109 20.2635 48.0096 21.2704C48.0094 21.4303 47.9589 21.8497 47.8974 22.2024L47.7856 22.8438L47.4944 22.3102C47.0589 21.5124 46.281 20.7772 45.4221 20.3513C44.6953 19.9911 44.6552 19.9833 43.5276 19.9833C42.4374 19.9833 42.3395 20.0004 41.6989 20.3036C40.7514 20.7521 39.9225 21.5683 39.4554 22.5128C39.0927 23.2459 39.0854 23.2839 39.0854 24.417C39.0854 25.55 39.0927 25.5881 39.4554 26.3212C39.9231 27.2669 40.7518 28.0825 41.6989 28.5292C42.34 28.8316 42.4374 28.8485 43.5469 28.8496C44.191 28.8502 44.7181 28.8633 44.7184 28.8788C44.7186 28.8944 44.6015 29.1386 44.458 29.4215C43.9492 30.4249 42.5768 31.4968 41.496 31.7352C41.2456 31.7904 41.2015 31.7611 41.0971 31.4697C40.8263 30.7139 39.9168 28.9849 39.3306 28.1113C38.6412 27.0837 37.0895 25.4121 35.9944 24.5172C32.9688 22.0446 29.0025 20.458 24.7448 20.0173L23.5657 19.8952L24.2783 19.7278C24.6702 19.6359 25.3578 19.3781 25.8064 19.1552C27.3646 18.3807 28.4503 17.2793 29.2133 15.6991C29.7429 14.6022 29.9621 13.6539 29.9621 12.461C29.9621 11.2681 29.7429 10.3198 29.2133 9.22291C28.4323 7.60527 27.3434 6.51717 25.7245 5.73675C25.231 5.49892 24.5042 5.2332 24.1096 5.14632C23.1622 4.93799 21.6371 4.95403 20.7072 5.18229ZM21.6864 8.0863C19.896 8.38739 18.397 9.93628 18.1004 11.7914C17.6334 14.7131 20.2303 17.308 23.1542 16.8414C26.0222 16.3835 27.726 13.3009 26.563 10.6738C25.747 8.83036 23.7048 7.74675 21.6864 8.0863ZM6.81541 22.3311C5.7957 22.4696 3.83645 23.239 3.83964 23.4996C3.84004 23.5383 4.84708 24.5706 6.07747 25.7934C8.41452 28.1163 8.60805 28.3771 8.48411 29.037C8.45081 29.2145 8.19636 29.716 7.91867 30.1514C7.20566 31.2694 6.79427 32.1101 6.49295 33.0648C6.01735 34.5715 5.8303 34.7564 4.64717 34.889C3.85619 34.9776 3.56285 35.1244 3.19682 35.6143C3.00489 35.8711 2.99123 36.0245 2.99123 37.9173C2.99123 39.81 3.00489 39.9634 3.19682 40.2203C3.65009 40.827 3.84143 40.8959 5.23096 40.953C6.65109 41.0114 6.88102 41.1003 7.27865 41.744C8.52579 43.7631 9.54989 45.017 10.7445 45.9876C11.9566 46.9723 11.8608 46.6337 11.8943 50.0476L11.9234 53.0117H13.4149H14.9063V51.5818C14.9063 50.2626 14.9236 50.1263 15.1306 49.8233C15.3909 49.4424 15.9313 49.126 16.3215 49.126C16.471 49.126 17.0325 49.2367 17.5695 49.3719C19.2675 49.7996 20.505 49.9465 22.4342 49.9493C24.3704 49.9521 25.5627 49.8112 27.2854 49.376C27.8297 49.2385 28.3899 49.126 28.5302 49.126C28.9382 49.126 29.4561 49.4244 29.7189 49.811C29.9487 50.1487 29.9621 50.2475 29.9621 51.5901V53.0117H31.4535H32.945L32.9741 50.0476C33.0076 46.6325 32.9116 46.9704 34.1276 45.9876C34.5344 45.6588 35.1974 45.0167 35.6009 44.5608C39.2194 40.4727 39.903 35.1418 37.3728 30.7437C35.3814 27.2822 31.7488 24.6793 27.3569 23.5668C25.7019 23.1476 24.3902 22.9957 22.4342 22.9966C19.8084 22.9978 17.6052 23.4039 15.2664 24.3176C13.8088 24.887 13.6757 24.87 12.5631 23.9718C10.956 22.6743 8.80587 22.0604 6.81541 22.3311ZM43.084 23.0259C42.0303 23.341 41.7315 24.7594 42.5648 25.4905C43.1573 26.0103 43.9674 25.9916 44.5385 25.4449C45.3265 24.6904 44.9749 23.3241 43.9143 23.0201C43.5237 22.9082 43.4767 22.9085 43.084 23.0259ZM19.9415 26.0699C18.8026 26.2465 17.5715 26.5564 17.1109 26.7823C16.5813 27.0421 16.3022 27.5215 16.3022 28.1719C16.3022 28.6558 16.3396 28.7489 16.6798 29.1135C17.191 29.6611 17.6152 29.7058 19.0569 29.3643C21.5478 28.7741 23.9731 28.8083 26.2625 29.466C26.5842 29.5583 27.0025 29.6011 27.3029 29.5722C27.7331 29.5309 27.8601 29.4654 28.1858 29.1165C28.529 28.7487 28.5662 28.6565 28.5662 28.1719C28.5662 27.52 28.2869 27.042 27.7533 26.7803C27.2395 26.5283 25.6809 26.1499 24.6278 26.0215C23.4212 25.8743 21.0445 25.8989 19.9415 26.0699ZM9.64581 32.0882C8.68273 32.675 8.68273 34.093 9.64581 34.6797C10.6279 35.2781 11.9144 34.5433 11.9144 33.384C11.9144 32.5339 11.2701 31.8902 10.4194 31.8902C10.1472 31.8902 9.84293 31.9681 9.64581 32.0882Z" fill="#0057C7"/>
</svg>
