<svg width="50" height="59" viewBox="0 0 50 59" fill="none" xmlns="http://www.w3.org/2000/svg">
<path fill-rule="evenodd" clip-rule="evenodd" d="M9.57324 5.12098C9.25058 5.26456 8.95792 5.57405 8.83343 5.90331C8.7722 6.065 8.73983 7.50287 8.73983 10.0553V13.96L7.84062 13.9615C6.10037 13.9644 4.98694 14.3799 3.95869 15.4099C3.26108 16.1086 2.83393 16.8868 2.63699 17.8177C2.45434 18.6805 2.45434 45.2674 2.63699 46.1302C3.02781 47.9773 4.51795 49.4704 6.3611 49.8617C7.23522 50.0473 42.7119 50.0455 43.5866 49.8598C45.0243 49.5547 46.2567 48.5881 46.8957 47.2645C47.0906 46.8608 47.2756 46.3387 47.3065 46.1043C47.3376 45.87 47.3972 45.6571 47.4392 45.6311C47.4818 45.6047 47.5077 39.5466 47.498 31.8589C47.4885 24.3102 47.4588 18.5689 47.4322 19.1005C47.3885 19.9722 47.3772 20.0233 47.317 19.621C47.2009 18.8462 46.6185 17.7824 45.9528 17.1295C44.9428 16.1389 43.8065 15.7219 42.1087 15.7189L41.22 15.7174L41.1825 15.1973C41.1552 14.8193 41.0811 14.5852 40.9115 14.3405C40.7831 14.1554 38.7128 12.0386 36.3109 9.63652C33.321 6.64655 31.8408 5.22625 31.6175 5.13302C31.3289 5.01254 30.0579 4.99734 20.5639 5.00033C11.82 5.00314 9.78773 5.02546 9.57324 5.12098ZM11.3716 10.7965V13.96L15.5168 13.9615C20.0975 13.9632 20.4198 13.9925 21.4603 14.5014C21.835 14.6846 22.2441 14.9936 22.6531 15.4026C23.2487 15.9979 23.3299 16.1331 24.5191 18.5074L25.7623 20.9898H32.1647H38.5671V18.7051V16.4204H35.6028C32.2774 16.4204 31.9353 16.3764 31.1328 15.8451C30.8643 15.6674 30.5461 15.3487 30.3687 15.0798C29.8383 14.276 29.7944 13.9333 29.7944 10.6023V7.6331H20.583H11.3716V10.7965ZM32.4262 11.5372C32.4262 13.2117 32.4469 13.5288 32.564 13.6462C32.6812 13.7635 32.999 13.7842 34.6831 13.7842H36.6643L36.5012 13.5865C36.1866 13.2049 32.5586 9.56631 32.4928 9.56631C32.4561 9.56631 32.4262 10.4532 32.4262 11.5372ZM6.41505 16.8056C5.8879 17.0552 5.5655 17.3832 5.32557 17.9143C5.14827 18.3066 5.14687 18.4161 5.14581 31.974L5.14476 45.6382L5.35206 46.0776C5.60129 46.6056 5.92878 46.9286 6.45892 47.1689C6.85194 47.3471 6.93291 47.3479 24.9694 47.349L43.0851 47.35L43.5237 47.1424C44.0509 46.8927 44.3733 46.5647 44.6132 46.0337C44.7897 45.6432 44.7919 45.5117 44.7919 35.4889C44.7919 25.4661 44.7897 25.3346 44.6132 24.9441C44.3733 24.4131 44.0509 24.0851 43.5237 23.8354L43.0851 23.6278L33.9452 23.6269C27.6863 23.6263 24.7275 23.5965 24.5584 23.5323C24.4226 23.4808 24.2184 23.3522 24.1047 23.2467C23.991 23.1412 23.2916 21.8418 22.5505 20.3592C21.8093 18.8765 21.0736 17.5158 20.9155 17.3355C20.7575 17.1552 20.4305 16.9155 20.1889 16.8028L19.7496 16.5979H13.3017H6.85369L6.41505 16.8056ZM2.554 31.974C2.554 39.5377 2.56435 42.6318 2.57698 38.85C2.58961 35.0682 2.58961 28.8797 2.57698 25.0979C2.56435 21.316 2.554 24.4103 2.554 31.974ZM41.199 19.6603V20.9669L42.3613 21.0089C43.3106 21.0432 43.6403 21.0919 44.1598 21.2751L44.7958 21.4995L44.7949 20.7833C44.7936 19.6545 44.3774 18.9434 43.4799 18.5365C43.1625 18.3926 42.9003 18.3571 42.142 18.3556L41.199 18.3536V19.6603ZM21.8551 27.2633C21.5316 27.4094 21.2394 27.7191 21.1153 28.0474C21.0613 28.1899 21.0217 28.979 21.0217 29.9096V31.5243L19.2733 31.5515C17.3583 31.5811 17.2971 31.5972 16.86 32.1835C16.6855 32.4178 16.6792 32.5327 16.6792 35.4889C16.6792 38.4451 16.6855 38.56 16.86 38.7942C17.2969 39.3804 17.3589 39.3967 19.2682 39.4263L21.0115 39.4534L21.0385 41.1996C21.0681 43.1121 21.0843 43.1741 21.6695 43.6117C21.9034 43.7866 22.0181 43.7929 24.9694 43.7929C27.9207 43.7929 28.0354 43.7866 28.2693 43.6117C28.8545 43.1741 28.8707 43.1121 28.9003 41.1996L28.9273 39.4534L30.6706 39.4263C32.5799 39.3967 32.6419 39.3804 33.0787 38.7942C33.2533 38.56 33.2596 38.4451 33.2596 35.4889C33.2596 32.5327 33.2533 32.4178 33.0787 32.1835C32.6419 31.5973 32.5799 31.5811 30.6706 31.5515L28.9273 31.5244L28.9003 29.7782C28.8707 27.8658 28.8545 27.8039 28.2694 27.3661C28.0374 27.1925 27.9033 27.184 25.0727 27.1646C22.7425 27.1486 22.0626 27.1694 21.8551 27.2633ZM23.6366 31.5285C23.6118 33.1364 23.5948 33.2995 23.4287 33.5221C22.9913 34.1083 22.9303 34.1243 21.0155 34.1539L19.2671 34.1811V35.4889V36.7967L21.0155 36.8239C22.6208 36.8487 22.7837 36.8658 23.0059 37.0321C23.5911 37.4703 23.6071 37.5313 23.6366 39.4493L23.6637 41.2006H24.9694H26.275L26.3021 39.4493C26.3317 37.5313 26.3477 37.4703 26.9329 37.0321C27.1551 36.8658 27.3179 36.8487 28.9233 36.8239L30.6717 36.7967V35.4889V34.1811L28.9233 34.1539C27.0084 34.1243 26.9475 34.1083 26.5101 33.5221C26.344 33.2995 26.327 33.1364 26.3021 31.5285L26.275 29.7771H24.9694H23.6637L23.6366 31.5285Z" fill="#0057C7"/>
</svg>
