<svg width="50" height="59" viewBox="0 0 50 59" fill="none" xmlns="http://www.w3.org/2000/svg">
<path fill-rule="evenodd" clip-rule="evenodd" d="M11.1149 5.02836C10.9442 5.06511 10.6979 5.19508 10.5677 5.31726C10.1448 5.71367 10.0677 5.97842 10.0677 7.03336V8.01979L7.1885 8.04836L4.30932 8.07684L3.58086 8.42598C2.15419 9.1097 1.26965 10.3645 1.0749 11.9806C1.01169 12.5049 0.988099 19.006 1.00561 31.0553L1.0322 49.3347L1.24634 49.9295C1.75813 51.3509 2.67291 52.2715 4.08029 52.7813L4.68384 53H21.9589H39.234L39.8934 52.7918C40.2559 52.6773 40.8076 52.4182 41.1192 52.216C41.9219 51.6953 47.5687 46.0412 48.0729 45.2533C48.5033 44.5809 48.8202 43.6669 48.8527 43.0046C48.8645 42.7645 48.8248 42.0486 48.8527 43.7027C48.8806 45.3568 48.9853 40.4075 48.9971 30.4154C49.0091 20.2373 48.983 12.27 48.9377 12.2981C48.8933 12.3256 48.8339 12.0938 48.8058 11.7827C48.684 10.4345 47.6798 9.07314 46.3294 8.42598L45.601 8.07684L42.7218 8.04836L39.8426 8.01979V7.00498C39.8426 5.90323 39.7318 5.59949 39.1807 5.18992C38.6802 4.81794 37.8129 5.02235 37.3712 5.6164C37.2033 5.84205 37.1694 6.04054 37.1426 6.95564L37.1112 8.02985H33.9927H30.8742L30.8406 6.97256C30.8112 6.0475 30.7797 5.87692 30.589 5.60841C29.9984 4.77696 28.7051 4.83946 28.289 5.7195C28.1803 5.94947 28.1386 6.31365 28.1386 7.03374V8.02985H24.9551H21.7717V7.03374C21.7717 6.31365 21.73 5.94947 21.6213 5.7195C21.2052 4.83946 19.9119 4.77696 19.3213 5.60841C19.1306 5.87692 19.0991 6.0475 19.0697 6.97256L19.0361 8.02985H15.9096H12.783L12.7828 7.06654C12.7827 6.33517 12.7433 6.0256 12.619 5.78096C12.3302 5.21247 11.7073 4.90083 11.1149 5.02836ZM4.53609 10.969C4.36231 11.0865 4.1243 11.3254 4.00726 11.4998C3.79846 11.8108 3.79434 11.8675 3.79434 14.4345V17.0521H24.9551H46.116V14.4345C46.116 11.8675 46.1118 11.8108 45.903 11.4998C45.786 11.3254 45.548 11.0865 45.3742 10.969C45.0644 10.7594 45.0079 10.7553 42.4505 10.7553H39.8426V11.7201C39.8426 12.9015 39.703 13.2312 39.0623 13.5624C38.5419 13.8313 38.1225 13.7854 37.6791 13.4109C37.2431 13.0427 37.1273 12.6734 37.1273 11.6511V10.7553H33.9906H30.854L30.8534 11.5777C30.8527 12.6293 30.7408 13.0201 30.3387 13.3744C29.8957 13.7648 29.4841 13.8285 28.9466 13.5898C28.2756 13.2919 28.1394 12.9843 28.139 11.7656L28.1386 10.7553H24.9551H21.7717L21.7713 11.7656C21.7709 12.9843 21.6347 13.2919 20.9637 13.5898C20.4262 13.8285 20.0146 13.7648 19.5716 13.3744C19.1694 13.0201 19.0576 12.6293 19.0569 11.5777L19.0563 10.7553H15.9197H12.783V11.6511C12.783 12.6734 12.6672 13.0427 12.2312 13.4109C11.7878 13.7854 11.3684 13.8313 10.848 13.5624C10.2073 13.2312 10.0677 12.9015 10.0677 11.7201V10.7553H7.45984C4.90238 10.7553 4.84592 10.7594 4.53609 10.969ZM1.03126 30.4914C1.03126 40.4934 1.04222 44.5852 1.05561 39.5841C1.069 34.5832 1.069 26.3998 1.05561 21.3987C1.04222 16.3978 1.03126 20.4894 1.03126 30.4914ZM3.79434 34.4717V49.1659L4.00726 49.483C4.1243 49.6575 4.36231 49.8964 4.53609 50.0138L4.85201 50.2275H20.9896H37.1273V47.7416C37.1273 46.2899 37.1704 45.0486 37.2308 44.7577C37.5867 43.0447 38.9599 41.6664 40.6665 41.3092C40.9563 41.2486 42.193 41.2053 43.6393 41.2053H46.116V30.4914V19.7775H24.9551H3.79434V34.4717ZM24.6274 23.133C24.3168 23.2157 23.9321 23.5337 23.7605 23.8497C23.6337 24.0829 23.5984 24.3823 23.598 25.2285C23.5974 26.44 23.7152 26.7734 24.264 27.1146C24.8774 27.4959 25.7373 27.268 26.1255 26.6212C26.3837 26.1912 26.4002 24.3105 26.1498 23.8497C25.8606 23.3173 25.1649 22.9897 24.6274 23.133ZM16.9221 26.3682C16.652 26.5024 16.4599 26.6862 16.3369 26.9282C15.9657 27.6585 16.135 28.1092 17.1505 29.0949C18.1055 30.022 18.5568 30.1588 19.3158 29.751C19.8282 29.4759 20.0428 28.6155 19.7523 28.001C19.5569 27.5876 18.4066 26.4823 17.9899 26.3076C17.5494 26.1228 17.3988 26.1313 16.9221 26.3682ZM31.8994 26.3117C31.4944 26.4883 30.3468 27.6014 30.158 28.001C29.6533 29.0684 30.5626 30.2169 31.6694 29.9102C32.0894 29.7937 33.4323 28.5352 33.6281 28.0744C33.9129 27.4039 33.6414 26.687 32.9811 26.3661C32.5061 26.1354 32.3249 26.1263 31.8994 26.3117ZM23.67 30.0722C22.9017 30.2799 22.1192 30.7214 21.5008 31.296C19.7599 32.9138 19.3645 35.3441 20.4926 37.4931C21.1768 38.7966 22.7089 39.8633 24.2295 40.0947C25.2644 40.2523 26.1721 40.0998 27.1914 39.5973C29.9035 38.2599 30.8665 34.9522 29.2993 32.3563C28.6611 31.2992 27.428 30.3885 26.2002 30.0675C25.5371 29.8941 24.3203 29.8963 23.67 30.0722ZM23.8473 32.8976C23.0356 33.3036 22.5791 34.0629 22.5817 35.0025C22.5836 35.7036 22.7419 36.1363 23.1789 36.6361C23.6685 37.1957 24.1344 37.3947 24.9551 37.3947C25.7759 37.3947 26.2418 37.1957 26.7313 36.6361C27.1673 36.1376 27.3264 35.7038 27.3304 35.0025C27.3361 34.005 26.7917 33.1851 25.866 32.7969C25.3131 32.5649 24.4237 32.6094 23.8473 32.8976ZM13.7478 33.8706C12.8176 34.4399 12.8799 35.7482 13.8598 36.2243C14.4471 36.5097 15.9685 36.495 16.5271 36.1985C17.4618 35.7023 17.5167 34.4937 16.6315 33.9001C16.3444 33.7077 16.2027 33.6868 15.1802 33.6872C14.2222 33.6875 14.0008 33.7158 13.7478 33.8706ZM33.2788 33.9001C32.3936 34.4937 32.4485 35.7023 33.3832 36.1985C33.9481 36.4983 35.4631 36.5097 36.0621 36.2187C36.7765 35.8716 37.0407 34.9407 36.6115 34.2832C36.291 33.7922 35.9605 33.6876 34.7301 33.6872C33.7076 33.6868 33.5659 33.7077 33.2788 33.9001ZM17.8341 40.3451C17.3344 40.6662 16.5207 41.5174 16.2956 41.9544C16.1074 42.3198 16.1454 42.8678 16.3845 43.234C16.7374 43.7746 17.5482 43.996 18.1013 43.7027C18.3995 43.5445 19.6448 42.2829 19.7949 41.9869C20.0894 41.4063 19.775 40.5583 19.1481 40.2422C18.6848 40.0085 18.3123 40.0377 17.8341 40.3451ZM30.7622 40.2422C30.1353 40.5583 29.8209 41.4063 30.1154 41.9869C30.2655 42.2829 31.5108 43.5445 31.809 43.7027C32.3621 43.996 33.1729 43.7746 33.5258 43.234C33.7649 42.8678 33.8029 42.3198 33.6147 41.9544C33.3896 41.5174 32.5758 40.6662 32.0762 40.3451C31.598 40.0377 31.2255 40.0085 30.7622 40.2422ZM24.4 42.8686C23.7884 43.1912 23.5552 43.7439 23.5552 44.8706C23.5552 45.7553 23.6778 46.1699 24.0503 46.5438C24.6624 47.1581 25.5385 47.0335 26.1169 46.25C26.2894 46.0163 26.3128 45.8535 26.3128 44.8872C26.3128 43.9588 26.284 43.7407 26.1255 43.4707C25.7324 42.8007 25.0079 42.5478 24.4 42.8686ZM40.8258 44.1076C39.9298 44.5205 39.8426 44.8252 39.8426 47.5461C39.8426 48.7625 39.8745 49.7576 39.9134 49.7576C40.0052 49.7576 45.6478 44.0928 45.6478 44.0007C45.6478 43.9623 44.6471 43.9317 43.424 43.9329C41.4672 43.9346 41.1553 43.9556 40.8258 44.1076Z" fill="#0057C7"/>
</svg>
