<svg width="49" height="49" viewBox="0 0 49 49" fill="none" xmlns="http://www.w3.org/2000/svg">
<path fill-rule="evenodd" clip-rule="evenodd" d="M36.4291 0.0503906C36.2673 0.100642 36.066 0.195198 35.9819 0.260505C35.7233 0.461222 25.1216 12.6609 24.9078 13.0037C24.4893 13.6749 24.7618 14.5726 25.4931 14.9317C25.7775 15.0714 26.1091 15.0994 27.4786 15.0995L29.1228 15.0997L29.0973 19.4871L29.0718 23.8745H26.9626H24.8535L24.8045 21.4119C24.7587 19.1136 24.7419 18.9312 24.5523 18.6788C24.0899 18.0632 24.1828 18.0729 18.742 18.0728C13.4048 18.0726 13.5484 18.0594 13.0327 18.5985L12.7875 18.8548L12.7384 21.3647L12.6894 23.8745L6.78611 23.9224C1.00931 23.9693 0.876877 23.9746 0.60593 24.169C0.453583 24.2782 0.251501 24.5156 0.156836 24.6964C-0.00492736 25.0054 -0.0138543 25.7223 0.00968928 36.5501L0.0347043 48.075L0.241201 48.3457C0.3547 48.4946 0.595826 48.7013 0.777013 48.8049C1.10172 48.9908 1.4071 48.9936 22.1694 48.9967L43.2322 49L43.5033 48.8023C43.6524 48.6935 43.8653 48.4854 43.9766 48.3397C44.1788 48.075 44.1789 48.0707 44.2045 31.5873L44.2301 15.0997H46.0699C48.2341 15.0997 48.4451 15.0388 48.8231 14.3047C49.1047 13.7579 49.0502 13.2505 48.6588 12.7733C47.6223 11.5097 37.7111 0.21994 37.5764 0.149454C37.2933 0.00138624 36.7408 -0.0463714 36.4291 0.0503906ZM33.09 7.87901C31.0419 10.2294 29.3528 12.1855 29.3365 12.2261C29.3203 12.2667 29.7252 12.3148 30.2363 12.3332C31.067 12.363 31.1932 12.392 31.4274 12.6063C31.5715 12.7382 31.7405 12.9324 31.803 13.0379C31.8836 13.1741 31.9308 14.7728 31.9657 18.5521L32.0147 23.8745L34.2266 23.9224C36.6322 23.9746 36.7611 24.0031 37.139 24.5669C37.3012 24.8089 37.3137 25.4877 37.3382 35.498L37.3644 46.171H39.3236H41.2828L41.3084 29.7003L41.334 13.2297L41.5625 12.9166C41.925 12.4197 42.2272 12.3186 43.3506 12.3186C44.1886 12.3186 44.3382 12.2961 44.2915 12.1772C44.2355 12.0346 37.0331 3.73799 36.8905 3.65188C36.8484 3.62637 35.1381 5.52862 33.09 7.87901ZM15.5833 22.388V23.9224H18.7715H21.9596V22.388V20.8537H18.7715H15.5833V22.388ZM2.9286 30.0137V33.324L5.30748 33.2983L7.68636 33.2726L7.73541 31.973C7.79211 30.4698 7.88334 30.2508 8.57729 29.9507C9.10702 29.7216 9.57975 29.7838 10.012 30.1394C10.4828 30.5266 10.5803 30.8742 10.5803 32.1667V33.3205H18.6734H26.7664L26.7668 32.0499C26.7672 30.5442 26.8787 30.2662 27.6077 29.9509C28.3101 29.6472 29.0261 29.8833 29.4059 30.5439C29.5842 30.8541 29.6113 31.0608 29.6113 32.1109V33.3205H32.0147H34.4181V30.012V26.7035H18.6734H2.9286V30.0137ZM2.9286 41.1346V46.171H18.6734H34.4181V41.1363V36.1016H32.0147H29.6113L29.6111 36.9887C29.611 37.9709 29.4641 38.3928 29.0094 38.7186C28.6383 38.9844 27.9725 39.0291 27.5582 38.816C26.9549 38.5056 26.8214 38.2208 26.7664 37.1261L26.7174 36.1495L23.4066 36.1243L20.0958 36.099V36.9729C20.0958 37.5804 20.0472 37.9467 19.9366 38.1748C19.4803 39.1147 18.143 39.2235 17.5031 38.3728C17.3394 38.1551 17.2905 37.9131 17.2509 37.1261L17.2019 36.1495L13.8911 36.1243L10.5803 36.099V36.9729C10.5803 37.9607 10.4333 38.3834 9.98048 38.6986C9.38689 39.1119 8.59485 39.0255 8.07041 38.4906C7.79947 38.2142 7.78191 38.1453 7.73541 37.1743L7.68636 36.1495L5.30748 36.1238L2.9286 36.0981V41.1346Z" fill="#0057C7"/>
</svg>
