<svg width="50" height="50" viewBox="0 0 50 50" fill="none" xmlns="http://www.w3.org/2000/svg">
<path fill-rule="evenodd" clip-rule="evenodd" d="M44.2383 0.389382C41.9019 0.61885 38.3204 0.967407 36.2794 1.164C25.8955 2.16387 26.2814 2.11416 24.8049 2.64238C23.8457 2.98565 22.8691 3.50046 22.0225 4.10931C20.8725 4.93637 9.94707 13.7734 9.81162 13.9861C9.71641 14.1356 7.26126 22.2209 6.62493 24.4803L6.53656 24.7941L3.73238 24.8228C1.01122 24.8506 0.919131 24.8579 0.622845 25.0697C-0.0402349 25.5437 0.000487301 24.7328 0.000487301 37.4505V48.9436L0.220505 49.2708C0.341597 49.4507 0.594231 49.6884 0.782023 49.799L1.12352 50H23.3889C45.4812 50 45.6569 49.9984 45.9785 49.8043C46.1568 49.6967 46.3985 49.4545 46.5156 49.2661L46.7285 48.9236V37.4257C46.7285 26.1038 46.7255 25.9228 46.5332 25.5956C46.4258 25.4129 46.2139 25.1707 46.0622 25.0575C45.7902 24.8541 45.7036 24.8509 39.2925 24.8025L32.7984 24.7536L33.4159 24.3986C34.0221 24.0499 34.0626 24.0414 35.6447 23.9281C37.5457 23.792 38.7702 23.562 40.143 23.0832C42.3246 22.3223 43.953 21.2861 45.6579 19.5736C47.0573 18.1681 47.6649 17.2971 49.0094 14.7689C49.8411 13.2048 50 12.8356 50 12.4675C50 11.6079 49.2413 10.933 48.3838 11.0299C47.6636 11.1112 47.4554 11.3505 46.4248 13.2821C45.1578 15.6571 44.6785 16.3585 43.5647 17.4676C42.4897 18.538 41.2991 19.3684 40.0426 19.924C38.6851 20.5243 37.5546 20.7685 35.3159 20.9451C33.3729 21.0984 33.3406 21.1046 32.5685 21.4771C31.2494 22.1133 28.0607 24.3471 25.0748 26.7266L23.9286 27.64L23.7921 27.313C23.0991 25.6508 23.4971 23.5825 24.7543 22.3128C25.0239 22.0406 27.1855 20.3507 29.5579 18.5572C34.0292 15.1771 34.1798 15.0403 34.1798 14.3604C34.1798 14 33.2512 11.0764 32.9838 10.595C32.8637 10.3788 32.6146 10.1442 32.3637 10.0108L31.9443 9.78789L28.4637 10.0988C25.6535 10.3498 24.9305 10.4434 24.7104 10.585C24.0434 11.0141 15.4311 18.0271 15.302 18.2463C15.2228 18.3809 14.7841 19.7519 14.3273 21.293C13.8705 22.8341 13.4214 24.2543 13.3293 24.4488L13.1617 24.8025H11.4079C9.97324 24.8025 9.65977 24.7782 9.68565 24.6686C9.70303 24.5949 10.3104 22.5405 11.0355 20.1034L12.3539 15.6722L17.8226 11.2666C20.8304 8.8435 23.489 6.71898 23.7307 6.54539C24.7262 5.83047 26.2182 5.22925 27.4589 5.04303C27.8523 4.98403 32.8322 4.49192 38.5255 3.94961C45.9728 3.24027 48.9677 2.92097 49.2003 2.81157C49.6614 2.59472 50 2.05408 50 1.53457C50 0.706919 49.5279 0.177332 48.6328 0.000998735C48.5523 -0.0148536 46.5747 0.159914 44.2383 0.389382ZM28.3161 13.114L26.0168 13.3207L21.9685 16.5797C19.742 18.3721 17.9071 19.8496 17.8908 19.863C17.8747 19.8763 17.5567 20.9124 17.1842 22.1657C16.8117 23.4189 16.4814 24.5248 16.4501 24.6234C16.3964 24.7931 16.5005 24.8025 18.4339 24.8025H20.4743L20.5946 24.1484C20.8718 22.6409 21.7686 20.9763 22.8314 19.9968C23.1461 19.7068 25.1003 18.1925 27.1742 16.6317C31.2051 13.5981 31.008 13.791 30.7254 13.155L30.6154 12.9074L28.3161 13.114ZM2.93015 37.4252V47.0154H23.3401H43.7501V37.4257V27.836H36.1203H28.4904L27.2092 28.8423C26.5045 29.3956 25.631 30.0892 25.2679 30.3835L24.608 30.9184L24.6332 31.4401L24.6584 31.9617L25.1921 32.1496C26.2723 32.5299 27.1474 33.3047 27.1483 33.8816C27.149 34.2787 26.8755 34.7745 26.5442 34.9768C26.0623 35.2713 25.6301 35.2301 24.9798 34.8279C23.9505 34.1913 22.7865 34.1489 22.4039 34.734C22.1186 35.1702 22.2776 35.3124 23.6606 35.8582C25.9034 36.7434 26.5887 37.2164 27.1308 38.253C27.4992 38.9575 27.5032 40.0766 27.1402 40.8506C26.7318 41.721 25.9413 42.4024 24.8782 42.8002C24.6287 42.8936 24.6096 42.94 24.6096 43.4542C24.6096 44.3791 24.1139 44.9125 23.2837 44.8812C22.5638 44.854 22.1682 44.3313 22.1682 43.4073V42.8229L21.802 42.7066C20.9939 42.45 19.8518 41.6476 19.5211 41.1044C19.1365 40.4723 19.4122 39.6024 20.0866 39.3201C20.5907 39.109 21.0013 39.2193 21.5918 39.7243C22.184 40.2308 22.7801 40.4592 23.5104 40.4592C24.6158 40.4592 25.283 39.6772 24.6699 39.1C24.5418 38.9796 23.7091 38.5801 22.8193 38.2125C20.9706 37.4485 20.739 37.3058 20.3206 36.6729C19.9207 36.0679 19.793 35.5574 19.848 34.7837C19.9287 33.6491 20.6814 32.6072 21.7337 32.1736L22.1676 31.9948L22.1678 31.2226C22.1682 30.4838 22.1506 30.4223 21.7594 29.8037C21.5345 29.4481 21.2294 28.8708 21.0815 28.521L20.8126 27.8849L11.8714 27.86L2.93015 27.835V37.4252ZM7.03362 31.2367C6.84671 31.3307 6.5929 31.5589 6.46976 31.7437L6.24564 32.0798L6.2725 37.4873L6.29925 42.8948L6.63675 43.2437C6.8223 43.4354 7.12991 43.6359 7.32034 43.6888C7.51067 43.7418 8.65685 43.7854 9.86738 43.7857C11.9562 43.7863 12.0906 43.775 12.5041 43.5661C13.3625 43.1324 13.6086 42.0379 13.0085 41.3232C12.593 40.8285 12.2798 40.7528 10.648 40.7528H9.18009V37.3768V34.0008H10.7555C12.588 34.0008 12.8211 33.9202 13.1887 33.1591C13.5371 32.4381 13.3315 31.7849 12.599 31.2854C12.2853 31.0715 12.2063 31.0652 9.82481 31.0654C7.68586 31.0655 7.3301 31.0873 7.03362 31.2367ZM34.1227 31.2019C33.5188 31.4702 33.1537 32.2213 33.3035 32.8869C33.3506 33.0959 33.534 33.3994 33.7351 33.6011L34.0849 33.9519L35.7437 33.9828L37.4025 34.0138V37.3767V40.7396L35.8156 40.7707C34.3367 40.7996 34.207 40.8172 33.9098 41.0296C33.0274 41.6603 33.076 42.9824 34.0022 43.5416C34.3038 43.7237 34.4995 43.7373 36.8165 43.7373C39.1336 43.7373 39.3293 43.7237 39.6309 43.5416C39.8092 43.434 40.0509 43.1918 40.168 43.0034C40.3788 42.6644 40.3812 42.6099 40.408 37.5236L40.4351 32.3862L40.2127 31.9517C39.7863 31.1181 39.7829 31.1173 36.9317 31.091C34.9821 31.0731 34.357 31.0978 34.1227 31.2019Z" fill="#0057C7"/>
</svg>
