<svg width="48" height="48" viewBox="0 0 48 48" fill="none" xmlns="http://www.w3.org/2000/svg">
<path fill-rule="evenodd" clip-rule="evenodd" d="M10.1149 0.0283608C9.94416 0.0651076 9.69791 0.195084 9.56767 0.31726C9.14483 0.713674 9.06768 0.97842 9.06768 2.03336V3.01979L6.1885 3.04836L3.30932 3.07684L2.58086 3.42598C1.15419 4.1097 0.26965 5.36454 0.0748959 6.98064C0.0116944 7.50487 -0.0119008 14.006 0.00560832 26.0553L0.0321998 44.3347L0.246336 44.9295C0.758128 46.3509 1.67291 47.2715 3.08029 47.7813L3.68384 48H20.9589H38.234L38.8934 47.7918C39.2559 47.6773 39.8076 47.4182 40.1192 47.216C40.9219 46.6953 46.5687 41.0412 47.0729 40.2533C47.5033 39.5809 47.8202 38.6669 47.8527 38.0046C47.8645 37.7645 47.8248 37.0486 47.8527 38.7027C47.8806 40.3568 47.9853 35.4075 47.9971 25.4154C48.0091 15.2373 47.983 7.27001 47.9377 7.29811C47.8933 7.32565 47.8339 7.0938 47.8058 6.78272C47.684 5.43446 46.6798 4.07314 45.3294 3.42598L44.601 3.07684L41.7218 3.04836L38.8426 3.01979V2.00498C38.8426 0.903235 38.7318 0.599486 38.1807 0.189915C37.6802 -0.182064 36.8129 0.022346 36.3712 0.616403C36.2033 0.842053 36.1694 1.04054 36.1426 1.95564L36.1112 3.02985H32.9927H29.8742L29.8406 1.97256C29.8112 1.0475 29.7797 0.87692 29.589 0.608415C28.9984 -0.22304 27.7051 -0.160542 27.289 0.719501C27.1803 0.949474 27.1386 1.31365 27.1386 2.03374V3.02985H23.9551H20.7717V2.03374C20.7717 1.31365 20.73 0.949474 20.6213 0.719501C20.2052 -0.160542 18.9119 -0.22304 18.3213 0.608415C18.1306 0.87692 18.0991 1.0475 18.0697 1.97256L18.0361 3.02985H14.9096H11.783L11.7828 2.06654C11.7827 1.33517 11.7433 1.0256 11.619 0.780965C11.3302 0.212471 10.7073 -0.0991721 10.1149 0.0283608ZM3.53609 5.96903C3.36231 6.0865 3.1243 6.3254 3.00726 6.49983C2.79846 6.81082 2.79434 6.86749 2.79434 9.4345V12.0521H23.9551H45.116V9.4345C45.116 6.86749 45.1118 6.81082 44.903 6.49983C44.786 6.3254 44.548 6.0865 44.3742 5.96903C44.0644 5.75945 44.0079 5.75531 41.4505 5.75531H38.8426V6.72013C38.8426 7.90147 38.703 8.23116 38.0623 8.56235C37.5419 8.83133 37.1225 8.78537 36.6791 8.41095C36.2431 8.04273 36.1273 7.67338 36.1273 6.65114V5.75531H32.9906H29.854L29.8534 6.57765C29.8527 7.6293 29.7408 8.02008 29.3387 8.37439C28.8957 8.76479 28.4841 8.82851 27.9466 8.5898C27.2756 8.29187 27.1394 7.98427 27.139 6.76561L27.1386 5.75531H23.9551H20.7717L20.7713 6.76561C20.7709 7.98427 20.6347 8.29187 19.9637 8.5898C19.4262 8.82851 19.0146 8.76479 18.5716 8.37439C18.1694 8.02008 18.0576 7.6293 18.0569 6.57765L18.0563 5.75531H14.9197H11.783V6.65114C11.783 7.67338 11.6672 8.04273 11.2312 8.41095C10.7878 8.78537 10.3684 8.83133 9.848 8.56235C9.20728 8.23116 9.06768 7.90147 9.06768 6.72013V5.75531H6.45984C3.90238 5.75531 3.84592 5.75945 3.53609 5.96903ZM0.0312635 25.4914C0.0312635 35.4934 0.0422184 39.5852 0.0556077 34.5841C0.0689971 29.5832 0.0689971 21.3998 0.0556077 16.3987C0.0422184 11.3978 0.0312635 15.4894 0.0312635 25.4914ZM2.79434 29.4717V44.1659L3.00726 44.483C3.1243 44.6575 3.36231 44.8964 3.53609 45.0138L3.85201 45.2275H19.9896H36.1273V42.7416C36.1273 41.2899 36.1704 40.0486 36.2308 39.7577C36.5867 38.0447 37.9599 36.6664 39.6665 36.3092C39.9563 36.2486 41.193 36.2053 42.6393 36.2053H45.116V25.4914V14.7775H23.9551H2.79434V29.4717ZM23.6274 18.133C23.3168 18.2157 22.9321 18.5337 22.7605 18.8497C22.6337 19.0829 22.5984 19.3823 22.598 20.2285C22.5974 21.44 22.7152 21.7734 23.264 22.1146C23.8774 22.4959 24.7373 22.268 25.1255 21.6212C25.3837 21.1912 25.4002 19.3105 25.1498 18.8497C24.8606 18.3173 24.1649 17.9897 23.6274 18.133ZM15.9221 21.3682C15.652 21.5024 15.4599 21.6862 15.3369 21.9282C14.9657 22.6585 15.135 23.1092 16.1505 24.0949C17.1055 25.022 17.5568 25.1588 18.3158 24.751C18.8282 24.4759 19.0428 23.6155 18.7523 23.001C18.5569 22.5876 17.4066 21.4823 16.9899 21.3076C16.5494 21.1228 16.3988 21.1313 15.9221 21.3682ZM30.8994 21.3117C30.4944 21.4883 29.3468 22.6014 29.158 23.001C28.6533 24.0684 29.5626 25.2169 30.6694 24.9102C31.0894 24.7937 32.4323 23.5352 32.6281 23.0744C32.9129 22.4039 32.6414 21.687 31.9811 21.3661C31.5061 21.1354 31.3249 21.1263 30.8994 21.3117ZM22.67 25.0722C21.9017 25.2799 21.1192 25.7214 20.5008 26.296C18.7599 27.9138 18.3645 30.3441 19.4926 32.4931C20.1768 33.7966 21.7089 34.8633 23.2295 35.0947C24.2644 35.2523 25.1721 35.0998 26.1914 34.5973C28.9035 33.2599 29.8665 29.9522 28.2993 27.3563C27.6611 26.2992 26.428 25.3885 25.2002 25.0675C24.5371 24.8941 23.3203 24.8963 22.67 25.0722ZM22.8473 27.8976C22.0356 28.3036 21.5791 29.0629 21.5817 30.0025C21.5836 30.7036 21.7419 31.1363 22.1789 31.6361C22.6685 32.1957 23.1344 32.3947 23.9551 32.3947C24.7759 32.3947 25.2418 32.1957 25.7313 31.6361C26.1673 31.1376 26.3264 30.7038 26.3304 30.0025C26.3361 29.005 25.7917 28.1851 24.866 27.7969C24.3131 27.5649 23.4237 27.6094 22.8473 27.8976ZM12.7478 28.8706C11.8176 29.4399 11.8799 30.7482 12.8598 31.2243C13.4471 31.5097 14.9685 31.495 15.5271 31.1985C16.4618 30.7023 16.5167 29.4937 15.6315 28.9001C15.3444 28.7077 15.2027 28.6868 14.1802 28.6872C13.2222 28.6875 13.0008 28.7158 12.7478 28.8706ZM32.2788 28.9001C31.3936 29.4937 31.4485 30.7023 32.3832 31.1985C32.9481 31.4983 34.4631 31.5097 35.0621 31.2187C35.7765 30.8716 36.0407 29.9407 35.6115 29.2832C35.291 28.7922 34.9605 28.6876 33.7301 28.6872C32.7076 28.6868 32.5659 28.7077 32.2788 28.9001ZM16.8341 35.3451C16.3344 35.6662 15.5207 36.5174 15.2956 36.9544C15.1074 37.3198 15.1454 37.8678 15.3845 38.234C15.7374 38.7746 16.5482 38.996 17.1013 38.7027C17.3995 38.5445 18.6448 37.2829 18.7949 36.9869C19.0894 36.4063 18.775 35.5583 18.1481 35.2422C17.6848 35.0085 17.3123 35.0377 16.8341 35.3451ZM29.7622 35.2422C29.1353 35.5583 28.8209 36.4063 29.1154 36.9869C29.2655 37.2829 30.5108 38.5445 30.809 38.7027C31.3621 38.996 32.1729 38.7746 32.5258 38.234C32.7649 37.8678 32.8029 37.3198 32.6147 36.9544C32.3896 36.5174 31.5758 35.6662 31.0762 35.3451C30.598 35.0377 30.2255 35.0085 29.7622 35.2422ZM23.4 37.8686C22.7884 38.1912 22.5552 38.7439 22.5552 39.8706C22.5552 40.7553 22.6778 41.1699 23.0503 41.5438C23.6624 42.1581 24.5385 42.0335 25.1169 41.25C25.2894 41.0163 25.3128 40.8535 25.3128 39.8872C25.3128 38.9588 25.284 38.7407 25.1255 38.4707C24.7324 37.8007 24.0079 37.5478 23.4 37.8686ZM39.8258 39.1076C38.9298 39.5205 38.8426 39.8252 38.8426 42.5461C38.8426 43.7625 38.8745 44.7576 38.9134 44.7576C39.0052 44.7576 44.6478 39.0928 44.6478 39.0007C44.6478 38.9623 43.6471 38.9317 42.424 38.9329C40.4672 38.9346 40.1553 38.9556 39.8258 39.1076Z" fill="#0057C7"/>
</svg>
