<svg width="45" height="45" viewBox="0 0 45 45" fill="none" xmlns="http://www.w3.org/2000/svg">
<path fill-rule="evenodd" clip-rule="evenodd" d="M7.07324 0.12098C6.75058 0.264565 6.45792 0.574054 6.33343 0.903315C6.2722 1.065 6.23983 2.50287 6.23983 5.05532V8.95997L5.34062 8.96146C3.60037 8.96445 2.48694 9.37991 1.45869 10.4099C0.761079 11.1086 0.333934 11.8868 0.136986 12.8177C-0.0456621 13.6805 -0.0456621 40.2674 0.136986 41.1302C0.527812 42.9773 2.01795 44.4704 3.8611 44.8617C4.73522 45.0473 40.2119 45.0455 41.0866 44.8598C42.5243 44.5547 43.7567 43.5881 44.3957 42.2645C44.5906 41.8608 44.7756 41.3387 44.8065 41.1043C44.8376 40.87 44.8972 40.6571 44.9392 40.6311C44.9818 40.6047 45.0077 34.5466 44.998 26.8589C44.9885 19.3102 44.9588 13.5689 44.9322 14.1005C44.8885 14.9722 44.8772 15.0233 44.817 14.621C44.7009 13.8462 44.1185 12.7824 43.4528 12.1295C42.4428 11.1389 41.3065 10.7219 39.6087 10.7189L38.72 10.7174L38.6825 10.1973C38.6552 9.81928 38.5811 9.58519 38.4115 9.34055C38.2831 9.1554 36.2128 7.03862 33.8109 4.63652C30.821 1.64655 29.3408 0.226252 29.1175 0.133019C28.8289 0.0125445 27.5579 -0.00265753 18.0639 0.000330162C9.32002 0.0031421 7.28773 0.0254619 7.07324 0.12098ZM8.87165 5.79653V8.95997L13.0168 8.96146C17.5975 8.96322 17.9198 8.99248 18.9603 9.50135C19.335 9.68457 19.7441 9.99362 20.1531 10.4026C20.7487 10.9979 20.8299 11.1331 22.0191 13.5074L23.2623 15.9898H29.6647H36.0671V13.7051V11.4204H33.1028C29.7774 11.4204 29.4353 11.3764 28.6328 10.8451C28.3643 10.6674 28.0461 10.3487 27.8687 10.0798C27.3383 9.27596 27.2944 8.93325 27.2944 5.60233V2.6331H18.083H8.87165V5.79653ZM29.9262 6.53722C29.9262 8.21173 29.9469 8.52877 30.064 8.64617C30.1812 8.76348 30.499 8.78422 32.1831 8.78422H34.1643L34.0012 8.58651C33.6866 8.20487 30.0586 4.56631 29.9928 4.56631C29.9561 4.56631 29.9262 5.45321 29.9262 6.53722ZM3.91505 11.8056C3.3879 12.0552 3.0655 12.3832 2.82557 12.9143C2.64827 13.3066 2.64687 13.4161 2.64581 26.974L2.64476 40.6382L2.85206 41.0776C3.10129 41.6056 3.42878 41.9286 3.95892 42.1689C4.35194 42.3471 4.43291 42.3479 22.4694 42.349L40.5851 42.35L41.0237 42.1424C41.5509 41.8927 41.8733 41.5647 42.1132 41.0337C42.2897 40.6432 42.2919 40.5117 42.2919 30.4889C42.2919 20.4661 42.2897 20.3346 42.1132 19.9441C41.8733 19.4131 41.5509 19.0851 41.0237 18.8354L40.5851 18.6278L31.4452 18.6269C25.1863 18.6263 22.2275 18.5965 22.0584 18.5323C21.9226 18.4808 21.7184 18.3522 21.6047 18.2467C21.491 18.1412 20.7916 16.8418 20.0505 15.3592C19.3093 13.8765 18.5736 12.5158 18.4155 12.3355C18.2575 12.1552 17.9305 11.9155 17.6889 11.8028L17.2496 11.5979H10.8017H4.35369L3.91505 11.8056ZM0.0539962 26.974C0.0539962 34.5377 0.064348 37.6318 0.0769808 33.85C0.0896135 30.0682 0.0896135 23.8797 0.0769808 20.0979C0.064348 16.316 0.0539962 19.4103 0.0539962 26.974ZM38.699 14.6603V15.9669L39.8613 16.0089C40.8106 16.0432 41.1403 16.0919 41.6598 16.2751L42.2958 16.4995L42.2949 15.7833C42.2936 14.6545 41.8774 13.9434 40.9799 13.5365C40.6625 13.3926 40.4003 13.3571 39.642 13.3556L38.699 13.3536V14.6603ZM19.3551 22.2633C19.0316 22.4094 18.7394 22.7191 18.6153 23.0474C18.5613 23.1899 18.5217 23.979 18.5217 24.9096V26.5243L16.7733 26.5515C14.8583 26.5811 14.7971 26.5972 14.36 27.1835C14.1855 27.4178 14.1792 27.5327 14.1792 30.4889C14.1792 33.4451 14.1855 33.56 14.36 33.7942C14.7969 34.3804 14.8589 34.3967 16.7682 34.4263L18.5115 34.4534L18.5385 36.1996C18.5681 38.1121 18.5843 38.1741 19.1695 38.6117C19.4034 38.7866 19.5181 38.7929 22.4694 38.7929C25.4207 38.7929 25.5354 38.7866 25.7693 38.6117C26.3545 38.1741 26.3707 38.1121 26.4003 36.1996L26.4273 34.4534L28.1706 34.4263C30.0799 34.3967 30.1419 34.3804 30.5787 33.7942C30.7533 33.56 30.7596 33.4451 30.7596 30.4889C30.7596 27.5327 30.7533 27.4178 30.5787 27.1835C30.1419 26.5973 30.0799 26.5811 28.1706 26.5515L26.4273 26.5244L26.4003 24.7782C26.3707 22.8658 26.3545 22.8039 25.7694 22.3661C25.5374 22.1925 25.4033 22.184 22.5727 22.1646C20.2425 22.1486 19.5626 22.1694 19.3551 22.2633ZM21.1366 26.5285C21.1118 28.1364 21.0948 28.2995 20.9287 28.5221C20.4913 29.1083 20.4303 29.1243 18.5155 29.1539L16.7671 29.1811V30.4889V31.7967L18.5155 31.8239C20.1208 31.8487 20.2837 31.8658 20.5059 32.0321C21.0911 32.4703 21.1071 32.5313 21.1366 34.4493L21.1637 36.2006H22.4694H23.775L23.8021 34.4493C23.8317 32.5313 23.8477 32.4703 24.4329 32.0321C24.6551 31.8658 24.8179 31.8487 26.4233 31.8239L28.1717 31.7967V30.4889V29.1811L26.4233 29.1539C24.5084 29.1243 24.4475 29.1083 24.0101 28.5221C23.844 28.2995 23.827 28.1364 23.8021 26.5285L23.775 24.7771H22.4694H21.1637L21.1366 26.5285Z" fill="#0057C7"/>
</svg>
