<svg width="51" height="51" viewBox="0 0 51 51" fill="none" xmlns="http://www.w3.org/2000/svg">
<path fill-rule="evenodd" clip-rule="evenodd" d="M20.7072 0.182287C20.3057 0.280824 19.6103 0.543855 19.1617 0.766735C17.6035 1.54128 16.5177 2.64273 15.7548 4.22291C15.2252 5.31977 15.006 6.26808 15.006 7.46099C15.006 8.6539 15.2252 9.60221 15.7548 10.6991C16.5177 12.2793 17.6035 13.3807 19.1617 14.1552C19.6103 14.3781 20.3057 14.6383 20.7072 14.7332L21.4371 14.9059L20.5896 14.9788C18.7317 15.1386 16.1705 15.6947 14.7795 16.2402L14.3039 16.4267L13.7326 16.04C10.6369 13.9446 6.63354 13.6557 3.272 15.2848C1.95905 15.9211 0.509705 17.0352 0.182564 17.6595C-0.00967162 18.0266 -0.00877427 18.7178 0.184459 19.0821C0.267615 19.2388 1.38673 20.4141 2.67136 21.6937L5.00701 24.0201L4.48484 25.0314C4.19759 25.5876 3.88381 26.2555 3.78739 26.5158C3.65019 26.8866 3.56405 26.9891 3.38986 26.9891C3.26762 26.9891 2.85483 27.1454 2.47265 27.3365C1.58385 27.7809 0.755683 28.6329 0.32056 29.5509L0 30.2272V32.9225V35.6177L0.370015 36.3658C0.835649 37.3072 1.66841 38.1291 2.59628 38.563C3.12932 38.8123 3.42695 38.8811 4.14963 38.9223L5.04351 38.9732L5.64993 39.8579C6.39634 40.9468 7.50808 42.228 8.31581 42.93L8.92382 43.4585L8.92422 46.7065C8.92452 49.7718 8.93569 49.9728 9.12274 50.2793C9.23172 50.4579 9.46703 50.693 9.64581 50.8019C9.9535 50.9894 10.1537 51 13.4107 51C16.6676 51 16.8678 50.9894 17.1755 50.8019C17.7786 50.4345 17.8967 50.1025 17.8971 48.7726L17.8975 47.5906L18.2215 47.6461C19.9806 47.948 21.2456 48.0331 23.1321 47.9763C24.2289 47.9433 25.5077 47.8489 25.9738 47.7667C26.4399 47.6844 26.8549 47.6163 26.8961 47.6152C26.9373 47.6141 26.9711 48.14 26.9713 48.7839C26.9717 50.1014 27.091 50.4354 27.6929 50.8019C28.0006 50.9894 28.2008 51 31.4577 51C34.7147 51 34.9149 50.9894 35.2226 50.8019C35.4014 50.693 35.6367 50.4579 35.7456 50.2793C35.9327 49.9729 35.9439 49.7718 35.9442 46.7093L35.9446 43.4639L36.6013 42.8842C38.67 41.0581 40.38 38.4365 41.2248 35.796C41.7536 34.1428 41.9457 32.8338 41.9077 31.1389L41.8772 29.7727L42.276 29.6742C44.9188 29.0213 47.1471 26.801 47.8112 24.1585C47.92 23.7251 48.0092 23.1647 48.0092 22.9131C48.0093 22.4866 48.0436 22.4262 48.5195 22.0167C49.9617 20.7756 51.0011 18.5302 51 16.6574C50.9996 15.8741 50.7985 15.4491 50.2784 15.1322C49.3727 14.5804 48.0109 15.2635 48.0096 16.2704C48.0094 16.4303 47.9589 16.8497 47.8974 17.2024L47.7856 17.8438L47.4944 17.3102C47.0589 16.5124 46.281 15.7772 45.4221 15.3513C44.6953 14.9911 44.6552 14.9833 43.5276 14.9833C42.4374 14.9833 42.3395 15.0004 41.6989 15.3036C40.7514 15.7521 39.9225 16.5683 39.4554 17.5128C39.0927 18.2459 39.0854 18.2839 39.0854 19.417C39.0854 20.55 39.0927 20.5881 39.4554 21.3212C39.9231 22.2669 40.7518 23.0825 41.6989 23.5292C42.34 23.8316 42.4374 23.8485 43.5469 23.8496C44.191 23.8502 44.7181 23.8633 44.7184 23.8788C44.7186 23.8944 44.6015 24.1386 44.458 24.4215C43.9492 25.4249 42.5768 26.4968 41.496 26.7352C41.2456 26.7904 41.2015 26.7611 41.0971 26.4697C40.8263 25.7139 39.9168 23.9849 39.3306 23.1113C38.6412 22.0837 37.0895 20.4121 35.9944 19.5172C32.9688 17.0446 29.0025 15.458 24.7448 15.0173L23.5657 14.8952L24.2783 14.7278C24.6702 14.6359 25.3578 14.3781 25.8064 14.1552C27.3646 13.3807 28.4503 12.2793 29.2133 10.6991C29.7429 9.60221 29.9621 8.6539 29.9621 7.46099C29.9621 6.26808 29.7429 5.31977 29.2133 4.22291C28.4323 2.60527 27.3434 1.51717 25.7245 0.736745C25.231 0.498921 24.5042 0.233199 24.1096 0.146319C23.1622 -0.0620141 21.6371 -0.0459731 20.7072 0.182287ZM21.6864 3.0863C19.896 3.38739 18.397 4.93628 18.1004 6.79135C17.6334 9.7131 20.2303 12.308 23.1542 11.8414C26.0222 11.3835 27.726 8.3009 26.563 5.67377C25.747 3.83036 23.7048 2.74675 21.6864 3.0863ZM6.81541 17.3311C5.7957 17.4696 3.83645 18.239 3.83964 18.4996C3.84004 18.5383 4.84708 19.5706 6.07747 20.7934C8.41452 23.1163 8.60805 23.3771 8.48411 24.037C8.45081 24.2145 8.19636 24.716 7.91867 25.1514C7.20566 26.2694 6.79427 27.1101 6.49295 28.0648C6.01735 29.5715 5.8303 29.7564 4.64717 29.889C3.85619 29.9776 3.56285 30.1244 3.19682 30.6143C3.00489 30.8711 2.99123 31.0245 2.99123 32.9173C2.99123 34.81 3.00489 34.9634 3.19682 35.2203C3.65009 35.827 3.84143 35.8959 5.23096 35.953C6.65109 36.0114 6.88102 36.1003 7.27865 36.744C8.52579 38.7631 9.54989 40.017 10.7445 40.9876C11.9566 41.9723 11.8608 41.6337 11.8943 45.0476L11.9234 48.0117H13.4149H14.9063V46.5818C14.9063 45.2626 14.9236 45.1263 15.1306 44.8233C15.3909 44.4424 15.9313 44.126 16.3215 44.126C16.471 44.126 17.0325 44.2367 17.5695 44.3719C19.2675 44.7996 20.505 44.9465 22.4342 44.9493C24.3704 44.9521 25.5627 44.8112 27.2854 44.376C27.8297 44.2385 28.3899 44.126 28.5302 44.126C28.9382 44.126 29.4561 44.4244 29.7189 44.811C29.9487 45.1487 29.9621 45.2475 29.9621 46.5901V48.0117H31.4535H32.945L32.9741 45.0476C33.0076 41.6325 32.9116 41.9704 34.1276 40.9876C34.5344 40.6588 35.1974 40.0167 35.6009 39.5608C39.2194 35.4727 39.903 30.1418 37.3728 25.7437C35.3814 22.2822 31.7488 19.6793 27.3569 18.5668C25.7019 18.1476 24.3902 17.9957 22.4342 17.9966C19.8084 17.9978 17.6052 18.4039 15.2664 19.3176C13.8088 19.887 13.6757 19.87 12.5631 18.9718C10.956 17.6743 8.80587 17.0604 6.81541 17.3311ZM43.084 18.0259C42.0303 18.341 41.7315 19.7594 42.5648 20.4905C43.1573 21.0103 43.9674 20.9916 44.5385 20.4449C45.3265 19.6904 44.9749 18.3241 43.9143 18.0201C43.5237 17.9082 43.4767 17.9085 43.084 18.0259ZM19.9415 21.0699C18.8026 21.2465 17.5715 21.5564 17.1109 21.7823C16.5813 22.0421 16.3022 22.5215 16.3022 23.1719C16.3022 23.6558 16.3396 23.7489 16.6798 24.1135C17.191 24.6611 17.6152 24.7058 19.0569 24.3643C21.5478 23.7741 23.9731 23.8083 26.2625 24.466C26.5842 24.5583 27.0025 24.6011 27.3029 24.5722C27.7331 24.5309 27.8601 24.4654 28.1858 24.1165C28.529 23.7487 28.5662 23.6565 28.5662 23.1719C28.5662 22.52 28.2869 22.042 27.7533 21.7803C27.2395 21.5283 25.6809 21.1499 24.6278 21.0215C23.4212 20.8743 21.0445 20.8989 19.9415 21.0699ZM9.64581 27.0882C8.68273 27.675 8.68273 29.093 9.64581 29.6797C10.6279 30.2781 11.9144 29.5433 11.9144 28.384C11.9144 27.5339 11.2701 26.8902 10.4194 26.8902C10.1472 26.8902 9.84293 26.9681 9.64581 27.0882Z" fill="#0057C7"/>
</svg>
