<svg width="53" height="53" viewBox="0 0 53 53" fill="none" xmlns="http://www.w3.org/2000/svg">
<path fill-rule="evenodd" clip-rule="evenodd" d="M9.80002 0.0941936C9.01649 0.367027 8.71276 0.977684 8.71182 2.28236L8.7112 3.01989L6.71503 3.07418C4.93071 3.12277 4.63891 3.15641 3.9656 3.39093C1.8005 4.14517 0.393124 5.88048 0.109409 8.146C-0.0348342 9.29713 -0.0372193 39.4515 0.106816 40.4765C0.397583 42.5464 2.01962 44.1693 4.09667 44.4687C4.5491 44.5338 9.18562 44.574 16.4041 44.5753L27.9857 44.5774L28.4558 45.5709C29.1038 46.9406 29.7583 47.8937 30.7964 48.9799C33.3384 51.6395 36.5072 53.0032 40.1374 53C43.7054 52.9968 46.668 51.7573 49.2087 49.2049C51.7791 46.6227 53 43.6948 53 40.1132C53 37.4431 52.3241 35.1966 50.8303 32.9012C50.2206 31.9644 48.2673 30.0043 47.3685 29.4276L46.6727 28.9811L46.6363 18.4295C46.6087 10.427 46.5688 7.76561 46.4709 7.41346C46.2304 6.54793 45.7194 5.64066 45.0973 4.97498C44.3421 4.16666 43.6904 3.73612 42.6994 3.39093C42.0268 3.15661 41.7338 3.12277 39.9617 3.07449L37.9773 3.02051L37.9358 2.07057C37.9049 1.36441 37.8411 1.02938 37.687 0.765376C37.1074 -0.228368 35.6894 -0.228368 35.1097 0.765376C34.955 1.03063 34.8918 1.36503 34.8603 2.08542L34.8181 3.0502H32.0431H29.268L29.2258 2.08542C29.1944 1.36503 29.1312 1.03063 28.9765 0.765376C28.3968 -0.228368 26.9788 -0.228368 26.3992 0.765376C26.2444 1.03063 26.1812 1.36503 26.1498 2.08542L26.1076 3.0502H23.3325H20.5575L20.5153 2.08542C20.4839 1.36503 20.4206 1.03063 20.2659 0.765376C19.6862 -0.228368 18.2683 -0.228368 17.6886 0.765376C17.5339 1.03063 17.4706 1.36503 17.4392 2.08542L17.397 3.0502H14.6219H11.8469L11.8047 2.08542C11.7573 0.999382 11.5639 0.531578 11.0408 0.237255C10.5704 -0.0273771 10.2539 -0.063921 9.80002 0.0941936ZM4.61288 6.35898C4.08039 6.60119 3.54749 7.13471 3.30557 7.66781C3.13799 8.03709 3.1158 8.39433 3.11383 10.7587L3.11155 13.432H23.3325H43.5535L43.5512 10.7587C43.5487 7.77817 43.5139 7.59452 42.8196 6.89946C42.1669 6.24592 41.8529 6.16962 39.8068 6.16702L37.9786 6.16474L37.9364 7.12952C37.905 7.84991 37.8417 8.18431 37.687 8.44956C37.1074 9.44331 35.6894 9.44331 35.1097 8.44956C34.955 8.18431 34.8918 7.84991 34.8603 7.12952L34.8181 6.16474H32.0431H29.268L29.2258 7.12952C29.1944 7.84991 29.1312 8.18431 28.9765 8.44956C28.3968 9.44331 26.9788 9.44331 26.3992 8.44956C26.2444 8.18431 26.1812 7.84991 26.1498 7.12952L26.1076 6.16474H23.3325H20.5575L20.5153 7.12952C20.4839 7.84991 20.4206 8.18431 20.2659 8.44956C19.6862 9.44331 18.2683 9.44331 17.6886 8.44956C17.5339 8.18431 17.4706 7.84991 17.4392 7.12952L17.397 6.16474H14.6219H11.8469L11.8047 7.12952C11.7733 7.84991 11.71 8.18431 11.5553 8.44956C10.9756 9.44331 9.55768 9.44331 8.97802 8.44956C8.8233 8.18431 8.76004 7.84991 8.72862 7.12952L8.68642 6.16474L6.85824 6.16702C5.31221 6.16899 4.96555 6.19858 4.61288 6.35898ZM3.11196 28.4596C3.11227 40.1639 3.1159 40.3786 3.31842 40.7111C3.43177 40.8972 3.67649 41.1422 3.86242 41.2557C4.19425 41.4584 4.40818 41.4621 15.731 41.4624L27.2616 41.4628L27.2626 40.0745C27.2652 36.6824 28.4646 33.6862 30.7964 31.2465C32.7264 29.2273 34.9456 27.9977 37.6594 27.444C39.3294 27.1032 42.0165 27.1806 43.3619 27.6081C43.5466 27.6669 43.5535 27.4689 43.5535 22.1077V16.5465H23.3325H3.11155L3.11196 28.4596ZM16.6949 20.7252C16.1513 21.0955 15.9527 21.4358 15.9527 21.997C15.9527 22.5581 16.1513 22.8984 16.6949 23.2687C17.0155 23.4873 17.1461 23.5023 18.718 23.5023C20.2898 23.5023 20.4205 23.4873 20.7411 23.2687C21.2847 22.8984 21.4833 22.5581 21.4833 21.997C21.4833 21.4358 21.2847 21.0955 20.7411 20.7252C20.4205 20.5067 20.2898 20.4916 18.718 20.4916C17.1461 20.4916 17.0155 20.5067 16.6949 20.7252ZM25.9239 20.7252C25.3803 21.0955 25.1818 21.4358 25.1818 21.997C25.1818 22.5581 25.3803 22.8984 25.9239 23.2687C26.2445 23.4873 26.3752 23.5023 27.947 23.5023C29.5189 23.5023 29.6496 23.4873 29.9702 23.2687C30.5138 22.8984 30.7123 22.5581 30.7123 21.997C30.7123 21.4358 30.5138 21.0955 29.9702 20.7252C29.6496 20.5067 29.5189 20.4916 27.947 20.4916C26.3752 20.4916 26.2445 20.5067 25.9239 20.7252ZM35.153 20.7252C34.6094 21.0955 34.4108 21.4358 34.4108 21.997C34.4108 22.5581 34.6094 22.8984 35.153 23.2687C35.4736 23.4873 35.6043 23.5023 37.1761 23.5023C38.7479 23.5023 38.8786 23.4873 39.1992 23.2687C39.7428 22.8984 39.9414 22.5581 39.9414 21.997C39.9414 21.4358 39.7428 21.0955 39.1992 20.7252C38.8786 20.5067 38.7479 20.4916 37.1761 20.4916C35.6043 20.4916 35.4736 20.5067 35.153 20.7252ZM7.72608 27.5987C6.29713 28.1212 6.40529 30.0601 7.88557 30.4592C8.16306 30.534 8.87899 30.5672 9.74258 30.5454C10.9284 30.5155 11.2043 30.477 11.5074 30.2988C12.5067 29.7109 12.5067 28.2984 11.5074 27.7106C11.1977 27.5285 10.9405 27.4957 9.64448 27.4731C8.52994 27.4537 8.03354 27.4862 7.72608 27.5987ZM16.9551 27.5987C15.5262 28.1212 15.6343 30.0601 17.1146 30.4592C17.3921 30.534 18.108 30.5672 18.9716 30.5454C20.1574 30.5155 20.4334 30.477 20.7365 30.2988C21.7358 29.7109 21.7358 28.2984 20.7365 27.7106C20.4267 27.5285 20.1695 27.4957 18.8735 27.4731C17.759 27.4537 17.2626 27.4862 16.9551 27.5987ZM26.1842 27.5987C24.7552 28.1212 24.8634 30.0601 26.3437 30.4592C26.6212 30.534 27.3371 30.5672 28.2007 30.5454C29.7814 30.5056 30.156 30.3766 30.524 29.7458C30.9306 29.0489 30.6784 28.1299 29.9655 27.7106C29.6558 27.5285 29.3986 27.4957 28.1026 27.4731C26.9881 27.4537 26.4917 27.4862 26.1842 27.5987ZM38.1612 30.4085C34.2756 31.2067 31.2695 34.2262 30.4306 38.1733C30.2549 39 30.2328 40.9493 30.3892 41.833C30.9263 44.8684 32.9183 47.5451 35.6725 48.932C37.176 49.6891 38.4008 49.9759 40.1315 49.9759C41.8622 49.9759 43.087 49.6891 44.5905 48.932C47.3447 47.5451 49.3367 44.8684 49.8737 41.833C50.0138 41.041 50.0138 39.1854 49.8737 38.3933C49.3367 35.358 47.3447 32.6813 44.5905 31.2944C43.6984 30.8452 42.7353 30.5167 41.8493 30.3596C41.016 30.2118 38.9876 30.2386 38.1612 30.4085ZM39.6648 33.5236C39.1548 33.7012 38.8262 34.066 38.677 34.6207C38.6042 34.8915 38.5751 36.0163 38.5957 37.7596C38.6255 40.2723 38.6437 40.5035 38.8389 40.8363C38.955 41.034 39.2117 41.291 39.4092 41.4073C39.7479 41.6064 39.9382 41.6185 42.7239 41.6185C45.5096 41.6185 45.6999 41.6064 46.0386 41.4073C47.0379 40.8195 47.0379 39.4069 46.0386 38.8191C45.7175 38.6304 45.4676 38.6042 43.691 38.574L41.7026 38.5402L41.6689 36.5495C41.6387 34.7708 41.6126 34.5206 41.4241 34.1992C41.0517 33.5647 40.3361 33.2898 39.6648 33.5236ZM7.4658 34.7406C6.92222 35.1109 6.72364 35.4512 6.72364 36.0124C6.72364 36.5735 6.92222 36.9138 7.4658 37.2841C7.78643 37.5027 7.91709 37.5177 9.48893 37.5177C11.0608 37.5177 11.1914 37.5027 11.5121 37.2841C12.0556 36.9138 12.2542 36.5735 12.2542 36.0124C12.2542 35.4512 12.0556 35.1109 11.5121 34.7406C11.1914 34.5221 11.0608 34.507 9.48893 34.507C7.91709 34.507 7.78643 34.5221 7.4658 34.7406ZM16.6949 34.7406C16.1513 35.1109 15.9527 35.4512 15.9527 36.0124C15.9527 36.5735 16.1513 36.9138 16.6949 37.2841C17.0155 37.5027 17.1461 37.5177 18.718 37.5177C20.2898 37.5177 20.4205 37.5027 20.7411 37.2841C21.2847 36.9138 21.4833 36.5735 21.4833 36.0124C21.4833 35.4512 21.2847 35.1109 20.7411 34.7406C20.4205 34.5221 20.2898 34.507 18.718 34.507C17.1461 34.507 17.0155 34.5221 16.6949 34.7406Z" fill="#0057C7"/>
</svg>
