<svg width="135" height="136" viewBox="0 0 135 136" fill="none" xmlns="http://www.w3.org/2000/svg">
<ellipse cx="67.0322" cy="67.5015" rx="67.0322" ry="67.5015" transform="matrix(0.999998 -0.00189101 -0.00187786 0.999998 0.253418 0.25354)" fill="#023787"/>
<path d="M76.4974 25.955C75.3954 25.6945 74.4765 25.299 73.7407 24.7685C73.0179 24.2411 72.4929 23.6028 72.1657 22.8536C71.8417 22.0914 71.7223 21.2472 71.8075 20.3212L75.6854 20.0038C75.6444 20.4603 75.6757 20.8723 75.7794 21.2396C75.896 21.6099 76.0702 21.9117 76.302 22.1447C76.5467 22.3808 76.8441 22.5403 77.1942 22.623C77.6609 22.7333 78.0532 22.6684 78.3712 22.4282C78.7021 22.191 78.9329 21.7999 79.0637 21.2549L81.3343 11.8776L85.5543 12.8752L83.2277 22.4861C82.9879 23.4852 82.5555 24.288 81.9305 24.8945C81.3055 25.5009 80.525 25.8992 79.5888 26.0893C78.6688 26.2694 77.6383 26.2247 76.4974 25.955ZM90.3878 32.346C89.0638 31.4526 88.0703 30.4034 87.4071 29.1986C86.7625 27.9902 86.4901 26.7187 86.5898 25.3841C86.7005 24.057 87.1826 22.7629 88.0361 21.502C88.8971 20.2299 89.9236 19.2952 91.1156 18.6977C92.3186 18.1076 93.598 17.8914 94.9539 18.0491C96.3208 18.2142 97.6662 18.7434 98.9902 19.6369C100.325 20.5377 101.319 21.5869 101.971 22.7843C102.623 23.9816 102.899 25.2476 102.799 26.5822C102.7 27.9168 102.219 29.2201 101.358 30.4921C100.505 31.753 99.4766 32.6785 98.2736 33.2686C97.0706 33.8586 95.7874 34.0804 94.4241 33.9338C93.0682 33.7761 91.7228 33.2469 90.3878 32.346ZM92.4541 29.2931C93.072 29.7101 93.7062 29.9366 94.3567 29.9728C95.0073 30.009 95.6242 29.8693 96.2073 29.5539C96.798 29.2274 97.3179 28.7323 97.7672 28.0686C98.2164 27.405 98.4825 26.7387 98.5657 26.0697C98.6489 25.4007 98.5486 24.7771 98.2649 24.1989C97.9887 23.6097 97.5416 23.1066 96.9238 22.6897C96.317 22.2802 95.6828 22.0537 95.0212 22.0101C94.3781 21.9628 93.7613 22.1025 93.1706 22.429C92.591 22.7629 92.0766 23.2617 91.6273 23.9254C91.1781 24.589 90.9064 25.2516 90.8123 25.9132C90.7366 26.5711 90.8369 27.1947 91.1131 27.7839C91.4003 28.3806 91.8473 28.8837 92.4541 29.2931ZM109.892 28.6471L112.658 31.9809L101.623 41.1492L98.8569 37.8153L109.892 28.6471ZM116.188 37.5227L118.181 42.0131L111.831 50.3644L111.847 50.401L120.24 46.6496L121.877 50.3369L108.785 56.1887L106.783 51.68L113.124 43.3551L113.107 43.3185L104.733 47.0617L103.096 43.3744L116.188 37.5227ZM120.686 66.7574L120.817 62.719L124.495 62.8245L124.093 75.2194L120.415 75.114L120.546 71.0756L109.911 70.7708L110.051 66.4526L120.686 66.7574ZM122.705 81.8456L121.127 85.8942L116.246 84.0067L114.514 88.4472L119.395 90.3347L117.817 94.3834L104.478 89.2251L106.056 85.1764L111.366 87.2297L113.097 82.7892L107.787 80.736L109.366 76.6873L122.705 81.8456ZM114.183 100.67L107.612 108.496L105.027 106.329L108.918 101.694L107.25 100.296L103.875 104.317L101.626 102.431L105.002 98.4108L103.151 96.8588L99.1308 101.647L96.5303 99.4662L103.23 91.4865L114.183 100.67ZM98.0678 116.228L89.0556 120.996L87.3442 117.745L92.5143 115.01L91.333 112.765L87.2253 114.939L85.7278 112.094L89.8356 109.92L87.5661 105.609L91.4082 103.576L98.0678 116.228ZM83.6361 122.965L79.3961 123.907L77.126 113.521L72.0262 114.654L71.241 111.062L80.5809 108.987L83.6361 122.965ZM62.5392 109.646C64.1284 109.826 65.4957 110.297 66.6413 111.057C67.7721 111.829 68.6012 112.829 69.1286 114.057C69.6427 115.283 69.8115 116.651 69.6349 118.162C69.4568 119.685 68.9759 120.987 68.1923 122.066C67.3954 123.144 66.358 123.926 65.08 124.412C63.7889 124.897 62.3487 125.049 60.7596 124.869C59.1571 124.688 57.7898 124.218 56.6575 123.459C55.5251 122.7 54.6953 121.706 54.1679 120.479C53.6405 119.251 53.4658 117.875 53.6439 116.352C53.8205 114.841 54.3073 113.547 55.1042 112.47C55.9011 111.392 56.9392 110.603 58.2187 110.104C59.4966 109.618 60.9368 109.465 62.5392 109.646ZM62.1117 113.303C61.3701 113.219 60.7018 113.311 60.1069 113.58C59.512 113.848 59.0281 114.256 58.6554 114.805C58.2811 115.366 58.0475 116.045 57.9546 116.84C57.8616 117.635 57.9326 118.347 58.1675 118.978C58.4024 119.609 58.7794 120.115 59.2984 120.495C59.8159 120.89 60.4454 121.129 61.187 121.213C61.9154 121.295 62.5837 121.203 63.1919 120.936C63.7852 120.681 64.2691 120.273 64.6434 119.711C65.0044 119.148 65.2314 118.469 65.3243 117.674C65.4173 116.879 65.3529 116.167 65.1313 115.538C64.8948 114.92 64.5178 114.414 64.0004 114.02C63.4696 113.625 62.8401 113.386 62.1117 113.303ZM46.4219 104.542C47.7989 105.325 48.8467 106.282 49.5653 107.413C50.2722 108.537 50.6186 109.756 50.6044 111.069C50.5836 112.393 50.189 113.728 49.4207 115.074C48.6457 116.43 47.713 117.459 46.6226 118.161C45.5141 118.867 44.3156 119.207 43.0274 119.181C41.7324 119.167 40.4312 118.788 39.1236 118.044C38.0474 117.432 37.1963 116.695 36.5701 115.832C35.9324 114.962 35.5494 114.022 35.4212 113.012C35.2929 112.002 35.4367 110.986 35.8526 109.962L39.7688 111.037C39.5832 111.577 39.5009 112.083 39.5221 112.556C39.5366 113.04 39.6645 113.474 39.9056 113.857C40.1402 114.252 40.4831 114.577 40.9344 114.834C41.4898 115.15 42.0553 115.287 42.6309 115.245C43.2064 115.204 43.7532 114.985 44.2711 114.588C44.789 114.191 45.25 113.639 45.6541 112.932C46.0515 112.236 46.272 111.555 46.3155 110.888C46.3589 110.222 46.2321 109.612 45.9348 109.059C45.6309 108.517 45.1665 108.069 44.5416 107.713C44.0209 107.417 43.4744 107.26 42.9022 107.242C42.3301 107.224 41.7859 107.345 41.2697 107.604C40.7419 107.857 40.2753 108.245 39.8697 108.767L36.6293 106.348C37.3759 105.282 38.2803 104.491 39.3424 103.973C40.3979 103.467 41.535 103.261 42.7538 103.355C43.9726 103.449 45.1953 103.845 46.4219 104.542ZM27.0635 109.057L24.3292 105.697L28.1033 102.621L28.1062 102.593L21.8972 102.709L18.6084 98.6675L25.8542 98.9685L29.6532 89.5106L32.9294 93.5364L30.2226 99.1938L32.1725 99.3042L35.4496 96.6331L38.1839 99.9931L27.0635 109.057ZM15.8984 83.4464L16.9033 87.3556L13.3389 88.2844L10.2547 76.2858L13.8191 75.357L14.8239 79.2663L25.1295 76.581L26.204 80.7611L15.8984 83.4464ZM25.3745 63.6926C25.2121 65.285 24.7569 66.6609 24.0089 67.8204C23.2491 68.9654 22.2583 69.8129 21.0366 70.363C19.8163 70.8998 18.4501 71.0939 16.9379 70.9453C15.4125 70.7954 14.1059 70.3386 13.0183 69.575C11.9319 68.7981 11.1386 67.7753 10.6384 66.5065C10.1395 65.2244 9.97123 63.7872 10.1337 62.1949C10.2974 60.5893 10.7526 59.2134 11.4992 58.0671C12.2458 56.9209 13.23 56.0727 14.4516 55.5226C15.6733 54.9726 17.0469 54.7725 18.5723 54.9224C20.0844 55.071 21.3837 55.5337 22.47 56.3106C23.5563 57.0875 24.3563 58.111 24.8698 59.3811C25.37 60.6498 25.5383 62.087 25.3745 63.6926ZM21.7135 63.3329C21.7893 62.5898 21.6898 61.9233 21.4151 61.3334C21.1403 60.7435 20.7267 60.2672 20.1742 59.9047C19.6084 59.5408 18.9276 59.3198 18.1317 59.2416C17.3358 59.1634 16.6239 59.2475 15.9959 59.4941C15.3678 59.7406 14.8662 60.1269 14.491 60.6529C14.1026 61.1777 13.8704 61.8116 13.7946 62.5547C13.7202 63.2845 13.8197 63.951 14.0931 64.5542C14.3546 65.1428 14.7682 65.619 15.334 65.9829C15.9011 66.3334 16.5826 66.5478 17.3785 66.626C18.1743 66.7043 18.8856 66.6267 19.5123 66.3935C20.1271 66.1456 20.6287 65.7593 21.0171 65.2346C21.4069 64.6966 21.6391 64.0627 21.7135 63.3329ZM13.5916 47.0859L16.4854 41.5241C17.6503 39.2851 19.0938 37.8519 20.8159 37.2245C22.5442 36.5853 24.4251 36.7919 26.4587 37.8444C27.8065 38.5419 28.8175 39.411 29.4917 40.4516C30.1601 41.4742 30.4715 42.6352 30.4256 43.9347C30.3742 45.2162 29.9601 46.6033 29.1835 48.0959L26.2896 53.6578L13.5916 47.0859ZM26.1686 46.5356C26.5137 45.8722 26.6824 45.2452 26.6745 44.6547C26.6609 44.0462 26.4675 43.495 26.0942 43.0011C25.7152 42.4892 25.171 42.0497 24.4616 41.6826C23.3857 41.1257 22.4164 40.9699 21.5535 41.215C20.6968 41.4482 20.0065 42.0683 19.4826 43.0752L18.521 44.9233L25.207 48.3836L26.1686 46.5356ZM26.6512 27.2177L30.5114 23.5424L43.9787 30.4553L40.6845 33.5918L38.4417 32.2817L34.9734 35.5839L36.1567 37.9027L32.8915 41.0115L26.6512 27.2177ZM35.9108 30.6396L30.8528 27.7376L30.8238 27.7653L33.4582 32.9747L35.9108 30.6396ZM45.3143 25.0618L36.8769 18.5725L40.9873 16.6768L45.7311 20.7789L45.7675 20.7621L45.5705 14.5629L49.7355 12.642L49.261 23.2416L51.291 27.6716L47.3443 29.4919L45.3143 25.0618ZM55.3816 14.978L54.6641 11.127L58.4982 10.3987L59.2157 14.2498L59.2576 19.938L57.3897 20.2928L55.3816 14.978ZM59.2326 25.049C58.6165 25.166 58.0699 25.0732 57.5928 24.7705C57.1264 24.4522 56.837 23.9918 56.7248 23.3893C56.6515 22.9963 56.6709 22.6264 56.7827 22.2797C56.9076 21.9305 57.1181 21.6396 57.4141 21.4071C57.7076 21.1614 58.0575 21 58.4639 20.9229C59.0931 20.8033 59.6409 20.9027 60.1074 21.221C60.5845 21.5237 60.8792 21.9763 60.9914 22.5788C61.0646 22.9718 61.0388 23.3429 60.9138 23.6921C60.7889 24.0413 60.5797 24.3388 60.2861 24.5844C59.9901 24.8169 59.639 24.9718 59.2326 25.049Z" fill="#FFBA00"/>
<g clip-path="url(#clip0_977_15821)">
<path d="M85.3696 75.0888C85.5092 76.4274 84.064 75.3871 83.4405 75.4653C80.5895 77.5335 75.3201 75.8818 73.5467 73.0015C74.719 72.9038 75.8818 72.6843 77.0078 72.3238C77.6166 72.1287 78.2255 71.9311 78.7317 71.5224C79.2137 71.1333 79.601 70.634 79.9177 70.1033C80.6798 68.8357 81.101 67.3362 81.2696 65.8486C86.4661 65.4365 92.313 66.5896 96.9026 63.9919C97.3157 64.0102 97.0631 64.5955 96.6993 65.6612C96.5148 66.1695 95.0733 67.0841 94.5588 66.8288C94.1355 67.4865 96.1941 68.5488 96.4508 68.9217C96.2204 69.5777 92.3397 67.6624 92.4597 68.4088C92.7174 68.7611 94.2781 69.4398 94.0158 69.7535C93.7833 69.7225 93.4679 69.5484 93.2647 69.6013C93.5952 70.1996 93.8678 70.8236 94.0571 71.2581C94.0846 71.3265 94.0145 71.3931 93.9521 71.3541C93.3184 71.0135 91.5534 70.1502 90.7972 69.9462C90.1671 70.1557 91.3308 70.7523 91.5866 71.6648C91.8163 72.0623 91.3229 71.6402 91.1563 71.5785C91.0482 72.1521 91.4981 73.2463 91.1344 73.3747C90.6209 73.2021 89.1125 71.8286 88.7041 72.1849C88.7526 72.453 89.1293 73.3115 89.0853 73.6813C89.0633 73.8663 88.5581 72.9014 88.4465 73.8079C88.3082 74.264 88.4349 74.928 88.1324 75.0127C87.5675 74.7888 86.4611 73.2937 85.9425 73.7974C85.8642 74.238 86.0494 74.7575 85.8691 75.1781C85.8019 75.343 85.3588 73.8489 85.3746 75.0916L85.3696 75.0888Z" fill="#F18221"/>
<path d="M77.215 80.2084C76.6138 81.0829 75.9085 81.8778 75.1087 82.5575C75.3611 82.3415 75.6011 82.1146 75.8339 81.8797C74.2215 78.4461 70.8248 75.9997 66.7821 75.8021C66.7821 75.8021 66.7744 75.8017 66.7692 75.8015L66.7564 75.8009C62.7118 75.6419 59.0889 77.7739 57.1425 81.0494C57.3511 81.304 57.5703 81.5513 57.7977 81.7886C57.0685 81.0384 56.4472 80.1871 55.9348 79.2632C55.4577 78.4079 55.2083 77.4699 55.1094 76.5049C57.8574 76.1571 60.4589 74.6097 61.7157 72.5921C61.8668 72.604 62.0179 72.6159 62.1693 72.6226C62.7183 72.647 63.268 72.6585 63.8139 72.6956C63.9088 72.6999 64.0311 72.6717 63.9565 72.5677C63.9325 72.5331 63.8635 72.5248 63.7996 72.5168C57.2137 70.3962 55.437 67.1671 55.6108 64.1176C55.8182 60.4395 58.8562 57.0318 59.6912 56.16C59.3043 56.3416 58.939 56.5526 58.598 56.7931C59.0005 56.5037 59.4292 56.2594 59.8889 56.0629C60.8027 55.6774 61.778 55.5064 62.7304 55.5384C64.1141 55.5844 65.4559 56.0623 66.537 56.9753C66.8363 57.2675 67.2557 57.4178 67.6748 57.4183C68.0923 57.4524 68.5245 57.3425 68.8513 57.0781C70.0177 56.2649 71.4033 55.9082 72.7803 55.9848C73.7343 56.0375 74.6859 56.2941 75.5603 56.759C75.9986 56.9954 76.4013 57.2766 76.7736 57.6004C76.8379 57.6523 76.902 57.7068 76.9632 57.7689C77.0862 57.8829 77.2039 57.9991 77.3185 58.1256C77.3699 58.1769 77.4211 58.2334 77.4696 58.2924C77.6208 58.4592 77.7664 58.6361 77.9013 58.8202C77.9472 58.8791 77.9906 58.9378 78.0339 58.9991C78.253 59.3006 78.4556 59.6221 78.6297 59.95C78.691 60.0637 78.7523 60.1749 78.8084 60.2884C78.8928 60.4548 78.9743 60.6263 79.0456 60.7973C79.1221 60.966 79.1907 61.1394 79.2541 61.3127C79.2951 61.4204 79.3332 61.5331 79.3663 61.643C79.4496 61.8842 79.5195 62.1352 79.5818 62.3833C79.6357 62.5923 79.679 62.8085 79.712 63.0269C79.7685 63.3392 79.8071 63.6508 79.8277 63.9642C79.8355 64.0652 79.8435 64.1637 79.8463 64.2645C79.8569 64.4664 79.8572 64.6678 79.855 64.8691C79.8544 65.0886 79.8433 65.3127 79.8222 65.5313C79.7694 66.1331 79.6772 66.7487 79.5194 67.3408C79.4555 67.5936 79.3736 67.8456 79.2766 68.0917C79.088 68.5791 78.8388 69.0432 78.5099 69.4546C78.2768 69.7489 78.0193 70.0164 77.7345 70.2645C76.8933 70.9992 75.8616 71.5318 74.7923 71.8897C74.7086 71.9169 74.6196 71.9491 74.5337 71.9711C74.463 71.9964 74.3899 72.019 74.3143 72.0388C74.1579 72.0835 73.9961 72.1306 73.8296 72.1697C73.4338 72.2708 73.0334 72.3589 72.6336 72.4367C72.3976 72.4779 72.1694 72.5168 71.936 72.5555C71.8687 72.5654 71.7988 72.5752 71.734 72.5852C71.5734 72.6091 71.4104 72.6303 71.25 72.649C71.1387 72.6647 71.0247 72.6803 70.9083 72.6958C70.8384 72.7056 70.7683 72.7179 70.7011 72.7253C70.6545 72.731 70.6104 72.7393 70.564 72.7424C70.5252 72.7459 70.1734 72.7896 70.1346 72.7931C70.1295 72.7928 70.119 72.7975 70.1087 72.7971C70.0882 72.7962 70.0651 72.7951 70.0394 72.794L70.0343 72.7938C69.9725 72.7962 69.903 72.7983 69.8731 72.8305C69.7886 72.9275 69.9049 72.9662 70.0024 72.9705C70.552 72.9846 71.1006 73.0193 71.6471 73.0436C71.801 73.0504 71.9501 73.0519 72.1043 73.0536C73.1541 75.1736 75.5942 76.9449 78.2933 77.5347C78.1023 78.4868 77.7615 79.3987 77.2021 80.2078L77.215 80.2084ZM77.5181 63.3503C77.6858 60.267 75.491 57.6416 72.6258 57.4988C70.4481 57.3918 68.5042 58.7436 67.6181 60.7519C67.5623 60.894 67.4544 60.8918 67.4103 60.7427C66.7261 58.6647 64.924 57.1464 62.7478 57.06C59.8811 56.9482 57.4371 59.3675 57.3001 62.4522C57.1629 65.5421 59.3872 68.143 62.254 68.2522C63.2264 68.2954 64.1522 68.0345 64.9521 67.5613L65.4402 69.0806C65.8165 70.2593 66.687 70.3883 66.9435 70.3997C66.9692 70.4009 67.0025 70.4023 67.0387 70.3988C67.0744 70.4055 67.1052 70.4069 67.1308 70.408C67.39 70.4196 68.2642 70.368 68.7602 69.2281L69.3959 67.7587C70.1483 68.3008 71.0392 68.6399 72.0141 68.6858C74.8791 68.8311 77.3476 66.4361 77.5181 63.3503Z" fill="#F18221"/>
<path d="M74.2769 83.2022C74.3171 83.173 74.3597 83.1465 74.4 83.1148C74.3598 83.1439 74.3195 83.1757 74.2769 83.2022Z" fill="#E0752D"/>
<path d="M70.4675 62.9288C70.512 62.9643 70.5813 62.9674 70.6217 62.9304C70.638 62.9131 70.6493 62.8929 70.6605 62.8728C70.7203 62.7567 70.7714 62.6582 70.856 62.5587C70.9243 62.4791 71 62.4024 71.0833 62.3312C71.269 62.1639 71.4815 62.0262 71.6696 61.8615C71.788 61.7557 71.9416 61.6128 71.9141 61.4412C71.9033 61.3477 71.8268 61.2824 71.7316 61.2833C71.5129 61.2865 71.307 61.3935 71.1411 61.5256C70.9404 61.6845 70.7711 61.8836 70.6395 62.1024C70.5193 62.2959 70.3938 62.5459 70.4003 62.7786C70.3975 62.8353 70.4254 62.8959 70.4674 62.9313L70.4675 62.9288ZM72.1816 65.8633C70.7451 65.7943 69.6457 64.4699 69.7328 62.9142C69.8148 61.3582 71.052 60.1531 72.491 60.2248C73.9276 60.2938 75.0271 61.6156 74.9399 63.1713C74.8579 64.7273 73.6207 65.9324 72.1816 65.8633Z" fill="black"/>
<path d="M69.7329 62.9142C69.6457 64.4699 70.7453 65.7917 72.1817 65.8633C73.6182 65.9323 74.8553 64.7297 74.94 63.1713C75.0272 61.6156 73.9276 60.2938 72.4911 60.2248C71.0547 60.1532 69.8174 61.3583 69.7329 62.9142ZM76.6688 63.3101C76.5267 65.9272 74.4594 67.9553 72.0585 67.8357C69.6601 67.7189 67.8235 65.4941 67.9656 62.877C68.1101 60.2652 70.1802 58.232 72.5759 58.3513C74.9768 58.4709 76.8108 60.6955 76.6664 63.3074L76.6688 63.3101Z" fill="white"/>
<path d="M66.1954 68.8327C66.4115 69.5059 66.8158 69.5987 66.98 69.606L67.1699 69.6145C67.3341 69.6218 67.7483 69.5653 68.0273 68.9141L68.7616 67.2192C68.1415 66.603 67.6655 65.8279 67.3873 64.9531C67.3824 64.9477 67.3775 64.9423 67.3725 64.9395C67.3433 64.9072 67.3035 64.8796 67.2443 64.9338C67.2366 64.9335 67.231 64.941 67.2255 64.9485C66.8623 65.7948 66.3094 66.5242 65.6338 67.0829L66.1953 68.8353L66.1954 68.8327ZM58.1468 62.4873C58.0303 65.1055 59.886 67.3079 62.2908 67.4018C64.6902 67.498 66.7381 65.4458 66.852 62.8275C66.9657 60.2142 65.1077 58.0066 62.7081 57.9129C60.3059 57.8192 58.258 59.8713 58.1469 62.4847L58.1468 62.4873ZM72.0585 67.8356C74.4594 67.9552 76.5241 65.927 76.6688 63.31C76.8132 60.6981 74.9767 58.4708 72.5783 58.354C70.18 58.2345 68.1126 60.2652 67.968 62.8796C67.8259 65.4967 69.6625 67.7215 72.0609 67.8383L72.0585 67.8356ZM72.6257 57.4988C75.4908 57.6416 77.6857 60.2669 77.5179 63.3503C77.3473 66.4387 74.8789 68.8311 72.0139 68.6858C71.0389 68.6425 70.1456 68.3007 69.3958 67.7587L68.7601 69.2281C68.2666 70.3681 67.3898 70.4195 67.1307 70.408C67.105 70.4069 67.0742 70.4055 67.0386 70.3988C67.0024 70.4023 66.969 70.4008 66.9434 70.3997C66.6868 70.3883 65.8189 70.2594 65.44 69.0806L64.9519 67.5613C64.1495 68.0343 63.2264 68.2928 62.2539 68.2522C59.3871 68.143 57.1629 65.5395 57.3 62.4522C57.4369 59.3675 59.881 56.9482 62.7476 57.06C64.9239 57.1464 66.726 58.6646 67.4102 60.7427C67.4542 60.8918 67.5621 60.894 67.618 60.7519C68.504 58.7436 70.4479 57.3917 72.6257 57.4988Z" fill="#0057C7"/>
<path d="M70.0496 72.7919C70.0753 72.7931 70.0983 72.7941 70.1188 72.795C70.0853 72.7986 70.0336 72.804 69.9897 72.8098C70.0106 72.803 70.0261 72.8011 70.047 72.7944L70.0521 72.7946L70.0496 72.7919Z" fill="#0057C7"/>
<path d="M70.6218 62.9278C70.5814 62.9647 70.5096 62.9615 70.4676 62.9261C70.4257 62.8907 70.3978 62.83 70.4006 62.7734C70.3915 62.5406 70.5196 62.2906 70.6397 62.0971C70.7714 61.8783 70.9406 61.6793 71.1413 61.5204C71.3097 61.391 71.5131 61.2813 71.7319 61.2781C71.8271 61.2771 71.9035 61.3425 71.9143 61.4359C71.9392 61.61 71.7881 61.7531 71.6699 61.8563C71.4817 62.0209 71.2692 62.1587 71.0835 62.326C71.0003 62.3972 70.9245 62.4739 70.8563 62.5535C70.7717 62.653 70.7205 62.7514 70.6608 62.8675C70.6495 62.8877 70.6382 62.9079 70.622 62.9252L70.6218 62.9278Z" fill="white"/>
<path d="M67.5764 87.3071C68.6727 87.237 69.7555 87.0243 70.798 86.6885C70.9342 86.7436 71.0616 86.819 71.1809 86.9017C71.3645 87.0364 71.5398 87.1836 71.7046 87.3356C72.3804 87.9698 72.8742 88.7483 73.1388 89.5863C73.277 90.0159 73.3576 90.4662 73.3663 90.9159C73.3703 91.0426 73.1831 91.0833 73.1086 90.9793C72.5971 90.2465 72.4171 89.2057 71.6598 88.6582C71.5632 88.5842 71.1843 88.2911 71.098 88.5274L70.9823 88.8398C70.9459 88.9518 70.7948 88.9916 70.6927 88.9251C70.6279 88.8835 70.5854 88.8067 70.5446 88.7481C70.4708 88.6286 70.4077 88.4993 70.3049 88.394C70.1924 88.278 70.0662 88.1769 69.9324 88.0754C69.9275 88.07 69.9175 88.0644 69.907 88.0691C69.8967 88.0686 69.8885 88.0786 69.8831 88.0835C69.8197 88.1711 69.7606 88.2743 69.6297 88.2685C69.5194 88.2636 69.4183 88.2281 69.3253 88.1853C68.8901 87.9903 68.43 87.8305 67.9693 87.6835C68.1388 87.6342 67.3574 87.4213 66.7829 87.339C67.0478 87.3379 67.3131 87.329 67.5789 87.3098L67.5764 87.3071Z" fill="#FFBA00"/>
<path d="M66.7206 87.3333C66.559 87.3312 66.3973 87.3292 66.2332 87.3244L66.2127 87.3235L66.2173 87.2313C66.3391 87.2598 66.4559 87.2856 66.5778 87.3141C66.6239 87.3161 66.6722 87.326 66.7206 87.3333Z" fill="#0057C7"/>
<path d="M66.22 87.2289L66.3634 87.2353C66.4904 87.264 66.6196 87.298 66.7492 87.3268C66.7594 87.3273 66.7694 87.3329 66.7822 87.3334C66.7617 87.3325 66.7438 87.3317 66.7233 87.3308C66.6749 87.3235 66.6264 87.3162 66.5805 87.3116C66.4586 87.2831 66.3418 87.2574 66.22 87.2289Z" fill="#0057C7"/>
<path d="M66.2333 87.3275C66.3975 87.3297 66.559 87.3343 66.7206 87.3363C66.7334 87.3369 66.7437 87.3373 66.7563 87.343C66.5844 87.3405 66.4073 87.3378 66.2331 87.3301L66.2333 87.3275Z" fill="#0057C7"/>
<path d="M67.2442 64.9337C67.3033 64.8799 67.3431 64.9073 67.3723 64.9394C67.3401 64.9149 67.2788 64.9096 67.2442 64.9337Z" fill="#FFBA00"/>
<path d="M66.9853 69.6037C67.0137 69.6049 67.05 69.6014 67.0889 69.598L67.0884 69.6083L66.9853 69.6037Z" fill="#FFBA00"/>
<path d="M66.7821 75.7995C70.8248 75.9972 74.2217 78.441 75.8339 81.8771C75.6012 82.1121 75.3585 82.3388 75.1087 82.555C75.0255 82.6262 74.9397 82.6972 74.854 82.7657C74.7682 82.8368 74.6827 82.9027 74.5919 82.971C74.5278 83.0198 74.4637 83.0686 74.3971 83.1147C74.357 83.1465 74.3169 83.1757 74.2745 83.2022C74.1094 83.3162 73.9418 83.4301 73.7694 83.5361C72.4592 84.3455 70.9947 84.895 69.4782 85.1426C68.4153 85.3175 67.3647 85.4516 66.3035 85.4354L66.2804 85.4344C65.2223 85.3564 64.1896 85.1298 63.146 84.8614C61.6631 84.4805 60.2567 83.8009 59.0345 82.8816C58.8733 82.7608 58.7175 82.6351 58.5646 82.5044C58.5053 82.4553 58.4486 82.4063 58.3921 82.3521C58.3477 82.314 58.3033 82.2759 58.2616 82.2353C58.1828 82.1646 58.1067 82.0915 58.0306 82.0184C57.9495 81.9425 57.8736 81.8643 57.7978 81.786C57.5678 81.5486 57.3512 81.3014 57.1426 81.0469C59.0864 77.7713 62.7094 75.6367 66.7565 75.7984C66.7565 75.7984 66.7642 75.7987 66.7693 75.799L66.7821 75.7995Z" fill="#E0752D"/>
<path d="M66.1895 87.3256L66.1941 87.2329C66.1941 87.2329 66.2018 87.2333 66.207 87.2335C66.2121 87.2337 66.2147 87.2338 66.2199 87.2341L66.2153 87.3268L66.1921 87.3257L66.1895 87.3256Z" fill="#0057C7"/>
<path d="M66.208 87.2312C66.208 87.2312 66.1998 87.2308 66.1943 87.2306L66.1946 87.2251C66.1946 87.2251 66.2028 87.2255 66.2083 87.2257L66.208 87.2312Z" fill="#0057C7"/>
<path d="M65.8238 87.2832C65.9479 87.2656 66.0693 87.2504 66.1934 87.2329L66.1888 87.3251L66.1684 87.3241C66.0046 87.3117 65.8408 87.3019 65.6797 87.2896C65.7286 87.2866 65.7775 87.2837 65.8238 87.2832Z" fill="#0057C7"/>
<path d="M67.3871 64.9558C67.6654 65.8305 68.1413 66.6057 68.7614 67.2219L68.0272 68.9168C67.7481 69.568 67.3339 69.6244 67.1697 69.6171L67.0876 69.6135L67.0881 69.6032C67.0494 69.6066 67.0132 69.6102 66.985 69.6089L66.9799 69.6087C66.8157 69.6014 66.4088 69.5085 66.1952 68.8354L65.6338 67.083C66.3094 66.5243 66.8623 65.7949 67.2255 64.9486C67.231 64.9411 67.239 64.9363 67.2442 64.9339C67.2787 64.9122 67.3403 64.9149 67.3725 64.9396C67.3774 64.945 67.385 64.9479 67.3873 64.9532L67.3871 64.9558Z" fill="#FFBA00"/>
<path d="M67.2449 64.9339C67.2449 64.9339 67.2312 64.9413 67.2255 64.9491C67.2312 64.9413 67.2368 64.9362 67.2449 64.9339Z" fill="#FFBA00"/>
<path d="M66.1682 87.3246C65.994 87.3168 65.8149 87.3038 65.6435 87.291C65.6564 87.2916 65.6666 87.292 65.6797 87.2875C65.8408 87.2998 66.0045 87.3122 66.1683 87.322L66.1682 87.3246Z" fill="#0057C7"/>
<path d="M65.6544 87.2807C65.7836 87.2633 65.9184 87.2385 66.0475 87.2237L66.1909 87.2301L66.1907 87.2352C66.0666 87.2528 65.9451 87.268 65.821 87.2855C65.7749 87.2835 65.7259 87.289 65.6769 87.292C65.6564 87.2911 65.6385 87.2903 65.6206 87.2895C65.6334 87.29 65.6439 87.2854 65.6516 87.2857L65.6544 87.2807Z" fill="#0057C7"/>
<path d="M63.8048 72.5145C63.8224 72.5205 63.835 72.5261 63.8527 72.5321C63.8068 72.5249 63.7611 72.5152 63.7332 72.5088C63.7536 72.5097 63.7741 72.5106 63.8023 72.5119L63.8048 72.5145Z" fill="#0057C7"/>
<path d="M62.5249 87.8549C62.5249 87.8549 62.5419 87.8763 62.5517 87.887C62.5418 87.8788 62.5321 87.8655 62.5249 87.8549Z" fill="#0057C7"/>
<path d="M63.267 61.4856C63.1622 61.37 63.0233 61.214 63.0651 61.0455C63.0876 60.9535 63.1676 60.8951 63.2649 60.9046C63.4798 60.927 63.6742 61.0519 63.8289 61.1982C64.0105 61.3741 64.1594 61.5873 64.2715 61.8169C64.372 62.0202 64.4723 62.2802 64.4429 62.5113C64.435 62.5678 64.4064 62.6259 64.3611 62.6575C64.3107 62.6888 64.2414 62.6857 64.2049 62.6454C64.1903 62.6266 64.1811 62.6056 64.1719 62.5845C64.1264 62.4637 64.0826 62.3611 64.0082 62.2545C63.9507 62.1693 63.8802 62.0861 63.8044 62.0079C63.6385 61.8249 63.4405 61.6689 63.2669 61.4882L63.267 61.4856Z" fill="white"/>
<path d="M58.9613 90.3484C58.8768 90.4454 58.6945 90.3882 58.711 90.2624C58.7639 89.8155 58.886 89.3742 59.066 88.9587C59.4146 88.1479 59.983 87.4166 60.7158 86.8449C60.8948 86.7083 61.084 86.5747 61.2825 86.4596C61.4068 86.3902 61.5436 86.3266 61.6847 86.2812C62.6896 86.708 63.7468 87.0131 64.8287 87.1826C65.094 87.2253 65.3574 87.2551 65.6209 87.2823C65.0408 87.3133 64.2418 87.456 64.4032 87.52C63.9325 87.6256 63.4587 87.744 63.0036 87.8994C62.9068 87.9338 62.8026 87.9602 62.6948 87.9554C62.6281 87.9524 62.5832 87.9246 62.5492 87.8843C62.5395 87.8736 62.5323 87.8629 62.5225 87.8522C62.501 87.8202 62.4796 87.7831 62.4608 87.7487C62.4533 87.7432 62.4487 87.7327 62.4384 87.7322C62.4284 87.7266 62.4179 87.7313 62.4125 87.7363C62.2694 87.8229 62.1363 87.9151 62.0102 88.0205C61.8949 88.1161 61.8194 88.2392 61.7342 88.3517C61.6903 88.4065 61.638 88.4765 61.5718 88.5149C61.4584 88.5718 61.3119 88.5188 61.2893 88.4042L61.2049 88.0828C61.1423 87.8399 60.7336 88.0981 60.6326 88.1633C59.8246 88.6438 59.5429 89.6616 58.964 90.3459L58.9613 90.3484Z" fill="#FFBA00"/>
<path d="M63.2669 61.4856C63.4406 61.6663 63.6386 61.8223 63.8044 62.0052C63.8802 62.0835 63.9507 62.1667 64.0082 62.2518C64.0827 62.3584 64.1264 62.4611 64.1719 62.5819C64.1811 62.603 64.1904 62.624 64.2049 62.6427C64.2415 62.6831 64.3133 62.6863 64.3612 62.6548C64.409 62.6234 64.4376 62.5653 64.4429 62.5087C64.4749 62.2777 64.3721 62.0175 64.2715 61.8143C64.1595 61.5846 64.0106 61.3715 63.829 61.1955C63.6741 61.0518 63.4798 60.9244 63.2649 60.902C63.1677 60.8925 63.0877 60.9509 63.0651 61.0428C63.0258 61.2141 63.1621 61.3699 63.2671 61.483L63.2669 61.4856ZM62.3625 65.4271C60.9255 65.3684 59.8124 64.0615 59.8817 62.5023C59.9483 60.9457 61.1759 59.7273 62.6129 59.7859C64.0476 59.8419 65.1631 61.1515 65.0939 62.7081C65.0273 64.2647 63.7997 65.4831 62.3651 65.4272L62.3625 65.4271Z" fill="black"/>
<path d="M62.3627 65.4271C63.7971 65.4857 65.0249 64.2647 65.0915 62.708C65.1632 61.1516 64.0477 59.842 62.6105 59.7859C61.1734 59.7272 59.9458 60.9457 59.8792 62.5023C59.81 64.0588 60.923 65.3684 62.3601 65.427L62.3627 65.4271ZM66.8521 62.8275C66.7356 65.4458 64.6903 67.4981 62.2908 67.4018C59.8887 67.3081 58.0304 65.1056 58.1469 62.4873C58.258 59.874 60.306 57.8192 62.708 57.9156C65.1076 58.0093 66.9632 60.2142 66.852 62.8301L66.8521 62.8275Z" fill="white"/>
<path d="M69.8832 88.0809C69.8832 88.0809 69.8968 88.066 69.9071 88.0665C69.9176 88.0618 69.9276 88.0674 69.9325 88.0728C70.0664 88.1717 70.1899 88.2753 70.305 88.3914C70.4078 88.4967 70.4708 88.626 70.5446 88.7455C70.5855 88.8041 70.6281 88.8783 70.6927 88.9225C70.7975 88.9891 70.9486 88.9494 70.9824 88.8373L71.0981 88.5248C71.1843 88.2885 71.5658 88.5817 71.6599 88.6556C72.4196 89.2058 72.5971 90.2439 73.1086 90.9767C73.1832 91.0808 73.3703 91.04 73.3663 90.9133C73.3577 90.4636 73.2771 90.0133 73.1389 89.5837C72.8743 88.7457 72.3779 87.9671 71.7047 87.333C71.5399 87.1811 71.3647 87.0313 71.181 86.8992C71.0615 86.819 70.9341 86.7436 70.7981 86.6859C71.2239 86.5499 71.6457 86.3931 72.0579 86.2203C72.2667 86.3664 72.4694 86.5303 72.6635 86.7145C74.0669 88.0783 74.7344 89.9748 74.4961 91.9344C74.43 92.4917 74.0801 92.6518 73.8799 92.6971C73.7501 92.7223 73.6163 92.7241 73.4891 92.6953C73.0314 92.5923 72.5863 92.1284 71.9985 91.3793C71.9622 91.3338 71.9357 91.2965 71.9162 91.2749C70.8992 90.0523 69.3964 89.2419 67.8236 88.7047C67.3358 88.5333 66.8409 88.4003 66.3357 88.2694L65.9765 88.2534C65.4631 88.339 64.9548 88.4275 64.4522 88.5549C62.836 88.9479 61.2598 89.6241 60.1241 90.7512C60.1026 90.7709 60.0726 90.8057 60.0345 90.8479C59.373 91.5389 58.8865 91.964 58.4206 92.0259C58.2912 92.0434 58.1607 92.0299 58.0314 91.9931C57.8365 91.9303 57.5039 91.7399 57.4931 91.1791C57.4465 89.2069 58.3007 87.3754 59.8297 86.1445C60.0411 85.9783 60.2591 85.833 60.4814 85.7061C60.8748 85.9146 61.2792 86.1082 61.6923 86.2814C61.5514 86.3242 61.4145 86.3879 61.2901 86.4598C61.0914 86.5775 60.905 86.7087 60.7234 86.8452C59.9906 87.4169 59.4222 88.1482 59.0736 88.959C58.8936 89.3744 58.7715 89.8157 58.7186 90.2627C58.7021 90.3885 58.8844 90.4456 58.9689 90.3487C59.5478 89.6643 59.8322 88.6441 60.6375 88.166C60.741 88.1009 61.1472 87.8426 61.2098 88.0856L61.2942 88.4069C61.3194 88.5216 61.4659 88.5746 61.5767 88.5176C61.6453 88.4819 61.6952 88.4092 61.7391 88.3544C61.8243 88.242 61.8998 88.1188 62.0151 88.0232C62.1386 87.9177 62.2742 87.8282 62.4175 87.739C62.4228 87.7341 62.4334 87.7294 62.4434 87.735C62.4536 87.7354 62.4582 87.746 62.4657 87.7515C62.4871 87.786 62.5059 87.823 62.5274 87.8549C62.5346 87.8655 62.5442 87.8789 62.5541 87.8871C62.5881 87.9273 62.6356 87.9552 62.6998 87.9581C62.8101 87.963 62.9117 87.9365 63.0085 87.9021C63.4636 87.7467 63.9374 87.6283 64.4081 87.5227C64.2467 87.4587 65.0457 87.3161 65.6258 87.285C65.6463 87.2859 65.6643 87.2867 65.6822 87.2875C65.6694 87.287 65.6591 87.2865 65.6461 87.2911C65.8177 87.3039 65.9971 87.317 66.1715 87.3248L66.2357 87.3276C66.4101 87.3354 66.59 87.3382 66.7596 87.3406C66.7468 87.34 66.7365 87.3395 66.7239 87.3338C66.7444 87.3347 66.7624 87.3355 66.7829 87.3364C67.3574 87.4187 68.1389 87.6316 67.9693 87.6809C68.43 87.8279 68.8901 87.9878 69.3253 88.1827C69.4184 88.2255 69.5195 88.261 69.6298 88.2659C69.7606 88.2717 69.8197 88.1685 69.8832 88.0809Z" fill="#0057C7"/>
<path d="M58.3945 82.3522C58.451 82.4035 58.5076 82.4547 58.5668 82.5036C58.5076 82.4547 58.4509 82.406 58.3945 82.3522Z" fill="#E0752D"/>
<path d="M55.6133 64.1177C55.4397 67.1646 57.2164 70.3937 63.8022 72.517C63.7739 72.5157 63.7534 72.5148 63.7329 72.5139C63.7226 72.5134 63.7126 72.5078 63.7049 72.5075C63.6667 72.5006 63.3181 72.4257 63.2824 72.419C63.2365 72.4118 63.1934 72.3996 63.1476 72.3898C63.0815 72.3739 63.0129 72.358 62.9443 72.342C62.8298 72.3163 62.7205 72.2908 62.6086 72.2651C62.4508 72.2323 62.2907 72.1942 62.1356 72.1589C62.0695 72.1431 62.001 72.1245 61.9348 72.1113C61.7063 72.052 61.4804 71.9929 61.252 71.9312C60.859 71.8182 60.4665 71.6974 60.085 71.5591C59.9257 71.5056 59.7693 71.4444 59.6153 71.3859C59.5446 71.3596 59.474 71.3306 59.4036 71.2991C59.3202 71.2695 59.2346 71.2322 59.1542 71.195C58.1273 70.744 57.1526 70.1223 56.3876 69.3163C56.3217 69.2462 56.2581 69.1789 56.1999 69.1091C56.0174 68.8996 55.8533 68.6806 55.7005 68.444C55.4853 68.1143 55.3176 67.7608 55.1868 67.3909C55.144 67.2677 55.1038 67.1445 55.0689 67.019C54.9991 66.7655 54.9424 66.5073 54.9012 66.2499C54.8051 65.644 54.7766 65.023 54.7832 64.4216C54.7838 64.2022 54.7948 63.978 54.8159 63.7595C54.831 63.5588 54.8563 63.3585 54.8842 63.1583C54.902 63.0584 54.9171 62.9609 54.9349 62.861C54.9862 62.5509 55.0553 62.2441 55.1425 61.9381C55.1942 61.7235 55.2611 61.5147 55.3355 61.3089C55.422 61.0674 55.5138 60.8236 55.623 60.5909C55.6669 60.4819 55.7159 60.3756 55.7673 60.272C55.8501 60.1053 55.9381 59.9387 56.0257 59.7774C56.1188 59.6111 56.2142 59.4501 56.3146 59.2919C56.3842 59.1839 56.4537 59.0786 56.5259 58.9707C56.7339 58.6624 56.965 58.3576 57.2129 58.0769C57.262 58.0196 57.311 57.965 57.3625 57.9105C57.5148 57.7417 57.6746 57.5784 57.8391 57.423C57.8958 57.3687 57.9524 57.317 58.0061 57.2703L58.0112 57.2705C58.1377 57.1574 58.2664 57.0495 58.4001 56.947C58.4642 56.8982 58.5336 56.847 58.603 56.7959C58.944 56.5554 59.3092 56.3444 59.6962 56.1628C58.8612 57.0346 55.8232 60.4423 55.6158 64.1204L55.6133 64.1177Z" fill="#E0752D"/>
<path d="M42.4761 69.4807C42.8231 68.5976 44.0379 68.1067 43.4314 67.8396C42.6557 67.9782 40.8159 68.6814 40.1515 68.9617C40.0831 68.9923 40.0199 68.9197 40.0538 68.8567C40.2878 68.441 40.6182 67.8438 41.0061 67.2774C40.8116 67.2068 40.4753 67.352 40.2434 67.3623C40.0105 67.0266 41.6339 66.4894 41.9252 66.1615C42.1157 65.4289 38.0632 66.9918 37.8985 66.3183C38.1907 65.9723 40.3476 65.0973 39.9885 64.4022C39.4536 64.6109 38.1061 63.5724 37.9751 63.0501C37.7179 61.9568 37.5215 61.3516 37.9346 61.37C42.2506 64.3633 48.183 63.7334 53.3161 64.6043C53.3398 66.103 53.6113 67.6334 54.2426 68.9602C54.5083 69.5168 54.8446 70.0482 55.2836 70.4782C55.7498 70.9302 56.3366 71.1809 56.9209 71.4289C58.0039 71.8876 59.14 72.2091 60.3 72.4104C58.2504 75.121 52.8413 76.2983 50.2041 73.9864C49.591 73.8533 48.0497 74.7608 48.3206 73.4405C48.4588 72.2046 47.8704 73.6529 47.8197 73.4828C47.6817 73.048 47.9199 72.5474 47.8879 72.1018C47.4187 71.5542 46.1697 72.9447 45.5852 73.1176C45.295 73.0066 45.4839 72.3565 45.3913 71.8902C45.3695 70.9778 44.7714 71.8937 44.7677 71.7076C44.7604 71.3354 45.2201 70.5141 45.2974 70.2516C44.9258 69.8607 43.2861 71.0944 42.7604 71.2208C42.4109 71.0607 42.964 70.0137 42.9157 69.4305C42.7437 69.4771 42.2134 69.8538 42.4788 69.4783L42.4761 69.4807Z" fill="#F18221"/>
<path d="M73.5441 73.0014C75.3175 75.8817 80.5869 77.5334 83.4379 75.4652C84.0614 75.387 85.5066 76.4273 85.367 75.0887C85.3538 73.8461 85.7943 75.3401 85.8615 75.1752C86.0417 74.7546 85.8566 74.2351 85.9349 73.7945C86.4561 73.2909 87.5624 74.786 88.1248 75.0098C88.4273 74.9251 88.3006 74.261 88.4389 73.805C88.5505 72.8985 89.0557 73.8634 89.0777 73.6784C89.1217 73.3086 88.745 72.4501 88.6965 72.182C89.1049 71.8257 90.6133 73.1992 91.1268 73.3718C91.4905 73.2434 91.0405 72.1518 91.1487 71.5756C91.3153 71.6373 91.8062 72.0593 91.579 71.6619C91.3231 70.7519 90.162 70.1555 90.7896 69.9433C91.5482 70.15 93.3107 71.0132 93.9445 71.3512C94.0096 71.3877 94.0771 71.321 94.0495 71.2552C93.8602 70.8207 93.5876 70.1967 93.2571 69.5984C93.4577 69.5454 93.7757 69.7196 94.0082 69.7506C94.2731 69.437 92.7098 68.7582 92.4521 68.4059C92.3321 67.6595 96.2153 69.5749 96.4432 68.9188C96.1863 68.5485 94.1277 67.4862 94.5512 66.8259C95.0657 67.0812 96.5071 66.1666 96.6917 65.6583C97.0555 64.5926 97.3081 64.0073 96.895 63.989C92.3054 66.5867 86.4585 65.4336 81.262 65.8457C81.0933 67.3358 80.6695 68.8353 79.9101 70.1004C79.5934 70.6311 79.2036 71.1302 78.7241 71.5195C78.2179 71.9282 77.609 72.1258 77.0002 72.3209C75.8767 72.6815 74.7139 72.901 73.5391 72.9986L73.5441 73.0014ZM62.865 52.8642C64.4408 52.4565 66.1189 52.2677 67.8334 52.3335L67.8564 52.3345C67.8564 52.3345 67.8613 52.3399 67.8665 52.3401C67.8718 52.3352 67.8718 52.3352 67.877 52.3354C67.8949 52.3362 67.9103 52.3369 67.9283 52.3377C67.9437 52.3384 67.9616 52.3392 67.9796 52.34C67.9796 52.34 67.9847 52.3402 67.9896 52.3456C67.9896 52.3456 67.995 52.3407 68.0001 52.3409L68.0232 52.3419C69.7392 52.4285 71.3888 52.7651 72.9175 53.3107C75.2217 54.1386 77.2346 55.4494 78.7467 57.1639C80.4729 59.1256 81.3645 61.7938 81.3506 64.4166C81.3475 64.4784 81.3442 64.5454 81.3412 64.6072C86.5834 64.2075 91.9488 65.0087 96.9631 62.6622C99.455 62.8659 98.3176 66.6834 96.6802 67.4007C98.0674 68.2602 98.3157 70.2079 96.4186 70.3534C96.0205 70.2918 95.4794 70.211 95.0432 70.2432C95.7616 71.2125 95.4649 72.8467 94.074 72.7901C93.5557 72.767 93.0856 72.2891 92.5282 72.4864C92.8164 74.929 91.8005 74.9329 89.7757 74.4867C89.3184 76.5604 88.6917 76.7547 86.801 75.9374C86.0329 77.1711 85.115 77.5873 83.7777 76.8617C82.4803 77.5684 81.0512 77.8174 79.6467 77.724C79.1469 80.1367 77.8674 82.1456 75.8645 83.859C74.7286 84.8362 73.4368 85.6361 72.0606 86.2205C71.6483 86.3932 71.2266 86.5501 70.8007 86.6861C69.7582 87.0219 68.6755 87.2321 67.5791 87.3047C67.3133 87.3239 67.0482 87.3302 66.7831 87.3339C66.7703 87.3333 66.7603 87.3277 66.75 87.3273C66.6229 87.2984 66.4936 87.2617 66.3637 87.2352L66.2201 87.2289C66.2201 87.2289 66.2124 87.2285 66.2072 87.2283C66.2021 87.2281 66.1995 87.2279 66.1944 87.2277L66.0507 87.2213C65.9213 87.2388 65.7865 87.2612 65.657 87.2787C65.6468 87.2783 65.6363 87.283 65.626 87.2825C65.3624 87.2579 65.0991 87.2255 64.8338 87.1828C63.7492 87.0158 62.6922 86.7081 61.6898 86.2814C61.2767 86.1081 60.8723 85.9146 60.4789 85.706C59.1663 85.0022 57.959 84.0913 56.9244 83.0176C55.1017 81.1344 54.0235 79.0182 53.7636 76.5743C52.3561 76.5428 50.9578 76.1682 49.7382 75.3497C48.3327 75.9535 47.4598 75.4577 46.8167 74.1613C44.8563 74.8075 44.2489 74.5585 43.9981 72.4533C41.9407 72.7182 40.9271 72.6241 41.4574 70.2179C40.9193 69.9719 40.4067 70.4062 39.8859 70.3831C38.4955 70.3161 38.3638 68.6629 39.172 67.7615C38.7409 67.6907 38.1942 67.7232 37.7918 67.7493C35.9173 67.4362 36.3593 65.5166 37.8224 64.7863C36.2629 63.9269 35.5068 60.0253 38.0079 60.0435C42.7715 62.8243 48.1923 62.5048 53.3696 63.3648C53.378 63.3006 53.3811 63.2362 53.3842 63.1743C53.629 60.5618 54.7797 57.9843 56.6917 56.1843C58.3662 54.6113 60.497 53.4846 62.8727 52.8645L62.865 52.8642ZM69.9898 72.8073C70.0364 72.8017 70.0854 72.7987 70.1191 72.7924C70.1294 72.7929 70.1399 72.7882 70.145 72.7884C70.1838 72.785 70.5382 72.7413 70.5744 72.7378C70.6208 72.7347 70.665 72.7263 70.7115 72.7206C70.7789 72.7107 70.8488 72.7009 70.9187 72.6911C71.0352 72.6756 71.1491 72.66 71.2604 72.6443C71.4208 72.6256 71.5839 72.6019 71.7444 72.5806C71.8118 72.5707 71.8818 72.5583 71.9465 72.5508C72.1824 72.5122 72.4106 72.4733 72.644 72.432C73.0438 72.3543 73.4466 72.2689 73.84 72.165C74.004 72.1258 74.1657 72.0788 74.3248 72.0342C74.4003 72.0143 74.4709 71.9916 74.5441 71.9665C74.63 71.9444 74.7189 71.9148 74.8027 71.885C75.8721 71.5271 76.9012 70.9944 77.7449 70.2598C78.0272 70.0116 78.2845 69.7467 78.5203 69.4499C78.8492 69.0385 79.0958 68.5743 79.287 68.0871C79.3841 67.8409 79.4659 67.5889 79.5299 67.3361C79.6878 66.7415 79.7799 66.1259 79.8327 65.5266C79.8538 65.3081 79.8648 65.0839 79.8654 64.8644C79.8676 64.6631 79.8647 64.4616 79.8567 64.2598C79.8539 64.159 79.8459 64.0605 79.8381 63.9595C79.8176 63.6461 79.779 63.3346 79.7224 63.0222C79.6895 62.8038 79.6435 62.5901 79.5922 62.3786C79.5299 62.1306 79.4626 61.8797 79.3768 61.6383C79.3438 61.5258 79.3029 61.4156 79.2645 61.308C79.1985 61.1346 79.1325 60.9613 79.056 60.7926C78.9848 60.6191 78.9032 60.4502 78.8188 60.2838C78.7627 60.1702 78.7014 60.0591 78.6401 59.9453C78.4659 59.62 78.2634 59.296 78.0443 58.9944C78.001 58.9331 77.9576 58.8744 77.9117 58.8156C77.7768 58.6314 77.6313 58.4545 77.4801 58.2877C77.4316 58.2287 77.3803 58.1722 77.3289 58.1209C77.2116 57.9969 77.0966 57.8782 76.9737 57.7643C76.9124 57.7022 76.8508 57.6478 76.784 57.5958C76.4143 57.2721 76.009 56.9907 75.5707 56.7543C74.6963 56.2894 73.7447 56.0328 72.7908 55.9801C71.4112 55.9034 70.0282 56.2602 68.8617 57.0734C68.535 57.3378 68.1026 57.4503 67.6852 57.4137C67.2663 57.4105 66.8467 57.2628 66.5474 56.9706C65.4663 56.0576 64.1219 55.5796 62.7408 55.5337C61.7884 55.5018 60.8132 55.6728 59.8993 56.0582C59.437 56.2546 59.011 56.499 58.6084 56.7884C58.5393 56.8344 58.47 56.883 58.4055 56.9395C58.2719 57.042 58.1432 57.1473 58.0167 57.2631L58.0115 57.2628C57.9578 57.3095 57.9013 57.3612 57.8446 57.4155C57.6776 57.5682 57.5153 57.7314 57.3654 57.9029C57.3138 57.9574 57.2648 58.0121 57.2132 58.0691C56.9653 58.3499 56.7344 58.6521 56.5262 58.963C56.454 59.0709 56.3845 59.1762 56.3149 59.2842C56.2145 59.4424 56.119 59.606 56.0312 59.7699C55.9384 59.931 55.853 60.0977 55.7727 60.2645C55.7188 60.368 55.6722 60.4769 55.6284 60.5835C55.5218 60.8163 55.4249 61.0598 55.341 61.3014C55.2692 61.5048 55.2022 61.7161 55.1479 61.9306C55.0582 62.2365 54.9916 62.5434 54.9403 62.8536C54.9225 62.9535 54.9048 63.0508 54.8947 63.1511C54.8643 63.3511 54.8415 63.5515 54.8265 63.7522C54.8054 63.9708 54.7943 64.1949 54.7938 64.4144C54.7871 65.0183 54.8155 65.6393 54.9143 66.2427C54.9556 66.5002 55.0122 66.7583 55.082 67.0119C55.1169 67.1374 55.1571 67.2605 55.1999 67.3838C55.3283 67.751 55.4959 68.107 55.7084 68.4366C55.8589 68.6706 56.0279 68.8924 56.213 69.102C56.2738 69.1718 56.3347 69.2417 56.4008 69.3092C57.1658 70.1152 58.1405 70.7369 59.1673 71.1879C59.2504 71.2226 59.3333 71.2624 59.4167 71.2919C59.4846 71.3233 59.5577 71.3524 59.6284 71.3788C59.7824 71.4373 59.9388 71.4984 60.0981 71.552C60.4823 71.6878 60.8722 71.811 61.2651 71.924C61.4935 71.9858 61.7194 72.0449 61.9479 72.1041C62.014 72.12 62.0827 72.1359 62.1487 72.1518C62.3063 72.1898 62.4665 72.2253 62.6218 72.258C62.7336 72.2836 62.8429 72.3091 62.9574 72.3349C63.026 72.3508 63.0945 72.3694 63.1607 72.3826C63.2065 72.3924 63.2496 72.4047 63.2956 72.4119C63.3312 72.4186 63.6772 72.4934 63.718 72.5003C63.7257 72.5007 63.7357 72.5063 63.746 72.5067C63.7765 72.5133 63.8198 72.5229 63.8657 72.5301C63.848 72.5242 63.8354 72.5185 63.8177 72.5125C63.8816 72.5205 63.9506 72.5287 63.9746 72.5634C64.0492 72.6674 63.9295 72.6956 63.832 72.6913C63.2835 72.6566 62.7365 72.6427 62.1874 72.6183C62.036 72.6115 61.8849 72.5997 61.7338 72.5878C60.477 74.6054 57.8755 76.1527 55.1275 76.5006C55.2238 77.4654 55.4758 78.4036 55.9529 79.2588C56.4654 80.1802 57.0866 81.034 57.8158 81.7843C57.8917 81.8625 57.9701 81.9409 58.0486 82.0167C58.1246 82.0923 58.2008 82.1629 58.2796 82.2335C58.3213 82.2741 58.3657 82.3122 58.4101 82.3503C58.4667 82.4019 58.5233 82.4535 58.5826 82.5026C58.7356 82.6333 58.8914 82.759 59.0525 82.8798C60.2747 83.8017 61.6812 84.4787 63.164 84.8596C64.2076 85.128 65.2378 85.3545 66.2985 85.4326L66.3036 85.4328L66.3088 85.4331C66.3088 85.4331 66.3165 85.4334 66.3216 85.4336C67.3829 85.4472 68.4335 85.3131 69.4964 85.1383C71.0129 84.8906 72.4775 84.3385 73.7876 83.5317C73.96 83.4258 74.1276 83.3119 74.2927 83.1978C74.3327 83.1686 74.3753 83.1395 74.4153 83.1103C74.4819 83.0642 74.5458 83.018 74.6101 82.9666C74.6981 82.9034 74.7863 82.835 74.8722 82.7614C74.9603 82.6956 75.0436 82.6244 75.1269 82.5506C75.9268 81.8709 76.6294 81.0758 77.2332 80.2015C77.7926 79.3923 78.1308 78.4804 78.3244 77.5284C75.6227 76.9385 73.1852 75.1673 72.1354 73.0472C71.9812 73.0456 71.8321 73.0441 71.6781 73.0373C71.1291 73.0129 70.5832 72.9757 70.0335 72.9642C69.9386 72.96 69.8196 72.9211 69.9041 72.8242C69.934 72.7919 70.0036 72.7899 70.0654 72.7875C70.0445 72.7943 70.029 72.7962 70.008 72.803L69.9898 72.8073ZM42.913 69.433C42.964 70.0137 42.4082 71.0632 42.7577 71.2233C43.2834 71.0969 44.9231 69.8632 45.2947 70.2541C45.2174 70.5166 44.7577 71.338 44.765 71.7101C44.7687 71.8962 45.3694 70.9804 45.3886 71.8927C45.4812 72.359 45.2923 73.0091 45.5825 73.1201C46.167 72.9472 47.416 71.5567 47.8852 72.1043C47.9197 72.55 47.6816 73.0507 47.817 73.4853C47.8677 73.6554 48.4561 72.2072 48.3179 73.443C48.047 74.7634 49.5883 73.8558 50.2015 73.9889C52.8386 76.3008 58.2477 75.1235 60.2973 72.4129C59.1399 72.2118 58.0038 71.8902 56.9182 71.4314C56.3313 71.1833 55.7446 70.9326 55.2809 70.4808C54.8419 70.0507 54.5056 69.5193 54.2399 68.9627C53.6062 67.6332 53.3372 66.1029 53.3134 64.6068C48.1803 63.7359 42.2454 64.3657 37.9319 61.3725C37.5189 61.3541 37.7127 61.9592 37.9724 63.0527C38.106 63.575 39.4509 64.6134 39.9858 64.4047C40.3424 65.0971 38.1881 65.9723 37.8958 66.3208C38.0605 66.9943 42.113 65.4314 41.9225 66.164C41.6312 66.4919 40.0104 67.0293 40.2407 67.3648C40.4726 67.3545 40.8064 67.2092 41.0034 67.2799C40.6129 67.8462 40.2826 68.4434 40.0512 68.8592C40.0171 68.9248 40.0829 68.9975 40.1488 68.9643C40.8108 68.6812 42.6532 67.9781 43.4287 67.8421C44.0354 68.1066 42.8206 68.5975 42.4734 69.4832C42.2054 69.8586 42.7383 69.4821 42.9103 69.4355L42.913 69.433Z" fill="#0057C7"/>
<path d="M71.7756 48.212C71.8564 48.1381 71.9334 48.1415 71.9372 48.0642C72.0949 47.9938 72.1102 47.6846 71.9601 47.6005C71.8831 47.5971 71.8869 47.5198 71.8869 47.5198C71.7368 47.4356 71.7483 47.2037 71.8291 47.1299C71.9099 47.056 71.9099 47.056 71.9099 47.056C72.0714 46.9082 72.0059 46.6729 71.7788 46.5854C71.7018 46.582 71.7057 46.5047 71.6287 46.5013C71.4786 46.4171 71.4092 46.2591 71.4938 46.108C71.4977 46.0307 71.5746 46.0341 71.5746 46.0341C71.6592 45.8829 71.5168 45.6442 71.3628 45.6374L71.2089 45.6305C71.0549 45.6237 70.9086 45.4623 70.997 45.2338C70.9996 45.1823 71.0278 45.1319 71.0817 45.0826C71.1663 44.9315 70.9468 44.6893 70.789 44.7598C70.7377 44.7575 70.6851 44.781 70.6313 44.8302C70.4735 44.9007 70.3272 44.7393 70.2579 44.5812L70.2655 44.4267C70.277 44.1948 70.0499 44.1072 69.8921 44.1777C69.8151 44.1743 69.8113 44.2516 69.8113 44.2516C69.6536 44.322 69.4265 44.2345 69.4341 44.0799C69.4379 44.0026 69.3609 43.9992 69.3648 43.9219C69.2954 43.7639 69.0683 43.6763 68.9106 43.7468L68.8298 43.8206C68.6682 43.9684 68.5181 43.8843 68.4487 43.7263C68.4526 43.649 68.3756 43.6455 68.3756 43.6455C68.3062 43.4875 67.9984 43.4739 67.9138 43.625C67.833 43.6989 67.8291 43.7762 67.7522 43.7728C67.6676 43.9239 67.5136 43.9171 67.3635 43.833C67.2172 43.6715 66.9825 43.7386 66.894 43.967C66.8915 44.0186 66.8645 44.0432 66.8132 44.0409C66.7286 44.1921 66.5709 44.2625 66.4207 44.1784C66.3438 44.175 66.3476 44.0977 66.3476 44.0977C66.1975 44.0136 65.9589 44.1579 65.9513 44.3125L65.9475 44.3898C65.9398 44.5444 65.7821 44.6148 65.6281 44.608L65.5511 44.6046C65.401 44.5204 65.1586 44.7421 65.228 44.9001L65.2242 44.9774C65.2935 45.1354 65.1319 45.2831 64.978 45.2763L64.901 45.2729C64.7471 45.266 64.5817 45.4911 64.651 45.6491C64.6472 45.7264 64.7241 45.7298 64.7241 45.7298C64.7935 45.8878 64.7089 46.039 64.5511 46.1094C64.4998 46.1071 64.4729 46.1318 64.4703 46.1833C64.3126 46.2538 64.228 46.4049 64.2935 46.6402C64.4398 46.8016 64.3552 46.9528 64.1974 47.0233C64.1166 47.0971 64.0396 47.0937 64.0358 47.171C63.8781 47.2415 63.8628 47.5507 64.0129 47.6348C64.0899 47.6382 64.0861 47.7155 64.0861 47.7155C64.2362 47.7996 64.2247 48.0315 64.1439 48.1054C64.0632 48.1793 64.0632 48.1793 64.0632 48.1793C63.9016 48.327 63.9671 48.5623 64.1942 48.6499C64.2712 48.6533 64.2673 48.7306 64.3443 48.734C64.4944 48.8181 64.5638 48.9761 64.4792 49.1273C64.4753 49.2046 64.3984 49.2012 64.3984 49.2012C64.3138 49.3523 64.4563 49.5911 64.6102 49.5979L64.7641 49.6047C64.9181 49.6116 65.0644 49.773 64.976 50.0015C64.9734 50.053 64.9452 50.1034 64.8914 50.1526C64.8067 50.3038 65.0262 50.5459 65.184 50.4755C65.2353 50.4778 65.2879 50.4543 65.3417 50.405C65.4995 50.3346 65.6458 50.496 65.7151 50.654L65.7075 50.8086C65.696 51.0405 65.9231 51.128 66.0809 51.0576C66.1579 51.061 66.1617 50.9837 66.1617 50.9837C66.3195 50.9132 66.5466 51.0008 66.5389 51.1554C66.5351 51.2327 66.6121 51.2361 66.6083 51.3134C66.6776 51.4714 66.9047 51.5589 67.0624 51.4885L67.1432 51.4146C67.3048 51.2669 67.4549 51.351 67.5243 51.509C67.5205 51.5863 67.5974 51.5897 67.5974 51.5897C67.6668 51.7477 67.9746 51.7614 68.0593 51.6102C68.14 51.5364 68.1439 51.4591 68.2208 51.4625C68.3054 51.3113 68.4594 51.3182 68.6095 51.4023C68.7558 51.5637 68.9906 51.4967 69.079 51.2682C69.0815 51.2167 69.1085 51.1921 69.1598 51.1943C69.2444 51.0432 69.4021 50.9727 69.5523 51.0568C69.6292 51.0603 69.6254 51.1376 69.6254 51.1376C69.7755 51.2217 70.0141 51.0774 70.0217 50.9228L70.0256 50.8455C70.0332 50.6909 70.191 50.6204 70.3449 50.6273L70.4219 50.6307C70.572 50.7148 70.8144 50.4932 70.745 50.3352L70.7488 50.2579C70.6795 50.0999 70.8411 49.9521 70.995 49.959L71.072 49.9624C71.2259 49.9692 71.3914 49.7442 71.322 49.5862C71.3258 49.5089 71.2489 49.5055 71.2489 49.5055C71.1795 49.3475 71.2641 49.1963 71.4219 49.1258C71.4732 49.1281 71.5001 49.1035 71.5027 49.052C71.6604 48.9815 71.7451 48.8303 71.6795 48.595C71.6102 48.437 71.6948 48.2859 71.7756 48.212Z" fill="#FBBA13"/>
<path d="M76.4559 61.3744L58.4984 60.5767C55.8018 60.4569 53.553 60.5894 53.6715 58.1908C53.9468 52.6179 59.1063 48.2715 65.1177 48.5386L70.8983 48.7953C76.9868 49.0658 81.6182 53.847 81.3429 59.4199C81.2975 61.8993 79.155 61.4943 76.4584 61.3745L76.4559 61.3744Z" fill="#80ABE3"/>
<path d="M78.7872 62.6399L69.9646 61.3959C68.1993 61.1626 66.3494 61.0804 64.4919 61.1528L55.7418 61.6163C55.5879 61.6094 55.4339 61.6026 55.2762 61.673C54.5026 61.7161 53.5726 61.7523 53.1337 61.268C52.6216 60.703 52.6828 59.4637 52.7248 58.6135C52.7363 58.3816 52.8285 58.0759 52.8438 57.7667C52.9399 57.3836 52.805 56.9903 52.9782 56.6081C53.0742 56.2251 53.4012 55.8523 53.7899 55.7921C54.0246 55.7251 54.2555 55.7353 54.4826 55.8229C55.3255 55.9378 56.19 55.6663 57.1213 55.5528C57.6639 55.4994 58.2091 55.4461 58.7518 55.3928C60.6131 55.2431 62.4706 55.1707 64.3975 55.2562C65.4815 55.2269 66.5591 55.2748 67.7162 55.3262C71.416 55.4905 75.1698 56.1221 78.8543 56.5956C79.6202 56.7071 80.3079 56.8925 81.0083 56.7687C81.397 56.7085 81.8588 56.729 82.1578 56.9747C82.3773 57.2168 82.5159 57.5329 82.4968 57.9193C82.5896 59.1654 82.5208 60.5567 82.0747 61.7789C81.7941 62.7761 80.4869 62.6379 79.6402 62.6003C79.2516 62.6605 79.0206 62.6503 78.7897 62.64L78.7872 62.6399Z" fill="#002C64"/>
<path opacity="0.17" d="M56.4438 58.3914C56.7191 52.8185 61.8785 48.4721 67.89 48.7392L71.9747 48.9206C71.5936 48.8262 71.2858 48.8125 70.8983 48.7953L65.1177 48.5386C59.0293 48.2681 53.9468 52.6179 53.6715 58.1908C53.5492 60.6667 55.7223 60.4534 58.4984 60.5767C57.1911 60.4412 56.3673 59.9398 56.4438 58.3914Z" fill="#2B73D0"/>
<path d="M78.8101 62.176L69.9875 60.9321C68.2222 60.6987 66.3724 60.6165 64.5148 60.689L55.7648 61.1524C55.6108 61.1456 55.4569 61.1387 55.2991 61.2092C54.5256 61.2523 53.5955 61.2884 53.1566 60.8041C52.6445 60.2392 52.7058 58.9999 52.7478 58.1496C52.7592 57.9178 52.8515 57.612 52.8667 57.3028C52.9628 56.9198 52.8279 56.5265 53.0011 56.1443C53.0972 55.7612 53.4242 55.3884 53.8128 55.3282C54.0476 55.2612 54.2785 55.2714 54.5056 55.359C55.3484 55.4739 56.213 55.2024 57.1443 55.0889C57.6869 55.0355 58.2321 54.9823 58.7747 54.9289C60.636 54.7792 62.4936 54.7068 64.4204 54.7924C65.5044 54.7631 66.582 54.8109 67.7392 54.8623C71.4389 55.0267 75.1928 55.6582 78.8773 56.1317C79.6432 56.2432 80.3309 56.4287 81.0312 56.3048C81.4199 56.2446 81.8817 56.2652 82.1807 56.5108C82.4002 56.753 82.5389 57.069 82.5198 57.4555C82.6125 58.7016 82.5438 60.0929 82.0977 61.315C81.817 62.3122 80.5099 62.1741 79.6632 62.1365C79.2707 62.274 79.0398 62.2637 78.8127 62.1762L78.8101 62.176Z" fill="#003A85"/>
</g>
<defs>
<clipPath id="clip0_977_15821">
<rect width="62.0925" height="48.9118" fill="white" transform="matrix(0.999018 0.0443755 -0.0493409 0.998785 37.3491 42.146)"/>
</clipPath>
</defs>
</svg>
