<svg width="158" height="157" viewBox="0 0 158 157" fill="none" xmlns="http://www.w3.org/2000/svg">
<path d="M80.24 5.36957L91.2566 19.7758L107.182 11.0961L109.478 9.84515L110.085 12.3881L114.29 30.0297L132.369 28.5786L134.975 28.3696L134.495 30.9399L131.161 48.7661L148.267 54.7944L150.734 55.6635L149.249 57.8159L138.953 72.7465L152.129 85.2094L154.028 87.0073L151.797 88.3696L136.317 97.8207L143.285 114.566L144.289 116.981L141.696 117.318L123.71 119.656L123.265 137.788L123.201 140.402L120.694 139.655L103.312 134.476L95.531 150.858L94.4089 153.22L92.4236 151.519L78.6511 139.718L64.8787 151.519L62.8933 153.22L61.7712 150.858L53.989 134.476L36.6082 139.655L34.1013 140.402L34.0369 137.788L33.5916 119.656L15.6062 117.318L13.0134 116.981L14.0173 114.566L20.9841 97.8207L5.50562 88.3696L3.27417 87.0073L5.17358 85.2094L18.3484 72.7465L8.05347 57.8159L6.56812 55.6635L9.03491 54.7944L26.1404 48.7661L22.8074 30.9399L22.3269 28.3696L24.9333 28.5786L43.0115 30.0297L47.2175 12.3881L47.824 9.84515L50.1199 11.0961L66.0447 19.7758L77.0623 5.36957L78.6511 3.29242L80.24 5.36957Z" fill="#0057C7" stroke="#F18221" stroke-width="4"/>
<ellipse cx="48.5287" cy="48.2552" rx="48.5287" ry="48.2552" transform="matrix(-0.376551 -0.926396 0.924286 -0.3817 52.6982 144.291)" fill="#0057C7"/>
<path d="M35.7377 92.5306L34.9674 87.5718C34.844 86.7777 34.8784 86.0576 35.0705 85.4116C35.2626 84.7656 35.5905 84.235 36.0543 83.8199C36.5181 83.4048 37.0905 83.1426 37.7716 83.0333C38.4619 82.9225 39.0913 82.9966 39.6598 83.2556C40.2269 83.5054 40.6997 83.9074 41.0782 84.4619C41.4568 85.0163 41.7085 85.6952 41.8333 86.4986L42.1345 88.4378L45.1602 87.9666L45.6228 90.9446L35.7377 92.5306ZM39.773 87.3545C39.7242 87.0405 39.632 86.7808 39.4963 86.5754C39.35 86.3623 39.1709 86.2112 38.9589 86.1222C38.7364 86.0254 38.4962 85.9977 38.2385 86.039C37.8428 86.1025 37.5513 86.2912 37.3643 86.6052C37.1758 86.9099 37.1181 87.2977 37.1913 87.7687L37.415 89.2092L39.9946 88.7811L39.773 87.3545ZM34.2454 78.9288L35.1739 71.8323L37.5152 72.1318L36.9653 76.3341L38.4753 76.5274L38.9524 72.8817L40.9888 73.1422L40.5118 76.7879L42.1881 77.0024L42.7561 72.661L45.1112 72.9624L44.1645 80.1981L34.2454 78.9288ZM36.483 67.0033L37.9232 63.8644L45.2219 63.3235L45.2336 63.298L39.4103 60.6234L40.5929 58.046L49.6768 62.2181L48.2307 65.3697L40.9506 65.9037L40.9389 65.9292L46.7495 68.5979L45.5669 71.1754L36.483 67.0033ZM43.7117 53.277L46.1266 50.8117L53.1644 52.7915L53.184 52.7714L48.6199 48.2663L50.6029 46.242L57.7224 53.2696L55.2977 55.7449L48.2797 53.7649L48.2601 53.785L52.8142 58.2803L50.8313 60.3046L43.7117 53.277ZM63.3794 50.1918C62.6006 50.5967 61.8576 50.8462 61.1503 50.9405C60.4389 51.0265 59.788 50.9443 59.1978 50.6938C58.6076 50.4434 58.1155 50.0158 57.7214 49.4111L59.9086 47.6907C60.1033 47.968 60.341 48.1756 60.6216 48.3136C60.898 48.4433 61.2007 48.5014 61.5297 48.4881C61.8627 48.4622 62.1908 48.3653 62.5139 48.1973C62.8039 48.0466 63.0374 47.8779 63.2145 47.6912C63.3874 47.4962 63.4977 47.3021 63.5456 47.109C63.6018 46.9116 63.5852 46.7258 63.4958 46.5514C63.3893 46.3439 63.1985 46.2276 62.9232 46.2025C62.648 46.1773 62.2654 46.2395 61.7754 46.3891L60.5423 46.7778C59.3673 47.1467 58.4268 47.2466 57.7208 47.0774C57.0106 46.8998 56.4597 46.4292 56.068 45.6656C55.7615 45.0679 55.6549 44.461 55.7481 43.8448C55.8496 43.2242 56.1286 42.6429 56.5851 42.1007C57.0417 41.5585 57.6345 41.0979 58.3636 40.7189C59.0181 40.3786 59.67 40.1765 60.3192 40.1123C60.9642 40.0399 61.5546 40.1168 62.0904 40.3429C62.6301 40.5565 63.0693 40.9012 63.4078 41.3771L61.2898 43.1404C61.1415 42.9126 60.9564 42.746 60.7344 42.6406C60.5165 42.5226 60.2847 42.4696 60.039 42.4817C59.7891 42.4854 59.544 42.5498 59.3037 42.6747C59.08 42.7909 58.9003 42.9317 58.7646 43.0968C58.6247 43.2537 58.5411 43.418 58.5138 43.5899C58.4865 43.7618 58.5133 43.9266 58.5942 44.0843C58.7049 44.3001 58.8833 44.4229 59.1294 44.4527C59.3796 44.4698 59.731 44.4081 60.1836 44.2675L61.4288 43.841C62.595 43.4345 63.5395 43.322 64.2623 43.5035C64.9933 43.6808 65.5589 44.1595 65.9591 44.9398C66.2912 45.5872 66.3983 46.236 66.2804 46.886C66.1708 47.5317 65.8629 48.1386 65.3567 48.7067C64.8588 49.2704 64.1997 49.7655 63.3794 50.1918ZM70.3835 43.636L65.8077 37.752L68.9158 37.1796L71.4097 40.7962L71.4372 40.7912L72.3816 36.5414L75.531 35.9614L73.3678 43.0864L73.9701 46.4528L70.9857 47.0024L70.3835 43.636ZM79.6817 35.7342L82.7034 35.9729L82.0913 43.4124L85.7258 43.6994L85.514 46.2725L78.8578 45.7468L79.6817 35.7342ZM88.5738 36.7541L91.5348 37.7606L91.1569 45.5352L91.1833 45.5442L95.6061 39.1446L98.5802 40.1556L91.9805 48.5286L88.6759 47.4053L88.5738 36.7541ZM103.631 43.5081L106.616 45.72L103.447 55.8791L100.9 53.9914L101.537 52.2799L98.8552 50.2925L97.3991 51.3969L94.8746 49.5259L103.631 43.5081ZM102.368 50.3283L103.769 46.475L103.746 46.4584L100.472 48.9229L102.368 50.3283ZM112.808 51.3237L114.732 54.1749L111.391 60.7223L111.406 60.7455L116.72 57.1189L118.3 59.4602L110.012 65.1173L108.079 62.2545L111.417 55.7266L111.401 55.7034L106.099 59.3221L104.519 56.9808L112.808 51.3237ZM120.514 63.602L121.549 66.4588L112.146 69.9258L111.111 67.069L120.514 63.602ZM123.035 73.662L123.48 77.3645L113.965 82.0745L113.585 78.9148L115.259 78.1965L114.858 74.8698L113.062 74.572L112.685 71.4401L123.035 73.662ZM117.239 77.4539L120.984 75.8121L120.981 75.7843L116.956 75.1016L117.239 77.4539Z" fill="#CBE0F2"/>
<path d="M56.6199 108.468L60.8497 111.132C61.5271 111.558 62.0447 112.056 62.4026 112.624C62.7604 113.192 62.9419 113.787 62.9469 114.41C62.952 115.032 62.7706 115.637 62.4026 116.224C62.0296 116.818 61.5582 117.246 60.9883 117.506C60.4263 117.771 59.8122 117.866 59.146 117.789C58.4799 117.712 57.8042 117.458 57.1189 117.027L55.4648 115.985L53.8194 118.581L51.2792 116.982L56.6199 108.468ZM57.8379 114.908C58.1057 115.077 58.3615 115.177 58.6052 115.209C58.8618 115.238 59.0935 115.201 59.3004 115.099C59.52 114.994 59.6995 114.831 59.8387 114.609C60.0526 114.268 60.1035 113.924 59.9915 113.577C59.8874 113.235 59.6345 112.938 59.2328 112.685L58.004 111.911L56.621 114.142L57.8379 114.908ZM70.1738 126.073C69.8307 125.987 69.5318 125.84 69.2771 125.632C69.0201 125.433 68.8186 125.184 68.6726 124.887C68.5356 124.593 68.4564 124.259 68.4348 123.888L68.3807 122.673C68.368 122.38 68.3009 122.132 68.1795 121.928C68.0671 121.726 67.8935 121.596 67.6587 121.538L66.697 121.297L65.8263 124.755L62.8869 124.02L65.3411 114.273L70.3801 115.533C71.1929 115.736 71.8573 116.033 72.3736 116.422C72.8989 116.814 73.2556 117.284 73.4438 117.833C73.6343 118.373 73.6462 118.974 73.4794 119.636C73.3743 120.054 73.1913 120.418 72.9306 120.729C72.679 121.042 72.3586 121.285 71.9695 121.458C71.5895 121.633 71.152 121.731 70.6572 121.752L70.6538 121.766C70.877 121.908 71.0347 122.083 71.1267 122.289C71.2211 122.486 71.2734 122.736 71.2839 123.037L71.3152 123.942C71.3238 124.099 71.3618 124.234 71.4292 124.347C71.4967 124.46 71.5936 124.533 71.7201 124.564C71.8284 124.591 71.9391 124.59 72.0522 124.561C72.1743 124.533 72.2862 124.489 72.3881 124.427L72.5398 125.883C72.2117 126.043 71.8421 126.138 71.4308 126.17C71.0173 126.212 70.5983 126.179 70.1738 126.073ZM68.8429 119.808C69.1229 119.878 69.3781 119.894 69.6087 119.855C69.8483 119.818 70.044 119.727 70.1957 119.582C70.3565 119.439 70.4655 119.254 70.5226 119.027C70.5821 118.791 70.5748 118.572 70.5008 118.37C70.4358 118.171 70.3064 117.999 70.1126 117.854C69.9277 117.711 69.6953 117.605 69.4154 117.535L67.7492 117.118L67.1768 119.391L68.8429 119.808ZM81.6685 126.956C80.5559 127.069 79.552 126.95 78.6568 126.598C77.77 126.237 77.0558 125.675 76.5142 124.913C75.9818 124.149 75.6645 123.237 75.5622 122.176C75.4591 121.106 75.5956 120.144 75.9719 119.288C76.3574 118.432 76.951 117.742 77.7525 117.22C78.5634 116.696 79.5251 116.378 80.6377 116.266C81.7596 116.152 82.7635 116.271 83.6494 116.623C84.5353 116.975 85.2491 117.533 85.7907 118.295C86.3323 119.058 86.6548 119.974 86.7579 121.044C86.8602 122.105 86.7186 123.063 86.333 123.92C85.9475 124.776 85.3544 125.47 84.5537 126.002C83.7521 126.525 82.7904 126.843 81.6685 126.956ZM81.4209 124.388C81.9401 124.336 82.3832 124.174 82.7502 123.902C83.1172 123.63 83.3876 123.278 83.5614 122.847C83.7342 122.407 83.7938 121.908 83.7399 121.349C83.6861 120.791 83.5324 120.313 83.2788 119.916C83.0252 119.519 82.6929 119.229 82.2819 119.045C81.8701 118.851 81.4046 118.781 80.8853 118.834C80.3754 118.885 79.9323 119.047 79.556 119.32C79.1881 119.583 78.9178 119.934 78.7449 120.375C78.5813 120.814 78.5264 121.313 78.5802 121.871C78.634 122.429 78.7831 122.908 79.0275 123.306C79.2802 123.693 79.6125 123.984 80.0243 124.177C80.4454 124.369 80.911 124.44 81.4209 124.388ZM96.1539 123.629C95.2618 124.057 94.4198 124.275 93.628 124.282C92.8407 124.277 92.141 124.065 91.5289 123.645C90.9168 123.224 90.4211 122.614 90.0419 121.812L87.4372 116.31L90.1768 114.994L92.7395 120.409C92.8912 120.729 93.0839 120.983 93.3175 121.171C93.5595 121.355 93.828 121.464 94.1231 121.499C94.4227 121.52 94.7323 121.455 95.0522 121.301C95.3636 121.151 95.601 120.955 95.7643 120.711C95.9277 120.467 96.0146 120.192 96.0251 119.887C96.0356 119.582 95.961 119.26 95.8013 118.923L93.2446 113.521L95.9841 112.206L98.5888 117.709C98.968 118.51 99.1228 119.284 99.0532 120.032C98.9919 120.776 98.7154 121.457 98.2234 122.076C97.7275 122.687 97.0376 123.204 96.1539 123.629ZM97.8784 111.539L101.113 108.571C102.414 107.376 103.705 106.779 104.984 106.782C106.27 106.778 107.452 107.368 108.53 108.553C109.245 109.339 109.698 110.156 109.889 111.005C110.081 111.841 110.005 112.681 109.662 113.527C109.32 114.36 108.715 115.174 107.847 115.971L104.613 118.939L97.8784 111.539ZM106.248 114.214C106.634 113.86 106.895 113.487 107.032 113.096C107.17 112.691 107.176 112.281 107.05 111.865C106.925 111.436 106.675 111.015 106.298 110.602C105.728 109.975 105.13 109.638 104.506 109.591C103.889 109.538 103.288 109.78 102.702 110.317L101.628 111.304L105.174 115.2L106.248 114.214Z" fill="#CBE0F2"/>
<mask id="mask0_977_16122" style="mask-type:luminance" maskUnits="userSpaceOnUse" x="54" y="57" width="50" height="50">
<path d="M96.0316 104.617L101.669 64.6747L61.8498 58.7933L56.2123 98.7357L96.0316 104.617Z" fill="white" stroke="white" stroke-width="3"/>
</mask>
<g mask="url(#mask0_977_16122)">
<path d="M89.5095 64.3425L99.936 65.88L98.1293 78.6599L93.3392 77.9535L93.2205 77.5754C91.7325 72.8332 87.908 69.5636 83.0032 68.8403L78.6504 68.1984C73.7444 67.475 69.1694 69.5075 66.4293 73.6278L66.2128 73.9534L61.4226 73.247L63.2292 60.4671L74.1564 62.0784" fill="#0057C7"/>
<path d="M89.5095 64.3425L99.936 65.88L98.1293 78.6599L93.3392 77.9535L93.2205 77.5754C91.7325 72.8332 87.908 69.5636 83.0032 68.8403L78.6504 68.1984C73.7444 67.475 69.1694 69.5075 66.4293 73.6278L66.2128 73.9534L61.4226 73.247L63.2292 60.4671L74.1564 62.0784" stroke="#CBE0F2" stroke-width="3" stroke-miterlimit="22.926" stroke-linecap="round" stroke-linejoin="round"/>
<path d="M72.9626 74.6892L86.5798 76.7032C87.9372 76.9039 88.8967 78.1548 88.7406 79.5203C87.9672 86.2828 88.6727 92.5455 90.4924 96.6932C91.9922 97.6679 92.8175 99.4553 92.6107 101.365C91.8271 102.92 84.6225 103.175 76.0833 101.913L76.0793 101.912L76.0761 101.912C67.5337 100.648 60.683 98.3139 60.3604 96.5953C60.4183 96.1846 61.1873 93.3676 63.7263 92.6854C66.6007 89.2292 68.9911 83.4473 70.1122 76.7651C70.3395 75.4101 71.6051 74.4884 72.9626 74.6892Z" fill="#0057C7" stroke="#CBE0F2" stroke-width="3" stroke-miterlimit="22.926" stroke-linecap="round" stroke-linejoin="round"/>
<path d="M73.2786 89.5483L72.35 96.1227L76.2253 101.433" fill="#0057C7"/>
<path d="M73.2786 89.5483L72.35 96.1227L76.2253 101.433" stroke="#CBE0F2" stroke-width="3" stroke-miterlimit="22.926" stroke-linecap="round" stroke-linejoin="round"/>
<path d="M84.8139 69.2109L83.8241 76.2344L75.8093 75.0489L76.7992 68.0254" fill="#0057C7"/>
<path d="M84.8139 69.2109L83.8241 76.2344L75.8093 75.0489L76.7992 68.0254" stroke="#CBE0F2" stroke-width="3" stroke-miterlimit="22.926" stroke-linecap="round" stroke-linejoin="round"/>
<path d="M84.5221 69.5668L90.1734 62.7061L73.4874 60.2424L77.0101 68.4576" fill="#0057C7"/>
<path d="M84.5221 69.5668L90.1734 62.7061L73.4874 60.2424L77.0101 68.4576" stroke="#CBE0F2" stroke-width="3" stroke-miterlimit="22.926" stroke-linecap="round" stroke-linejoin="round"/>
<path d="M70.0808 81.102L87.9266 83.6991L70.0808 81.102Z" fill="#0057C7"/>
<path d="M70.0808 81.102L87.9266 83.6991" stroke="#CBE0F2" stroke-width="3" stroke-miterlimit="22.926" stroke-linecap="round" stroke-linejoin="round"/>
</g>
</svg>
