<svg width="163" height="163" viewBox="0 0 163 163" fill="none" xmlns="http://www.w3.org/2000/svg">
<path d="M92.5124 11.1243L101.78 28.2557L120.129 21.7236L121.628 41.1434L141.048 42.6394L134.518 60.9897L151.65 70.2553L138.221 84.3631L150.104 99.796L132.098 107.222L136.676 126.154L117.206 125.614L113.688 144.771L96.1211 136.359L85.1155 152.429L72.4886 137.599L55.8982 147.804L50.3949 129.12L31.0883 131.694L33.6603 112.387L14.9757 106.886L25.1782 90.2943L10.3464 77.6693L26.4153 66.6617L18.0009 49.0955L37.1577 45.5754L36.6156 26.1055L55.5479 30.6815L62.9718 12.6743L78.4061 24.5551L92.5124 11.1243Z" fill="#F18221"/>
<ellipse cx="47.6517" cy="47.3149" rx="47.6517" ry="47.3149" transform="matrix(-0.228034 -0.973653 0.972838 -0.231486 46.6644 139.496)" fill="#F18221"/>
<path d="M125.302 90.5411L124.412 94.3193L113.489 95.4405L114.249 92.2163L116.131 92.1267L116.93 88.732L115.293 87.7848L116.046 84.589L125.302 90.5411ZM118.319 92.1255L122.543 91.8911L122.549 91.8627L118.885 89.7251L118.319 92.1255Z" fill="white"/>
<path d="M126.361 79.6046L126.403 82.7723L116.034 82.9139L115.991 79.7463L126.361 79.6046Z" fill="white"/>
<path d="M122.777 64.7575L123.744 68.2138L118.337 73.5742L118.345 73.6023L124.743 71.7825L125.538 74.6206L115.557 77.4593L114.586 73.989L119.983 68.6466L119.975 68.6185L113.591 70.4343L112.796 67.5962L122.777 64.7575Z" fill="white"/>
<path d="M116.031 53.9206L118.312 57.0502L112.089 66.1679L110.143 63.4972L111.293 61.9933L109.244 59.1813L107.468 59.8263L105.539 57.1791L116.031 53.9206ZM112.709 60.311L115.266 56.9146L115.249 56.891L111.26 58.3227L112.709 60.311Z" fill="white"/>
<path d="M102.911 42.5624L105.571 44.4348L102.979 52.1014L103.003 52.1181L109.228 47.0095L111.9 48.8903L102.946 55.3365L99.9775 53.2467L102.911 42.5624Z" fill="white"/>
<path d="M94.1699 38.9838L97.1256 40.0608L94.5062 47.3647L98.0613 48.66L97.1553 51.1862L90.6446 48.814L94.1699 38.9838Z" fill="white"/>
<path d="M82.7028 44.4306L79.6344 37.2876L82.8984 37.5354L84.4648 41.8413L84.4937 41.8435L86.5379 37.8117L89.8452 38.0627L85.8368 44.6685L85.5714 48.2206L82.4374 47.9827L82.7028 44.4306Z" fill="white"/>
<path d="M74.0139 49.2517C73.1317 49.4665 72.3232 49.5333 71.5885 49.4519C70.8515 49.3611 70.2164 49.1153 69.6833 48.7145C69.1501 48.3137 68.7587 47.7582 68.509 47.048L71.1283 45.8543C71.2569 46.1835 71.4457 46.4529 71.6946 46.6626C71.9413 46.8628 72.2318 46.9973 72.5662 47.0661C72.9076 47.1231 73.2614 47.107 73.6274 47.0179C73.9559 46.9379 74.232 46.8256 74.4556 46.681C74.6769 46.527 74.8351 46.3583 74.9303 46.1749C75.0347 45.9892 75.0632 45.7971 75.0156 45.5984C74.9589 45.3619 74.795 45.1965 74.5241 45.1023C74.2532 45.0081 73.853 44.9754 73.3235 45.0043L71.9879 45.0893C70.7157 45.1689 69.7448 45.0349 69.0754 44.6873C68.4038 44.3302 67.9636 43.7165 67.7549 42.8462C67.5917 42.165 67.6318 41.5245 67.8754 40.9245C68.1283 40.3222 68.5504 39.8039 69.1416 39.3695C69.7328 38.9351 70.4414 38.6174 71.2673 38.4162C72.0087 38.2356 72.714 38.194 73.383 38.2914C74.0498 38.3793 74.6253 38.6046 75.1095 38.9672C75.6009 39.3181 75.9592 39.7765 76.1843 40.3425L73.6241 41.5969C73.5302 41.3294 73.3843 41.1146 73.1866 40.9525C72.9959 40.7787 72.7754 40.6671 72.5252 40.618C72.2728 40.5593 72.0105 40.5631 71.7383 40.6294C71.4849 40.6911 71.2698 40.7886 71.0931 40.9217C70.9142 41.0454 70.7901 41.1908 70.7209 41.3578C70.6517 41.5249 70.6386 41.6983 70.6817 41.878C70.7407 42.124 70.8904 42.2928 71.1309 42.3844C71.3785 42.4642 71.7472 42.4896 72.2368 42.4604L73.5937 42.3402C74.8663 42.2205 75.8443 42.3427 76.5276 42.707C77.2203 43.0689 77.6733 43.6945 77.8864 44.5838C78.0633 45.3216 78.0135 46.0046 77.7369 46.6327C77.4698 47.2585 77.0124 47.7954 76.3649 48.2435C75.7267 48.6893 74.9431 49.0253 74.0139 49.2517Z" fill="white"/>
<path d="M53.436 47.6845L56.4375 45.7495L63.0942 49.4122L63.1186 49.3965L59.5367 43.7516L62.0013 42.1627L67.5888 50.9683L64.5751 52.9112L57.9385 49.2528L57.9141 49.2686L61.4882 54.9012L59.0235 56.4901L53.436 47.6845Z" fill="white"/>
<path d="M43.0718 60.2313L45.1841 57.3392L52.7014 58.3493L52.7186 58.3257L47.3651 54.3531L49.0996 51.9783L57.4506 58.1753L55.3298 61.0791L47.8326 60.066L47.8154 60.0895L53.1573 64.0535L51.4228 66.4283L43.0718 60.2313Z" fill="white"/>
<path d="M38.4203 72.1447L40.7042 65.0642L43.0319 65.8271L41.6795 70.0198L43.1808 70.5118L44.3541 66.8744L46.3789 67.538L45.2055 71.1754L46.8722 71.7216L48.2694 67.39L50.6109 68.1574L48.2822 75.3767L38.4203 72.1447Z" fill="white"/>
<path d="M37.5656 86.5462L37.6201 81.3202C37.6288 80.4832 37.7861 79.7501 38.092 79.1206C38.3979 78.4912 38.823 78.0042 39.3674 77.6596C39.9117 77.315 40.5411 77.1465 41.2556 77.154C41.9797 77.1617 42.6102 77.3484 43.1472 77.7142C43.6842 78.0703 44.0991 78.5662 44.3918 79.202C44.6845 79.8377 44.8264 80.5789 44.8176 81.4256L44.7963 83.4693L47.9678 83.5175L47.9351 86.6561L37.5656 86.5462ZM42.5672 81.942C42.5706 81.6111 42.5205 81.3283 42.4167 81.0936C42.3034 80.8491 42.146 80.6625 41.9445 80.5338C41.7336 80.3953 41.4929 80.3246 41.2226 80.3218C40.8074 80.3174 40.4776 80.4599 40.2332 80.7493C39.9889 81.0289 39.8641 81.4169 39.8589 81.9133L39.8431 83.4314L42.5515 83.4455L42.5672 81.942Z" fill="white"/>
<path d="M102.507 109.441L105.447 105.962C106.63 104.562 107.879 103.781 109.195 103.619C110.518 103.45 111.811 103.909 113.075 104.994C113.913 105.713 114.486 106.499 114.793 107.351C115.1 108.189 115.132 109.067 114.89 109.984C114.646 110.887 114.13 111.806 113.342 112.739L110.402 116.218L102.507 109.441ZM111.467 111.13C111.818 110.715 112.038 110.297 112.128 109.876C112.216 109.44 112.169 109.016 111.985 108.603C111.801 108.176 111.488 107.773 111.047 107.395C110.378 106.82 109.719 106.549 109.071 106.581C108.429 106.605 107.842 106.932 107.31 107.562L106.334 108.718L110.49 112.286L111.467 111.13Z" fill="white"/>
<path d="M94.5361 114.518L100.698 110.412L102.048 112.47L98.399 114.901L99.2695 116.229L102.435 114.119L103.609 115.91L100.444 118.019L101.41 119.492L105.18 116.981L106.537 119.051L100.255 123.237L94.5361 114.518Z" fill="white"/>
<path d="M87.8468 119.019L85.0371 119.841L84.2945 117.261L92.9185 114.739L93.6611 117.318L90.8513 118.14L92.9984 125.599L89.9939 126.478L87.8468 119.019Z" fill="white"/>
<path d="M78.7414 127.489C77.8342 127.462 77.0368 127.312 76.3493 127.038C75.6621 126.755 75.1137 126.349 74.7042 125.821C74.2947 125.293 74.0623 124.653 74.007 123.902L76.8459 123.446C76.8838 123.797 76.9955 124.107 77.1808 124.376C77.3664 124.634 77.6115 124.841 77.9161 124.997C78.2306 125.142 78.5761 125.221 78.9525 125.232C79.2903 125.242 79.5859 125.207 79.8394 125.127C80.0932 125.037 80.2899 124.916 80.4296 124.765C80.5789 124.613 80.6566 124.435 80.6626 124.231C80.6697 123.988 80.5549 123.785 80.3182 123.622C80.0815 123.459 79.704 123.321 79.1856 123.209L77.8751 122.936C76.627 122.675 75.7255 122.288 75.1706 121.775C74.616 121.252 74.3518 120.543 74.378 119.648C74.3985 118.947 74.6047 118.34 74.9965 117.826C75.398 117.312 75.9406 116.924 76.6245 116.662C77.3084 116.4 78.075 116.282 78.9243 116.307C79.6867 116.33 80.3779 116.477 80.9978 116.749C81.6181 117.011 82.1143 117.381 82.4867 117.859C82.869 118.328 83.0948 118.866 83.1639 119.471L80.3664 120.002C80.3457 119.719 80.2611 119.473 80.1127 119.264C79.9742 119.045 79.7907 118.879 79.5622 118.765C79.334 118.642 79.08 118.576 78.8001 118.567C78.5395 118.56 78.3066 118.597 78.1013 118.678C77.8964 118.75 77.7387 118.857 77.6282 119C77.5178 119.143 77.4598 119.306 77.4544 119.491C77.447 119.744 77.5473 119.947 77.7554 120.099C77.9734 120.242 78.3224 120.364 78.8024 120.466L80.1427 120.711C81.4017 120.933 82.3131 121.311 82.8771 121.844C83.4507 122.377 83.7241 123.1 83.6973 124.015C83.675 124.774 83.4484 125.419 83.0175 125.952C82.5961 126.484 82.0146 126.881 81.2728 127.141C80.5407 127.402 79.6969 127.518 78.7414 127.489Z" fill="white"/>
<path d="M67.1414 113.352L70.7464 114.722L70.4628 125.785L67.3864 124.616L67.5372 122.723L64.2982 121.492L63.1581 123.009L60.1088 121.85L67.1414 113.352ZM67.8139 120.534L68.1196 116.282L68.0925 116.272L65.5235 119.664L67.8139 120.534Z" fill="white"/>
<path d="M52.8714 116.063C51.9938 115.301 51.3668 114.454 50.9903 113.523C50.6274 112.591 50.5373 111.645 50.7202 110.686C50.9103 109.733 51.3647 108.837 52.0834 107.996C52.8085 107.149 53.6244 106.56 54.5312 106.23C55.4454 105.906 56.3834 105.86 57.3452 106.092C58.3143 106.33 59.2377 106.831 60.1153 107.593C61.0002 108.362 61.6272 109.209 61.9964 110.134C62.3656 111.059 62.4588 112 62.276 112.959C62.0931 113.919 61.6392 114.822 60.9142 115.67C60.1955 116.51 59.379 117.092 58.4649 117.416C57.5507 117.739 56.6096 117.789 55.6415 117.564C54.6797 117.332 53.7563 116.832 52.8714 116.063ZM54.6114 114.029C55.021 114.384 55.4581 114.604 55.9229 114.686C56.3877 114.769 56.8429 114.721 57.2885 114.543C57.7404 114.357 58.1555 114.043 58.5337 113.601C58.912 113.159 59.1589 112.699 59.2744 112.221C59.3899 111.743 59.3697 111.282 59.2139 110.838C59.0643 110.387 58.7848 109.984 58.3752 109.628C57.973 109.278 57.5358 109.059 57.0638 108.97C56.6053 108.88 56.1501 108.928 55.6982 109.113C55.2536 109.305 54.8422 109.623 54.4639 110.065C54.0856 110.507 53.8351 110.964 53.7123 111.436C53.6031 111.906 53.6233 112.367 53.7728 112.818C53.9297 113.276 54.2092 113.679 54.6114 114.029Z" fill="white"/>
<path d="M45.3766 106.69C45.1987 106.367 45.0981 106.034 45.075 105.69C45.0434 105.352 45.0877 105.021 45.208 104.698C45.333 104.383 45.5279 104.085 45.7926 103.804L46.6683 102.897C46.8795 102.679 47.0189 102.451 47.0866 102.212C47.159 101.983 47.1344 101.757 47.0126 101.536L46.514 100.63L43.2967 102.428L41.7726 99.6572L50.8418 94.5884L53.4545 99.3379C53.8759 100.104 54.1225 100.823 54.1941 101.495C54.2705 102.176 54.1687 102.784 53.8888 103.318C53.6173 103.849 53.1734 104.286 52.5569 104.63C52.1685 104.847 51.7651 104.967 51.3468 104.99C50.9332 105.02 50.5239 104.949 50.1189 104.774C49.7186 104.609 49.3357 104.344 48.9703 103.981L48.9576 103.988C49.008 104.26 48.9881 104.505 48.8979 104.722C48.8161 104.935 48.6654 105.153 48.4458 105.376L47.7869 106.044C47.6752 106.162 47.6005 106.288 47.5629 106.42C47.5253 106.552 47.5393 106.678 47.6048 106.797C47.661 106.899 47.7402 106.983 47.8424 107.048C47.9492 107.122 48.0617 107.176 48.1798 107.21L47.1914 108.364C46.8398 108.226 46.5066 108.012 46.1917 107.72C45.8684 107.434 45.5967 107.09 45.3766 106.69ZM49.1512 101.209C49.2963 101.473 49.465 101.679 49.6571 101.827C49.8539 101.985 50.0606 102.069 50.2773 102.082C50.4986 102.103 50.7148 102.054 50.9259 101.936C51.1454 101.814 51.305 101.652 51.4046 101.452C51.5088 101.26 51.547 101.038 51.5191 100.787C51.4958 100.544 51.4116 100.29 51.2665 100.027L50.4026 98.4562L48.2873 99.6385L49.1512 101.209Z" fill="white"/>
<mask id="mask0_1099_20901" style="mask-type:luminance" maskUnits="userSpaceOnUse" x="55" y="56" width="54" height="54">
<path d="M94.6868 107.696L106.225 69.9321L68.5615 58.1021L57.0231 95.8664L94.6868 107.696Z" fill="white" stroke="white" stroke-width="3"/>
</mask>
<g mask="url(#mask0_1099_20901)">
<path d="M94.5185 67.6986L104.393 70.796L100.687 82.9103L96.15 81.4873L96.0927 81.1023C95.3752 76.2745 92.167 72.5148 87.5219 71.0578L83.3995 69.7647C78.7532 68.3073 74.0064 69.5733 70.7193 73.1467L70.4596 73.429L65.923 72.006L69.6294 59.8917L79.978 63.1377" fill="#F18221"/>
<path d="M94.5185 67.6986L104.393 70.796L100.687 82.9103L96.15 81.4873L96.0927 81.1023C95.3752 76.2745 92.167 72.5148 87.5219 71.0578L83.3995 69.7647C78.7532 68.3073 74.0064 69.5733 70.7193 73.1467L70.4596 73.429L65.923 72.006L69.6294 59.8917L79.978 63.1377" stroke="white" stroke-width="3" stroke-miterlimit="22.926" stroke-linecap="round" stroke-linejoin="round"/>
<path d="M76.9037 75.1814L89.7994 79.2321C91.0849 79.6359 91.8243 80.9957 91.4643 82.2947C89.6818 88.7276 89.4094 94.9042 90.5404 99.2033C91.8457 100.379 92.373 102.238 91.8808 104.056C90.8836 105.442 83.859 104.579 75.7722 102.039L75.7684 102.038L75.7653 102.037C67.6755 99.496 61.3896 96.1779 61.3393 94.463C61.4581 94.0741 62.634 91.4632 65.2 91.1937C68.5147 88.2882 71.7155 83.0547 73.8229 76.7533C74.2503 75.4755 75.6181 74.7776 76.9037 75.1814Z" fill="#F18221" stroke="white" stroke-width="3" stroke-miterlimit="22.926" stroke-linecap="round" stroke-linejoin="round"/>
<path d="M74.947 89.6285L73.0429 95.8542L75.9863 101.595" fill="#F18221"/>
<path d="M74.947 89.6285L73.0429 95.8542L75.9863 101.595" stroke="white" stroke-width="3" stroke-miterlimit="22.926" stroke-linecap="round" stroke-linejoin="round"/>
<path d="M89.2222 71.6976L87.1899 78.3496L79.6 75.9655L81.6322 69.3134" fill="#F18221"/>
<path d="M89.2222 71.6976L87.1899 78.3496L79.6 75.9655L81.6322 69.3134" stroke="white" stroke-width="3" stroke-miterlimit="22.926" stroke-linecap="round" stroke-linejoin="round"/>
<path d="M88.8805 71.9976L95.4089 66.218L79.6062 61.2583L81.7662 69.7648" fill="#F18221"/>
<path d="M88.8805 71.9976L95.4089 66.218L79.6062 61.2583L81.7662 69.7648" stroke="white" stroke-width="3" stroke-miterlimit="22.926" stroke-linecap="round" stroke-linejoin="round"/>
<path d="M73.1298 80.9443L90.0297 86.2214L73.1298 80.9443Z" fill="#F18221"/>
<path d="M73.1298 80.9443L90.0297 86.2214" stroke="white" stroke-width="3" stroke-miterlimit="22.926" stroke-linecap="round" stroke-linejoin="round"/>
</g>
</svg>
