<svg width="117" height="116" viewBox="0 0 117 116" fill="none" xmlns="http://www.w3.org/2000/svg">
<path d="M65.7165 6.22264C94.6426 10.1394 114.917 36.3748 110.92 64.8813C106.923 93.3878 80.1846 113.258 51.2584 109.341C22.3322 105.424 2.05792 79.1888 6.05477 50.6823C10.0516 22.1757 36.7902 2.30595 65.7165 6.22264Z" fill="#0057C7" stroke="#CBE0F2" stroke-width="4"/>
<path d="M76.3599 86.4145L80.3748 82.8282C81.0178 82.2539 81.6853 81.8649 82.3775 81.6612C83.0697 81.4575 83.7366 81.4436 84.3783 81.6194C85.02 81.7953 85.5869 82.1582 86.0792 82.7083C86.5781 83.2657 86.8755 83.8762 86.9714 84.5395C87.0747 85.1962 86.9865 85.8568 86.7068 86.5213C86.427 87.1858 85.9619 87.8086 85.3114 88.3896L83.7414 89.7921L85.9154 92.2439L83.5042 94.3977L76.3599 86.4145ZM83.3499 87.0321C83.6041 86.805 83.7843 86.5705 83.8906 86.3284C83.9977 86.0723 84.03 85.8227 83.9875 85.5798C83.9458 85.3228 83.8318 85.0902 83.6456 84.8821C83.3596 84.5625 83.0212 84.4099 82.6306 84.4244C82.2475 84.4323 81.8653 84.6065 81.484 84.9471L80.3177 85.9889L82.1948 88.0639L83.3499 87.0321Z" fill="#CBE0F2"/>
<path d="M74.7599 99.1011C73.7952 99.5463 72.8875 99.7673 72.0369 99.7642C71.1913 99.7478 70.4429 99.5108 69.7917 99.0531C69.1405 98.5955 68.6173 97.9359 68.2219 97.0745L65.5067 91.158L68.4691 89.7912L71.1407 95.6124C71.2988 95.957 71.5019 96.2314 71.75 96.4355C72.0072 96.6355 72.294 96.7559 72.6105 96.7966C72.9319 96.8241 73.2656 96.7581 73.6114 96.5985C73.9482 96.4432 74.2061 96.2362 74.3853 95.9778C74.5644 95.7193 74.6619 95.4271 74.6777 95.1012C74.6936 94.7752 74.6183 94.4309 74.4518 94.0682L71.7865 88.2605L74.749 86.8937L77.4642 92.8102C77.8595 93.6716 78.0142 94.5012 77.9282 95.299C77.8512 96.0926 77.5439 96.8168 77.0062 97.4714C76.4643 98.117 75.7156 98.6602 74.7599 99.1011Z" fill="#CBE0F2"/>
<path d="M53.5218 93.9444L50.4934 93.8073L50.6319 91.0521L59.9271 91.4731L59.7885 94.2282L56.7601 94.0911L56.3596 102.057L53.1213 101.91L53.5218 93.9444Z" fill="#CBE0F2"/>
<path d="M42.1683 99.3363C41.2871 99.0117 40.5546 98.6032 39.9708 98.1108C39.3905 97.609 38.9869 97.0336 38.7602 96.3847C38.5334 95.7358 38.5174 95.0365 38.7122 94.2868L41.6486 94.7764C41.5693 95.1313 41.5761 95.4698 41.669 95.7921C41.7654 96.1049 41.9373 96.3869 42.1847 96.6381C42.445 96.8833 42.7579 97.0733 43.1235 97.2079C43.4516 97.3288 43.7533 97.3919 44.0285 97.3973C44.3073 97.3933 44.5403 97.3405 44.7276 97.2388C44.9243 97.1405 45.0594 96.993 45.133 96.7961C45.2206 96.5616 45.1752 96.3262 44.9969 96.0899C44.8187 95.8535 44.4939 95.5952 44.0228 95.315L42.8273 94.6186C41.6893 93.954 40.9331 93.2808 40.5587 92.5988C40.1878 91.9075 40.1636 91.1305 40.4859 90.2678C40.7382 89.5926 41.1417 89.0692 41.6965 88.6975C42.2607 88.3293 42.9217 88.1301 43.6795 88.0998C44.4372 88.0696 45.2286 88.2065 46.0535 88.5103C46.7941 88.7831 47.4234 89.1536 47.9416 89.6219C48.4634 90.0808 48.8276 90.6043 49.0344 91.1925C49.254 91.7748 49.2974 92.3722 49.1646 92.9846L46.2441 92.5809C46.3176 92.2986 46.3161 92.0314 46.2397 91.7792C46.1762 91.5211 46.0512 91.2991 45.8648 91.1131C45.6819 90.9177 45.4545 90.7699 45.1826 90.6698C44.9295 90.5765 44.6888 90.5358 44.4604 90.5477C44.2355 90.5502 44.0452 90.6028 43.8896 90.7055C43.7339 90.8082 43.6228 90.9486 43.5562 91.1267C43.4651 91.3705 43.4964 91.6007 43.6501 91.8174C43.8166 92.0281 44.1185 92.2619 44.5556 92.519L45.7897 93.1976C46.9511 93.8281 47.7202 94.4955 48.097 95.1996C48.4831 95.9072 48.5114 96.7018 48.1821 97.5832C47.9088 98.3146 47.4725 98.8686 46.8732 99.2453C46.2833 99.6254 45.5813 99.8201 44.7673 99.8296C43.9626 99.8426 43.0963 99.6782 42.1683 99.3363Z" fill="#CBE0F2"/>
<path d="M34.7341 81.6093L40.7881 86.2589L39.2353 88.2695L35.6504 85.5163L34.6489 86.8131L37.759 89.2017L36.4083 90.9506L33.2982 88.562L32.1865 90.0016L35.8901 92.8461L34.3281 94.8686L28.1554 90.1279L34.7341 81.6093Z" fill="#CBE0F2"/>
<path d="M24.0128 84.9292C23.799 84.6162 23.6641 84.2855 23.6081 83.9371C23.5439 83.5943 23.5587 83.2518 23.6527 82.9096C23.7523 82.5756 23.9256 82.2517 24.1725 81.9378L24.9917 80.9244C25.1893 80.6805 25.312 80.4335 25.3596 80.1834C25.4129 79.9415 25.3664 79.7135 25.22 79.4994L24.6207 78.6223L21.4679 80.7786L19.6361 78.098L28.5235 72.0196L31.6638 76.615C32.1703 77.3562 32.4919 78.0667 32.6286 78.7466C32.771 79.4347 32.7227 80.0659 32.4838 80.6402C32.2531 81.2088 31.8357 81.6997 31.2316 82.1128C30.851 82.3732 30.4458 82.5355 30.0161 82.5997C29.5921 82.6722 29.163 82.6394 28.7287 82.5014C28.3 82.3717 27.8801 82.1392 27.4689 81.8041L27.4565 81.8126C27.534 82.0859 27.5363 82.3381 27.4635 82.5691C27.399 82.7945 27.2638 83.032 27.0579 83.2816L26.4403 84.0303C26.336 84.162 26.2706 84.2973 26.2442 84.4363C26.2177 84.5752 26.2439 84.7024 26.3226 84.8177C26.3902 84.9165 26.4797 84.9942 26.5913 85.0508C26.7085 85.1157 26.8296 85.1597 26.9547 85.1829L26.0422 86.4596C25.6665 86.354 25.3025 86.1679 24.9503 85.9012C24.5898 85.6402 24.2773 85.3162 24.0128 84.9292ZM27.3968 78.9532C27.5712 79.2085 27.7646 79.4026 27.9767 79.5354C28.1946 79.6764 28.4158 79.7426 28.6406 79.7339C28.871 79.7334 29.0896 79.6625 29.2965 79.521C29.5117 79.3738 29.6613 79.193 29.7453 78.9784C29.835 78.772 29.8537 78.5417 29.8014 78.2875C29.7547 78.0415 29.6441 77.7908 29.4697 77.5355L28.4313 76.0161L26.3584 77.4338L27.3968 78.9532Z" fill="#CBE0F2"/>
<path d="M92.7432 32.4261L95.3738 37.0925C95.7951 37.8398 96.0297 38.5723 96.0776 39.2901C96.1255 40.0079 95.9933 40.6613 95.6809 41.2504C95.3686 41.8395 94.8896 42.3167 94.2438 42.6817C93.5893 43.0518 92.9271 43.2142 92.2572 43.1689C91.5921 43.1324 90.9651 42.9082 90.3762 42.4963C89.7873 42.0844 89.2797 41.5005 88.8535 40.7445L87.8248 38.9197L84.9508 40.5274L83.371 37.7249L92.7432 32.4261ZM90.6106 39.1151C90.7771 39.4106 90.9672 39.6354 91.1807 39.7897C91.4079 39.9478 91.645 40.0314 91.8919 40.0408C92.1525 40.0539 92.4049 39.9914 92.6493 39.8533C93.0245 39.6411 93.2477 39.343 93.3189 38.959C93.395 38.5836 93.3082 38.1744 93.0583 37.7312L92.2941 36.3756L89.8537 37.7726L90.6106 39.1151Z" fill="#CBE0F2"/>
<path d="M78.2052 33.4311C77.4026 32.7424 76.8276 32.0113 76.4802 31.2377C76.1468 30.463 76.0545 29.6838 76.2032 28.9C76.3518 28.1163 76.737 27.3638 77.3586 26.6426L81.6284 21.6888L84.0929 23.8036L79.8919 28.6777C79.6432 28.9662 79.477 29.266 79.3932 29.5771C79.317 29.8948 79.3255 30.2058 79.4187 30.5103C79.526 30.8137 79.7235 31.0888 80.0112 31.3357C80.2914 31.5761 80.586 31.7233 80.8952 31.7773C81.2043 31.8312 81.5105 31.7968 81.8139 31.6741C82.1172 31.5514 82.3998 31.3382 82.6615 31.0345L86.8528 26.1719L89.3173 28.2867L85.0475 33.2405C84.4259 33.9617 83.7341 34.4511 82.9721 34.7085C82.2177 34.9725 81.4318 34.998 80.6142 34.7851C79.8032 34.5647 79.0002 34.1133 78.2052 33.4311Z" fill="#CBE0F2"/>
<path d="M66.7873 18.4313L63.8665 17.632L64.6087 14.9719L73.5733 17.4253L72.8312 20.0854L69.9104 19.2861L67.7647 26.9772L64.6416 26.1225L66.7873 18.4313Z" fill="#CBE0F2"/>
<path d="M56.5842 25.834C55.6442 25.8731 54.8093 25.7778 54.0797 25.5481C53.3498 25.3085 52.755 24.9332 52.2955 24.4223C51.836 23.9115 51.5521 23.2733 51.4438 22.5079L54.3486 21.8322C54.4119 22.1896 54.5484 22.4989 54.7584 22.7601C54.9679 23.0114 55.2355 23.2053 55.561 23.3417C55.8962 23.4678 56.2588 23.5227 56.6488 23.5065C56.9988 23.492 57.3022 23.4344 57.5589 23.3337C57.8153 23.2231 58.0105 23.085 58.1446 22.9194C58.2887 22.7535 58.357 22.5656 58.3492 22.356C58.3401 22.1064 58.2075 21.9069 57.9516 21.7575C57.6957 21.6082 57.2959 21.4948 56.7522 21.4174L55.3783 21.2345C54.0698 21.0589 53.1111 20.7287 52.5023 20.2441C51.8932 19.7494 51.5717 19.0428 51.5379 18.1243C51.5114 17.4054 51.6833 16.7684 52.0535 16.213C52.4337 15.6573 52.9684 15.2201 53.6578 14.9015C54.3472 14.5829 55.1319 14.4053 56.012 14.3687C56.8021 14.3359 57.5269 14.4358 58.1865 14.6683C58.8457 14.8909 59.3842 15.2335 59.8018 15.6961C60.2291 16.1484 60.4992 16.6821 60.6119 17.2974L57.7549 18.046C57.7143 17.7577 57.6101 17.5121 57.4423 17.309C57.2842 17.0956 57.0832 16.939 56.8391 16.8391C56.5947 16.7293 56.3275 16.6804 56.0374 16.6925C55.7674 16.7037 55.5291 16.7586 55.3224 16.8572C55.1153 16.9458 54.9595 17.0672 54.855 17.2215C54.7505 17.3759 54.7017 17.5479 54.7087 17.7376C54.7183 17.9972 54.8358 18.1973 55.0613 18.3379C55.2965 18.4681 55.6658 18.5678 56.1691 18.6368L57.5719 18.7885C58.889 18.9238 59.8573 19.2436 60.4768 19.7478C61.1063 20.2516 61.4383 20.9727 61.4729 21.9112C61.5015 22.69 61.3111 23.3678 60.9017 23.9448C60.5022 24.5214 59.9278 24.9702 59.1784 25.2913C58.439 25.612 57.5743 25.7929 56.5842 25.834Z" fill="#CBE0F2"/>
<path d="M39.7401 18.3735L46.9672 15.8167L47.8041 18.2039L43.5245 19.718L44.0643 21.2577L47.7771 19.9442L48.505 22.0206L44.7922 23.3341L45.3914 25.0433L49.8127 23.4792L50.6546 25.8805L43.2858 28.4875L39.7401 18.3735Z" fill="#CBE0F2"/>
<path d="M40.5101 30.6418C40.2101 30.8765 39.8877 31.0339 39.5428 31.1138C39.204 31.2016 38.8609 31.2105 38.5132 31.1405C38.1735 31.0644 37.8394 30.9142 37.511 30.6899L36.4493 29.9439C36.1938 29.7639 35.9396 29.6588 35.6868 29.6287C35.4419 29.5923 35.2168 29.6545 35.0116 29.8151L34.1707 30.4732L36.5137 33.4653L33.9438 35.4765L27.3393 27.0418L31.7448 23.5942C32.4554 23.0381 33.1463 22.6684 33.8176 22.485C34.4968 22.2954 35.1305 22.2998 35.7187 22.4981C36.3008 22.6886 36.8163 23.0704 37.2652 23.6437C37.5481 24.005 37.7344 24.3975 37.8242 24.8212C37.9219 25.2387 37.9148 25.6686 37.8027 26.1109C37.6986 26.547 37.4913 26.9816 37.1809 27.4145L37.1901 27.4263C37.4586 27.3301 37.7105 27.3103 37.9458 27.3669C38.1749 27.4155 38.4203 27.5338 38.682 27.7217L39.4671 28.2852C39.6049 28.38 39.7441 28.4357 39.8845 28.4525C40.025 28.4692 40.1505 28.4343 40.261 28.3478C40.3557 28.2737 40.4281 28.1791 40.478 28.064C40.5359 27.9427 40.5727 27.819 40.5884 27.6927L41.9187 28.5135C41.8356 28.8952 41.6713 29.2708 41.4257 29.6402C41.1864 30.0175 40.8812 30.3514 40.5101 30.6418ZM34.336 27.684C34.5807 27.4924 34.7632 27.2863 34.8833 27.0657C35.0113 26.8389 35.0642 26.6138 35.0421 26.3904C35.0279 26.1609 34.9439 25.948 34.7902 25.7516C34.6303 25.5474 34.4406 25.4109 34.2211 25.342C34.0096 25.2669 33.7783 25.2643 33.5273 25.334C33.2842 25.3976 33.0403 25.5251 32.7956 25.7167L31.3389 26.8566L32.8794 28.8239L34.336 27.684Z" fill="#CBE0F2"/>
<path fill-rule="evenodd" clip-rule="evenodd" d="M45.017 40.0891C43.7729 40.2464 42.6367 41.085 42.1466 42.2077C41.9776 42.5947 41.8292 43.4542 41.0964 48.2892L40.243 53.9199L39.8153 54.0399C39.2587 54.1961 38.4962 54.7014 38.089 55.1839C37.4354 55.9586 37.4898 55.701 36.2475 63.8976C35.0022 72.1141 35.0421 71.6583 35.5295 72.1157C35.7518 72.3242 35.8087 72.3364 38.5278 72.757C41.6019 73.2326 41.6817 73.2334 42.1238 72.7878C42.3333 72.5766 42.3543 72.4914 42.667 70.5845L42.9923 68.6008L56.4268 70.5672L69.8613 72.5335L69.5842 74.5243C69.1769 77.4513 68.9675 77.2452 72.8995 77.7879C75.5924 78.1597 75.6864 78.1674 75.9473 78.0382C76.0955 77.965 76.3208 77.7683 76.4481 77.6012L76.6797 77.2973L77.8124 69.8235C78.4541 65.5899 78.9118 62.3636 78.8681 62.3817C78.8257 62.3994 78.7892 62.2915 78.7869 62.142C78.7742 61.3 78.0183 60.0219 77.2413 59.5288L76.8448 59.2773L77.6982 53.6465C78.6283 47.5102 78.6297 47.4924 78.2832 46.6567C78.0562 46.1094 77.6091 45.5122 77.152 45.1458C76.3286 44.4857 77.4067 44.6763 60.6828 42.2348C46.4778 40.161 45.5037 40.0276 45.017 40.0891ZM45.1389 42.5347C44.8783 42.6159 44.7121 42.7369 44.5574 42.9576C44.3455 43.2601 44.3232 43.3829 43.5215 48.6723L42.7023 54.0778L44.0074 54.2688L45.3124 54.4599L45.277 54.2737C45.2575 54.1713 45.3476 53.2827 45.4772 52.299C45.6709 50.828 45.7494 50.4258 45.9191 50.0327C46.4229 48.866 47.5503 48.0368 48.8401 47.8842C49.3366 47.8254 49.7319 47.8665 52.3204 48.2453C54.6891 48.5921 55.3282 48.709 55.7048 48.8648C56.8954 49.3573 57.7743 50.5218 57.9109 51.7879C57.9566 52.2125 57.9124 52.6198 57.6615 54.0824C57.4938 55.0605 57.3165 55.9363 57.2675 56.0287L57.1784 56.1967L58.5739 56.4009L59.9693 56.6052L59.9339 56.419C59.9144 56.3166 60.0046 55.428 60.1341 54.4443C60.3278 52.9733 60.4064 52.5711 60.576 52.178C61.0798 51.0113 62.2072 50.1821 63.497 50.0295C63.9936 49.9707 64.3889 50.0118 66.9773 50.3906C69.3552 50.7387 69.9837 50.8539 70.3616 51.0109C71.5549 51.5065 72.4331 52.6689 72.5681 53.9313C72.6136 54.3573 72.5692 54.7655 72.3185 56.2277C72.1507 57.2058 71.9734 58.0816 71.9244 58.174L71.8353 58.342L73.1404 58.533L74.4455 58.724L75.2647 53.3185C76.0676 48.0212 76.0817 47.9057 75.968 47.5536C75.8837 47.2927 75.7642 47.136 75.5318 46.9816C75.2123 46.7694 75.1909 46.766 60.3577 44.595L45.5037 42.4209L45.1389 42.5347ZM48.924 50.329C48.298 50.5242 48.1653 50.8014 47.9188 52.4279C47.7339 53.6473 47.7241 53.8336 47.8276 54.1542C47.9119 54.4151 48.0314 54.5718 48.2638 54.7261C48.567 54.9275 48.7234 54.9591 51.2454 55.3283C53.7674 55.6974 53.9264 55.712 54.2762 55.6061C54.5442 55.525 54.705 55.4094 54.863 55.1839C55.0571 54.907 55.1029 54.7259 55.2877 53.5065C55.4725 52.2871 55.4824 52.1008 55.3788 51.7803C55.2946 51.5193 55.1751 51.3627 54.9427 51.2083C54.6394 51.0069 54.4832 50.9753 51.9557 50.6055C49.4183 50.2342 49.2711 50.2207 48.924 50.329ZM63.5809 52.4743C62.9549 52.6695 62.8222 52.9467 62.5757 54.5732C62.3909 55.7926 62.381 55.9789 62.4846 56.2995C62.5689 56.5604 62.6883 56.7171 62.9207 56.8714C63.2239 57.0728 63.3804 57.1044 65.9023 57.4736C68.4243 57.8427 68.5833 57.8573 68.9331 57.7514C69.2012 57.6703 69.3619 57.5547 69.5199 57.3292C69.714 57.0523 69.7598 56.8712 69.9447 55.6518C70.1295 54.4324 70.1393 54.2461 70.0358 53.9256C69.9515 53.6646 69.832 53.508 69.5997 53.3536C69.2964 53.1522 69.1401 53.1206 66.6127 52.7508C64.0752 52.3795 63.928 52.366 63.5809 52.4743ZM40.5625 56.3454C40.3019 56.4266 40.1357 56.5476 39.981 56.7683C39.7813 57.0533 39.7424 57.2229 39.4819 58.9414L39.1994 60.8054L57.5003 63.484L75.8013 66.1627L76.0838 64.2987C76.3446 62.5775 76.3574 62.4072 76.2502 62.0754C76.1659 61.8145 76.0465 61.6578 75.8141 61.5035L75.4941 61.2909L58.2107 58.7612L40.9273 56.2316L40.5625 56.3454ZM36.2901 63.879C35.6603 68.0344 35.4142 69.7243 35.7433 67.6342C36.0723 65.5442 36.5876 62.1443 36.8884 60.0789C37.1891 58.0135 36.9199 59.7236 36.2901 63.879ZM38.3048 66.708L37.768 70.2495L38.9788 70.4268L40.1896 70.604L40.5149 68.6203C40.8276 66.7134 40.8486 66.6281 41.0581 66.417C41.5382 65.933 40.2655 65.7883 56.7846 68.2061C73.3037 70.624 72.0434 70.398 72.3592 70.9984C72.4969 71.2604 72.4918 71.348 72.2254 73.2617L71.9483 75.2524L73.1591 75.4296L74.3699 75.6069L74.9066 72.0653L75.4434 68.5237L57.1425 65.8451L38.8416 63.1664L38.3048 66.708Z" fill="#CBE0F2"/>
</svg>
