<svg width="46" height="38" viewBox="0 0 46 38" fill="none" xmlns="http://www.w3.org/2000/svg">
<path fill-rule="evenodd" clip-rule="evenodd" d="M5.59118 0.168622C4.26929 0.550421 3.17615 1.68079 2.82949 3.02446C2.70996 3.48762 2.69033 4.47881 2.69033 10.0384V16.5129L2.24674 16.7183C1.66946 16.9856 0.926377 17.6796 0.564477 18.2894C-0.0163927 19.2685 0.000285634 18.9698 0.000285634 28.3946C0.000285634 37.8423 -0.0313672 37.3231 0.57174 37.7574C0.846842 37.9554 0.910417 37.9596 3.92506 37.9851C7.33334 38.014 7.41987 38.0017 7.82562 37.4277C8.01787 37.1557 8.02665 37.0563 8.0523 34.8597L8.07902 32.5747H22.9553H37.8316L37.8583 34.8597C37.8976 38.2194 37.6369 38.022 41.9856 37.9851C44.9638 37.96 45.0668 37.9532 45.3283 37.7649C45.4768 37.6581 45.6886 37.3997 45.7991 37.1908L46 36.8109V28.217C46 23.349 45.9661 19.6444 45.9218 19.672C45.8788 19.6989 45.8215 19.5835 45.7945 19.4156C45.6425 18.4706 44.6137 17.1573 43.691 16.7307L43.2203 16.5129V10.0384C43.2203 2.98247 43.2189 2.96229 42.7063 2.07924C42.3706 1.50098 41.7882 0.902808 41.2329 0.565895C40.2325 -0.0410546 41.4317 -0.0041327 22.9141 0.00292591C7.18539 0.00898908 6.10829 0.0193056 5.59118 0.168622ZM6.1247 2.89958C5.85579 3.03388 5.69555 3.19731 5.56428 3.47106C5.38431 3.84616 5.38037 3.98805 5.38037 10.07V16.2856H6.82555H8.27064L8.20168 16.082C8.16376 15.97 8.11551 14.9556 8.09435 13.8278C8.0627 12.1411 8.08171 11.6757 8.20097 11.2056C8.55516 9.81023 9.64032 8.6918 11.0125 8.30783C11.5407 8.15997 11.9757 8.14105 14.842 8.14105C17.4649 8.14105 18.1764 8.16739 18.61 8.2806C19.9806 8.63859 21.1239 9.8039 21.4797 11.2056C21.599 11.6757 21.618 12.1411 21.5863 13.8278C21.5652 14.9556 21.5169 15.97 21.479 16.082L21.4101 16.2856H22.9553H24.5006L24.4316 16.082C24.3937 15.97 24.3454 14.9556 24.3243 13.8278C24.2926 12.1411 24.3116 11.6757 24.4309 11.2056C24.7851 9.81023 25.8702 8.6918 27.2424 8.30783C27.7707 8.15997 28.2056 8.14105 31.0719 8.14105C33.705 8.14105 34.4048 8.16711 34.8399 8.2815C36.2139 8.64258 37.3561 9.80562 37.7096 11.2034C37.8289 11.6752 37.8478 12.1416 37.8163 13.8278C37.7951 14.9556 37.7469 15.97 37.7089 16.082L37.64 16.2856H39.0851H40.5302V10.07C40.5302 3.97891 40.5266 3.8467 40.3455 3.46934C40.2114 3.18971 40.0563 3.03315 39.7792 2.89777C39.3982 2.71162 39.3744 2.71135 22.9494 2.71144L6.50122 2.71153L6.1247 2.89958ZM11.5048 11.0441C10.8587 11.3668 10.7605 11.7005 10.7605 13.5708C10.7605 14.9729 10.7804 15.1841 10.9452 15.5276C11.0793 15.8072 11.2344 15.9638 11.5115 16.0992C11.8731 16.2758 12.0477 16.2856 14.8404 16.2856C17.633 16.2856 17.8076 16.2758 18.1692 16.0992C18.4463 15.9638 18.6014 15.8072 18.7355 15.5276C18.9003 15.1841 18.9202 14.9729 18.9202 13.5708C18.9202 12.1686 18.9003 11.9574 18.7355 11.6139C18.6014 11.3343 18.4463 11.1777 18.1692 11.0423C17.8076 10.8657 17.6332 10.8559 14.8344 10.856C12.0247 10.8561 11.863 10.8652 11.5048 11.0441ZM27.7347 11.0441C27.0886 11.3668 26.9904 11.7005 26.9904 13.5708C26.9904 14.9729 27.0103 15.1841 27.1751 15.5276C27.3092 15.8072 27.4644 15.9638 27.7414 16.0992C28.103 16.2758 28.2776 16.2856 31.0703 16.2856C33.8629 16.2856 34.0376 16.2758 34.3991 16.0992C34.6762 15.9638 34.8313 15.8072 34.9655 15.5276C35.1303 15.1841 35.1502 14.9729 35.1502 13.5708C35.1502 12.1686 35.1303 11.9574 34.9655 11.6139C34.8313 11.3343 34.6762 11.1777 34.3991 11.0423C34.0375 10.8657 33.8631 10.8559 31.0644 10.856C28.2546 10.8561 28.0929 10.8652 27.7347 11.0441ZM3.43466 19.1887C3.16575 19.323 3.00551 19.4864 2.87424 19.7602C2.70467 20.1136 2.69033 20.3108 2.69033 22.2869V24.4302H22.9553H43.2203V22.2869C43.2203 20.3077 43.2061 20.1141 43.0356 19.7584C42.9014 19.4788 42.7463 19.3223 42.4692 19.1869L42.0877 19.0005L22.9494 19.0005L3.81118 19.0006L3.43466 19.1887ZM0.0433263 28.3667C0.0433263 33.1448 0.0542658 35.0862 0.0675367 32.6809C0.0808076 30.2757 0.0808076 26.3663 0.0675367 23.9934C0.0541761 21.6206 0.0433263 23.5885 0.0433263 28.3667ZM2.69033 31.2173V35.2896H4.03104H5.37176L5.39848 33.0046C5.42413 30.808 5.43291 30.7086 5.62516 30.4366C6.06579 29.8132 4.66338 29.8599 22.9553 29.8599C41.2472 29.8599 39.8448 29.8132 40.2854 30.4366C40.4777 30.7086 40.4865 30.808 40.5121 33.0046L40.5389 35.2896H41.8796H43.2203V31.2173V27.145H22.9553H2.69033V31.2173Z" fill="#FFBA00"/>
</svg>
