<svg width="45" height="44" viewBox="0 0 45 44" fill="none" xmlns="http://www.w3.org/2000/svg">
<path fill-rule="evenodd" clip-rule="evenodd" d="M20.7904 0.121551C18.6234 0.540982 16.5321 1.76644 15.3019 3.33776L14.9739 3.75684L9.71488 3.79234C3.88509 3.83171 4.10338 3.81159 2.82759 4.42544C1.88118 4.8808 1.01479 5.74484 0.546265 6.70068C0.132088 7.54556 0 8.09408 0 8.96964C0 9.84563 0.132088 10.3937 0.547235 11.2407C1.00156 12.1674 1.95503 13.1292 2.82353 13.5371C4.11371 14.143 3.81362 14.1161 9.65312 14.1494L14.9385 14.1795L15.1208 14.4109C15.8256 15.3054 16.9103 16.2251 17.9338 16.7961L18.5294 17.1284L18.5296 30.0669C18.5297 42.2134 18.5391 43.0237 18.684 43.3045C18.7688 43.469 18.9753 43.6928 19.1427 43.8018L19.4472 44L22.5555 43.9754C25.5215 43.952 25.6748 43.9428 25.9039 43.7762C26.0359 43.6801 26.2174 43.468 26.3073 43.3048C26.4641 43.0198 26.4707 42.4962 26.4723 30.0715L26.4739 17.1348L27.0679 16.7985C28.106 16.2106 29.1794 15.299 29.8792 14.4109L30.0615 14.1795L35.3469 14.153L40.6324 14.1266L41.3862 13.8636C42.8127 13.3659 43.8466 12.4779 44.4625 11.2211C44.8681 10.3933 45 9.84091 45 8.96964C45 8.09408 44.8679 7.54556 44.4537 6.70068C43.8282 5.42477 42.5537 4.3982 41.0735 3.97842C40.603 3.84494 39.9596 3.82431 35.2851 3.79251L30.0261 3.75684L29.6981 3.33776C28.4498 1.74341 26.3496 0.52362 24.1544 0.117941C23.2954 -0.0408064 21.6199 -0.0390014 20.7904 0.121551ZM21.5145 2.64853C18.9904 3.09934 17.0987 4.66446 16.2635 6.99282C16.0354 7.62901 16.0171 7.77676 16.0189 8.96964C16.0207 10.1383 16.0431 10.3232 16.2582 10.9465C16.9875 13.0598 18.7565 14.6483 21.0064 15.21C21.601 15.3586 23.4519 15.3605 24 15.2134C25.2951 14.8655 26.2212 14.3431 27.1326 13.4463C27.9381 12.6537 28.4006 11.9351 28.7418 10.9465C28.9569 10.3232 28.9793 10.1383 28.9811 8.96964C28.9829 7.77676 28.9646 7.62901 28.7365 6.99282C27.9937 4.92205 26.3554 3.39955 24.2505 2.82396C23.5245 2.62541 22.1406 2.53671 21.5145 2.64853ZM22.0718 4.72618C21.5067 4.82768 20.9455 5.18067 20.25 5.87187C18.1884 7.9209 17.9754 10.4938 19.7294 12.1618C20.6151 13.0041 21.9295 13.4213 23.0956 13.23C25.152 12.893 26.6 11.1248 26.4458 9.13913C26.3588 8.01853 25.7537 6.86708 24.7059 5.82847C23.7616 4.8924 22.9762 4.56373 22.0718 4.72618ZM4.44106 6.59324C3.54035 6.89647 2.92209 7.57753 2.73018 8.47802C2.54391 9.35194 2.84709 10.2467 3.53303 10.8474C4.28488 11.5058 4.27871 11.5051 9.24097 11.5051H13.6088L13.5529 11.3118C13.4298 10.8866 13.2364 9.45517 13.2364 8.96964C13.2364 8.48412 13.4298 7.05264 13.5529 6.62754L13.6088 6.43415L9.25297 6.43699C5.30488 6.43948 4.85435 6.45418 4.44106 6.59324ZM31.4464 6.62453C31.5701 7.05273 31.7636 8.48274 31.7636 8.96964C31.7636 9.45517 31.5702 10.8866 31.4471 11.3118L31.3912 11.5051H35.7531C40.6711 11.5051 40.7085 11.5011 41.4086 10.9008C42.0035 10.3907 42.3102 9.72857 42.3033 8.96964C42.2937 7.94384 41.7944 7.15965 40.869 6.71692L40.3676 6.47713L35.8786 6.45263L31.3895 6.42813L31.4464 6.62453ZM22.0854 7.75742C21.2933 8.63393 21.0489 9.45491 21.4044 10.0448C21.8754 10.8261 23.1246 10.8261 23.5956 10.0448C23.8421 9.63583 23.8125 9.13114 23.5104 8.59035C23.2481 8.12098 22.6294 7.37959 22.5 7.37959C22.4597 7.37959 22.2731 7.5496 22.0854 7.75742ZM21.1764 29.6618L21.1765 41.4153H22.5H23.8235V29.6876V17.9599L22.4999 17.9341L21.1762 17.9083L21.1764 29.6618ZM7.78235 25.176C7.16444 25.4767 6.86206 25.7887 6.53735 26.4602L6.30882 26.933L6.28324 32.67L6.25765 38.4071H5.48771C4.59053 38.4071 4.20574 38.2565 3.92647 37.7958C3.75803 37.5179 3.74797 37.3084 3.70588 33.1919C3.66274 28.976 3.65762 28.8737 3.47603 28.6366C3.11559 28.1658 2.784 28.0503 1.79321 28.0503C1.02035 28.0503 0.860559 28.0753 0.646147 28.2301C-0.231088 28.8633 -0.207794 29.9935 0.692559 30.4848L1.05882 30.6846V34.2477C1.05882 37.6274 1.06826 37.8382 1.24209 38.3408C1.56971 39.2882 2.17438 40.0063 3.08824 40.5332C3.63962 40.8513 4.29679 40.9856 5.30065 40.9856H6.24565L6.27768 41.9683C6.31306 43.0536 6.39344 43.2465 6.96971 43.6285C7.26124 43.8218 7.26379 43.8219 11.1176 43.8219C14.9715 43.8219 14.9741 43.8218 15.2656 43.6285C15.426 43.5221 15.6403 43.3259 15.7419 43.1924C15.926 42.9503 15.9265 42.9325 15.9265 34.9413V26.933L15.6979 26.4602C15.3732 25.7887 15.0709 25.4767 14.4529 25.176L13.913 24.9132H11.1176H8.32226L7.78235 25.176ZM30.5471 25.176C29.9291 25.4767 29.6268 25.7887 29.3021 26.4602L29.0735 26.933V34.9413C29.0735 42.9325 29.074 42.9503 29.2581 43.1924C29.3597 43.3259 29.574 43.5221 29.7344 43.6285C30.0259 43.8218 30.0285 43.8219 33.8824 43.8219C37.7362 43.8219 37.7388 43.8218 38.0303 43.6285C38.6066 43.2465 38.6869 43.0536 38.7223 41.9683L38.7544 40.9856H39.6994C40.7032 40.9856 41.3604 40.8513 41.9118 40.5332C42.8256 40.0063 43.4303 39.2882 43.7579 38.3408C43.9317 37.8382 43.9412 37.6274 43.9412 34.2477V30.6846L44.3074 30.4848C45.2078 29.9935 45.2311 28.8633 44.3539 28.2301C44.1394 28.0753 43.9796 28.0503 43.2068 28.0503C42.216 28.0503 41.8844 28.1658 41.524 28.6366C41.3424 28.8737 41.3373 28.976 41.2941 33.1919C41.2445 38.0363 41.2637 37.8996 40.5899 38.2344C40.3225 38.3673 40.0694 38.4071 39.4924 38.4071H38.7424L38.7168 32.67L38.6912 26.933L38.4626 26.4602C38.1379 25.7887 37.8356 25.4767 37.2176 25.176L36.6777 24.9132H33.8824H31.087L30.5471 25.176ZM9 28.6519V29.8122H11.1176H13.2353V28.6519V27.4916H11.1176H9V28.6519ZM31.7647 28.6519V29.8122H33.8824H36V28.6519V27.4916H33.8824H31.7647V28.6519ZM9 36.8601V41.2434H11.1176H13.2353V36.8601V32.4767H11.1176H9V36.8601ZM31.7647 36.8601V41.2434H33.8824H36V36.8601V32.4767H33.8824H31.7647V36.8601Z" fill="#FFBA00"/>
</svg>
