<svg width="46" height="46" viewBox="0 0 46 46" fill="none" xmlns="http://www.w3.org/2000/svg">
<path fill-rule="evenodd" clip-rule="evenodd" d="M1.06106 0.0569865C0.647092 0.156065 0.343686 0.37699 0.159588 0.713462C0.00811004 0.99027 0 2.12414 0 23.0076C0 44.9755 0.000270337 45.0106 0.183377 45.3219C0.284302 45.4934 0.507329 45.7161 0.678991 45.8169C0.990057 45.9994 1.05359 46 18.2476 46H35.504L35.8194 45.8027C35.9928 45.6941 36.1922 45.5119 36.2625 45.3977C37.386 43.5705 44.6424 31.3889 44.8396 30.9988C45.2407 30.2054 45.7016 28.7523 45.8733 27.74C46.0988 26.4109 46.0143 24.2608 45.6911 23.0976C45.0241 20.6978 43.583 18.5786 41.6363 17.1347C40.3517 16.182 38.4284 15.3801 36.8331 15.1322L36.4502 15.0727V8.00776C36.4502 0.12088 36.4913 0.629591 35.8194 0.211499L35.504 0.0152312L18.4278 0.0013728C9.03595 -0.00627633 1.22092 0.0188308 1.06106 0.0569865ZM2.56818 23.0076V43.3453H3.91986H5.27153V23.0076V2.66993H3.91986H2.56818V23.0076ZM7.88477 23.0076V43.3453H18.2476H28.6105V39.7293V36.1133L27.1796 33.6775C25.2932 30.4661 24.8957 29.5238 24.6062 27.5763C24.0604 23.9055 25.3087 20.2835 27.9398 17.9037L28.6105 17.2971V9.98349V2.66993H18.2476H7.88477V23.0076ZM31.2237 9.23432V15.7987L31.7418 15.6159C32.0269 15.5153 32.6047 15.3614 33.0259 15.2737L33.7919 15.1143L33.815 8.89218L33.8382 2.66993H32.5309H31.2237V9.23432ZM17.4778 5.08732C16.8724 5.45601 16.8539 5.53853 16.8226 8.0065C16.7957 10.1292 16.8037 10.2579 16.9857 10.6333C17.3414 11.3673 18.2249 11.5937 18.8895 11.1211C19.3813 10.7713 19.4191 10.5551 19.4187 8.09469C19.4184 6.02808 19.4053 5.84306 19.2393 5.57129C18.8675 4.96215 18.0514 4.73798 17.4778 5.08732ZM17.4458 14.923C16.8419 15.3381 16.8058 15.5059 16.8058 17.9022C16.8058 20.2608 16.8403 20.4537 17.3369 20.871C17.7624 21.2285 18.1589 21.2714 18.6688 21.0152C19.3913 20.6521 19.4191 20.5386 19.4191 17.9426C19.4191 15.5429 19.4028 15.4445 18.9327 15.006C18.5848 14.6814 17.8564 14.6407 17.4458 14.923ZM34.0657 17.7021C31.203 18.1519 28.7384 20.0885 27.6557 22.7391C26.8052 24.8213 26.9275 27.7293 27.953 29.8018C28.2591 30.4207 35.1293 42.0854 35.1876 42.0854C35.2777 42.0854 42.4614 29.9771 42.6889 29.4419C43.2037 28.2304 43.3971 27.2347 43.3966 25.7973C43.3963 24.894 43.3519 24.4987 43.1712 23.7902C42.4216 20.8517 40.1423 18.5776 37.2448 17.8772C36.3709 17.6659 34.8344 17.5813 34.0657 17.7021ZM34.646 21.3924C32.0295 21.6937 30.0985 24.2835 30.6157 26.7979C31.0207 28.7669 32.3973 30.1383 34.3776 30.5458C36.1199 30.9043 38.0521 30.0468 39.081 28.4585C40.0483 26.9651 40.0404 24.9401 39.0614 23.476C38.056 21.9723 36.3993 21.1905 34.646 21.3924ZM34.7458 24.01C34.1939 24.1115 33.7121 24.4561 33.4139 24.9629C32.9573 25.7385 33.1162 26.8893 33.7606 27.4741C35.1032 28.6924 37.1891 27.7891 37.1891 25.9893C37.1891 24.679 36.0639 23.7675 34.7458 24.01ZM17.7577 24.5859C17.5746 24.6488 17.3406 24.775 17.238 24.8664C16.8481 25.2131 16.8058 25.4935 16.8058 27.7321C16.8058 30.0679 16.841 30.2631 17.3369 30.6799C17.7624 31.0374 18.1589 31.0803 18.6688 30.8241C19.3913 30.461 19.4191 30.3475 19.4191 27.7515C19.4191 25.3583 19.4018 25.2524 18.9408 24.8223C18.6336 24.536 18.172 24.4438 17.7577 24.5859ZM17.7387 34.3537C17.3779 34.4593 16.9211 34.9749 16.8501 35.3568C16.8199 35.5187 16.8078 36.6101 16.823 37.782C16.849 39.7701 16.8633 39.9297 17.0367 40.1613C17.5111 40.7953 18.1916 40.9517 18.8113 40.5692C19.3827 40.2166 19.4191 40.0351 19.4191 37.541C19.4191 35.6864 19.3951 35.268 19.2743 35.0138C19.0256 34.4905 18.3151 34.1851 17.7387 34.3537ZM31.2237 41.9955V43.3453H32.04C32.4889 43.3453 32.8403 43.315 32.8207 43.2778C32.6146 42.887 31.2839 40.6456 31.258 40.6456C31.2391 40.6456 31.2237 41.253 31.2237 41.9955Z" fill="#FFBA00"/>
</svg>
