<svg width="51" height="46" viewBox="0 0 51 46" fill="none" xmlns="http://www.w3.org/2000/svg">
<path fill-rule="evenodd" clip-rule="evenodd" d="M43.0264 0.0960578C41.7602 0.306052 40.4091 0.981264 39.4842 1.86608C39.1836 2.15371 36.4036 5.40681 33.3065 9.09516C30.2094 12.7835 26.9204 16.6953 25.9976 17.7879L24.3198 19.7747L23.5052 19.0317C21.6813 17.3682 20.2369 16.7785 17.9969 16.7827C16.6778 16.7853 15.857 16.972 14.7062 17.5313C13.7362 18.0027 13.143 18.4994 10.5678 20.996C8.00571 23.48 7.86002 23.5847 7.16996 23.4359C6.71893 23.3385 6.20019 22.8462 6.07754 22.399C5.94292 21.908 6.04952 21.5334 6.5163 20.8578C6.92924 20.26 6.98119 19.8213 6.70348 19.2787C6.35027 18.5885 5.39067 18.2783 4.7043 18.6325C4.28389 18.8495 1.55656 21.6133 1.17045 22.2137C-0.135275 24.2438 -0.368319 26.8901 0.571137 29.0177C1.14771 30.3235 1.49823 30.6995 8.74174 37.783C15.499 44.391 15.8375 44.7058 16.6008 45.0927C17.9542 45.7786 18.689 45.9532 20.1907 45.9459C21.7314 45.9384 22.6291 45.7142 23.8921 45.0218C24.5925 44.6377 25.1072 44.1693 28.6184 40.7202C32.6845 36.7261 32.9324 36.4405 33.4706 35.1322C33.8855 34.1239 34.0271 33.2531 33.9713 32.0526C33.8763 30.0065 33.1996 28.5902 31.4893 26.8576L30.9033 26.264L39.9159 18.9601C44.8729 14.943 49.1171 11.4462 49.3474 11.1894C49.9453 10.5224 50.3986 9.74992 50.7204 8.84944C50.9735 8.14123 51 7.9422 51 6.74558C51 5.55052 50.9733 5.34885 50.7212 4.64074C49.58 1.43493 46.3734 -0.458934 43.0264 0.0960578ZM42.9036 3.21229C42.2638 3.44392 41.9761 3.64403 41.3187 4.31493C40.7396 4.90605 26.6377 21.6698 26.5665 21.8517C26.5411 21.9166 27.0258 22.4607 27.6434 23.0609L28.7666 24.1521L37.841 16.7893C43.3332 12.333 47.0548 9.24564 47.2684 8.96838C47.8679 8.18999 48.1193 7.17046 47.9573 6.17473C47.7544 4.92847 46.9414 3.86538 45.7862 3.33584C45.0241 2.98664 43.6854 2.92917 42.9036 3.21229ZM13.1106 4.86503C12.1569 4.93307 11.11 5.43735 10.3513 6.19401C8.20136 8.3383 8.85482 11.9289 11.6308 13.2243C14.202 14.4239 17.1715 13.0384 17.898 10.3C18.6636 7.41433 16.2225 4.6429 13.1106 4.86503ZM43.1167 5.8499C42.5174 6.1247 42.2425 6.61185 42.3004 7.29695C42.3389 7.75247 42.4003 7.88973 42.6947 8.17883C43.674 9.1402 45.2701 8.47527 45.2701 7.10585C45.2701 6.73941 44.9604 6.22828 44.5634 5.93977C44.1831 5.6633 43.6023 5.62718 43.1167 5.8499ZM12.8597 8.00104C12.3958 8.23952 12.0341 8.9119 12.0983 9.41706C12.1914 10.151 12.7817 10.6606 13.5394 10.6612C14.3894 10.6619 14.9938 10.0948 14.9938 9.29635C14.9938 8.1801 13.8556 7.48922 12.8597 8.00104ZM16.7255 19.9228C16.4649 20.0014 16.2518 20.0977 16.2518 20.1365C16.2518 20.1754 19.4792 23.3756 23.4239 27.248L30.5959 34.2886L30.7465 33.758C31.099 32.5156 31.0252 31.5488 30.4933 30.4401C30.2152 29.8602 29.7554 29.3772 25.5378 25.2341C22.9808 22.7223 20.6868 20.5448 20.44 20.3952C19.4458 19.7924 17.8357 19.5876 16.7255 19.9228ZM12.0126 23.7846C11.0809 24.7025 10.1185 25.5846 9.87395 25.7449C8.58129 26.5927 6.6603 26.6404 5.28417 25.8589C4.71547 25.536 3.91602 24.8043 3.7113 24.4195L3.55354 24.1227L3.36447 24.5451C2.88054 25.6264 2.94246 26.9478 3.5327 28.1366C3.82119 28.7176 4.11287 29.0543 5.4504 30.3502C7.03135 31.8819 7.36671 32.1231 8.35942 32.442C9.2185 32.718 10.5262 32.6227 11.4015 32.2204C11.7777 32.0475 12.2982 31.7311 12.5582 31.5174C13.3438 30.8716 13.8937 30.7685 14.5679 31.1405C14.9799 31.3679 15.3543 31.97 15.3543 32.4054C15.3543 33.4827 13.3963 34.9024 11.1699 35.4394L10.725 35.5467L12.0674 36.8346C13.5656 38.2717 14.0666 38.5789 15.2328 38.7752C16.4753 38.9844 17.7819 38.6342 18.8017 37.8187C19.5019 37.2589 19.6545 37.1923 20.2379 37.1923C20.6884 37.1923 20.7928 37.2345 21.1471 37.5594C21.613 37.9868 21.7703 38.4793 21.6176 39.0327C21.3662 39.9442 19.1258 41.3906 17.5731 41.6438C17.3399 41.6818 17.1493 41.7478 17.1493 41.7905C17.1493 41.8918 17.7062 42.3058 18.1317 42.521C19.4769 43.2013 21.2429 43.1245 22.5447 42.3294C22.7857 42.1821 24.2514 40.8239 25.8017 39.3109L28.6207 36.5601L21.2648 29.3379C17.2191 25.3657 13.8634 22.1158 13.8079 22.1158C13.7522 22.1158 12.9444 22.8668 12.0126 23.7846ZM44.0729 25.5301C43.6013 25.6817 43.2255 25.9181 42.8604 26.293C41.6988 27.4857 41.6884 29.2329 42.8361 30.3923C43.4667 31.0293 44.0439 31.2654 44.971 31.2654C45.8981 31.2654 46.4752 31.0293 47.1059 30.3923C48.5005 28.9833 48.1037 26.6284 46.3172 25.7129C45.8834 25.4906 44.5371 25.381 44.0729 25.5301ZM36.7183 37.3876C36.1431 37.7318 35.997 38.0936 35.9966 39.1747L35.9962 40.1293L35.024 40.1297C34.2298 40.13 33.9922 40.1656 33.7267 40.3246C32.7558 40.9057 32.7757 42.2887 33.7629 42.8444C34.0873 43.027 34.3036 43.0633 35.0738 43.0647L35.9962 43.0662V43.9734C35.9962 44.6688 36.0394 44.96 36.1811 45.2216C36.4058 45.6361 37.0187 46 37.492 46C37.9654 46 38.5783 45.6361 38.8029 45.2216C38.9446 44.96 38.9878 44.6688 38.9878 43.9734V43.0662L39.9102 43.0647C40.6804 43.0633 40.8967 43.027 41.2211 42.8444C42.2083 42.2887 42.2282 40.9057 41.2573 40.3246C40.9919 40.1656 40.7542 40.13 39.9601 40.1297L38.9878 40.1293L38.9874 39.1747C38.9871 38.3951 38.9508 38.1618 38.7889 37.9012C38.5118 37.4549 38.0321 37.193 37.492 37.193C37.2198 37.193 36.9154 37.2695 36.7183 37.3876Z" fill="#FFBA00"/>
</svg>
