<svg width="188" height="208" viewBox="0 0 188 208" fill="none" xmlns="http://www.w3.org/2000/svg">
<path d="M156.67 111.182C151.475 155.273 119.356 188.757 84.0779 184.743C48.7999 180.729 25.3173 140.919 30.5119 96.828C35.7065 52.7369 67.8245 19.2518 103.103 23.2655C138.381 27.2794 161.864 67.0907 156.67 111.182Z" fill="#041E42" stroke="#0057C7" stroke-width="4"/>
<path d="M146.894 78.203L148.478 85.1559L146.17 85.6892L145.232 81.572L143.743 81.916L144.557 85.4879L142.549 85.9518L141.736 82.3799L140.083 82.7618L141.052 87.0153L138.73 87.5518L137.115 80.4626L146.894 78.203Z" fill="white"/>
<path d="M142.424 65.9674L143.509 68.7994L140.33 70.0265L140.322 70.0446L144.475 71.3182L145.781 74.7244L141.03 72.9477L136.444 78.4184L135.143 75.0252L138.175 71.8473L136.903 71.3496L134.143 72.4151L133.057 69.5831L142.424 65.9674Z" fill="white"/>
<path d="M139.086 59.5124L140.551 62.1673L131.765 67.0308L130.3 64.376L139.086 59.5124Z" fill="white"/>
<path d="M132.975 51.0463L134.797 53.4701L128.832 57.9548L131.023 60.87L128.96 62.4211L124.947 57.0821L132.975 51.0463Z" fill="white"/>
<path d="M120.279 40.1638L126.044 44.3555L124.646 46.2695L121.232 43.7873L120.331 45.0218L123.293 47.1752L122.077 48.8401L119.115 46.6867L118.114 48.0571L121.641 50.6214L120.235 52.5468L114.357 48.2729L120.279 40.1638Z" fill="white"/>
<path d="M107.123 45.9627C106.072 45.6072 105.224 45.0887 104.58 44.4074C103.945 43.7291 103.546 42.9382 103.382 42.0347C103.221 41.1224 103.316 40.1537 103.667 39.1285C104.021 38.0945 104.527 37.2648 105.184 36.6392C105.854 36.0078 106.634 35.6158 107.524 35.4633C108.417 35.3019 109.362 35.39 110.361 35.7277C111.182 36.0056 111.865 36.3994 112.411 36.9092C112.964 37.4219 113.352 38.0166 113.574 38.6931C113.796 39.3697 113.831 40.0867 113.68 40.8443L110.843 40.6241C110.9 40.229 110.889 39.8705 110.812 39.5486C110.738 39.2179 110.593 38.937 110.376 38.706C110.162 38.4661 109.883 38.2879 109.539 38.1713C109.115 38.0279 108.708 38.0085 108.317 38.113C107.926 38.2175 107.579 38.4402 107.275 38.7812C106.971 39.1221 106.727 39.5621 106.542 40.1012C106.361 40.6314 106.299 41.1283 106.357 41.5917C106.416 42.0551 106.584 42.4571 106.861 42.7975C107.142 43.1292 107.521 43.3757 107.998 43.537C108.395 43.6715 108.792 43.7071 109.189 43.6439C109.585 43.5807 109.943 43.4259 110.264 43.1794C110.594 42.936 110.864 42.6082 111.074 42.1961L113.624 43.4284C113.251 44.2588 112.733 44.9218 112.071 45.4175C111.411 45.9044 110.656 46.1962 109.805 46.2929C108.953 46.3895 108.06 46.2795 107.123 45.9627Z" fill="white"/>
<path d="M93.5663 33.9274L97.2912 33.8354L100.987 43.7656L97.8083 43.8442L97.2677 42.108L93.9209 42.1907L93.4393 43.9521L90.2885 44.03L93.5663 33.9274ZM96.7346 40.0636L95.4906 36.1753L95.4626 36.176L94.3681 40.1221L96.7346 40.0636Z" fill="white"/>
<path d="M79.2999 37.0092L82.1993 36.0871L84.4344 43.1802L87.9217 42.0712L88.6947 44.5245L82.3079 46.5555L79.2999 37.0092Z" fill="white"/>
<path d="M67.2383 43.8914L71.5109 41.2528C72.1952 40.8302 72.8716 40.5821 73.5403 40.5086C74.209 40.435 74.8234 40.5318 75.3835 40.799C75.9436 41.0662 76.4045 41.4932 76.7662 42.08C77.1327 42.6748 77.3057 43.2851 77.285 43.911C77.2722 44.532 77.083 45.1251 76.7174 45.6903C76.3517 46.2556 75.8228 46.7519 75.1306 47.1794L73.4597 48.2113L75.0533 50.8237L72.4874 52.4084L67.2383 43.8914ZM73.5527 45.6084C73.8232 45.4413 74.0271 45.2552 74.1642 45.05C74.3045 44.832 74.375 44.6078 74.3758 44.3774C74.3797 44.1342 74.3132 43.9015 74.1764 43.6795C73.9662 43.3385 73.6807 43.1425 73.3198 43.0917C72.9669 43.036 72.5875 43.1334 72.1818 43.384L70.9406 44.1505L72.3234 46.3675L73.5527 45.6084Z" fill="white"/>
<path d="M64.1913 61.4178C63.4659 62.2738 62.6578 62.8887 61.7672 63.2624C60.8755 63.6229 59.9689 63.72 59.0475 63.5536C58.1322 63.3801 57.2688 62.9506 56.4576 62.2652C55.6392 61.5738 55.0685 60.7918 54.7456 59.9192C54.4287 59.0395 54.3781 58.1338 54.5938 57.2021C54.8155 56.2632 55.2891 55.3658 56.0145 54.5098C56.746 53.6467 57.554 53.0318 58.4386 52.6652C59.3232 52.2987 60.2262 52.1986 61.1476 52.365C62.069 52.5314 62.9389 52.9603 63.7573 53.6517C64.5686 54.3371 65.1327 55.1196 65.4495 55.9994C65.7664 56.8791 65.8206 57.7878 65.612 58.7256C65.3964 59.6573 64.9228 60.5547 64.1913 61.4178ZM62.2272 59.7585C62.5657 59.359 62.773 58.9343 62.849 58.4844C62.925 58.0345 62.8759 57.5952 62.7018 57.1666C62.5206 56.732 62.2166 56.3343 61.7896 55.9736C61.3626 55.6129 60.9194 55.3793 60.4602 55.2728C60.0009 55.1663 59.5589 55.1907 59.1342 55.346C58.7024 55.4953 58.3172 55.7697 57.9786 56.1692C57.6462 56.5615 57.4389 56.9862 57.3568 57.4432C57.2737 57.8871 57.3228 58.3264 57.504 58.761C57.6912 59.1885 57.9983 59.5826 58.4253 59.9433C58.8523 60.3041 59.2924 60.5412 59.7457 60.6548C60.1978 60.7553 60.6398 60.7309 61.0716 60.5816C61.5095 60.4252 61.8947 60.1508 62.2272 59.7585Z" fill="white"/>
<path d="M45.4518 71.4168L47.1264 68.4018L54.4604 68.4133L54.474 68.3888L48.8555 65.2888L50.2306 62.8131L58.995 67.6488L57.3136 70.676L49.9986 70.659L49.985 70.6836L55.5913 73.7767L54.2162 76.2525L45.4518 71.4168Z" fill="white"/>
<path d="M131.427 144.199L124.505 143.796L126.031 141.28L130.088 141.75L130.102 141.728L127.733 138.475L129.279 135.926L132.892 141.784L135.604 143.419L134.139 145.835L131.427 144.199Z" fill="white"/>
<path d="M119.062 150.412L123.235 145.245L124.943 146.619L122.472 149.679L123.574 150.566L125.718 147.912L127.204 149.107L125.061 151.762L126.284 152.746L128.837 149.585L130.555 150.968L126.301 156.237L119.062 150.412Z" fill="white"/>
<path d="M112.819 156.089L114.909 154.186L119.558 159.288L122.072 157L123.68 158.764L119.076 162.955L112.819 156.089Z" fill="white"/>
<path d="M105.836 160.527L108.218 159.006L111.928 164.826L114.793 162.996L116.077 165.009L110.829 168.361L105.836 160.527Z" fill="white"/>
<path d="M98.2414 163.187L101.499 162.011L107.684 169.658L104.904 170.662L103.916 169.294L100.989 170.351L101.083 172.042L98.3275 173.037L98.2414 163.187ZM102.843 167.653L100.601 164.599L100.576 164.607L100.774 168.4L102.843 167.653Z" fill="white"/>
<path d="M86.3288 164.653L89.2341 164.427L91.7438 171.176L91.7697 171.174L93.229 164.115L96.1473 163.888L93.541 173.42L90.2984 173.673L86.3288 164.653Z" fill="white"/>
<path d="M74.4841 167.594L73.3806 160.758L76.167 161.682L76.5857 165.741L76.6104 165.75L79.274 162.713L82.0975 163.649L77.1595 168.481L76.1493 171.491L73.4739 170.603L74.4841 167.594Z" fill="white"/>
<path d="M66.4532 155.836L70.3353 158.39C70.957 158.798 71.4286 159.27 71.7501 159.803C72.0716 160.337 72.2284 160.892 72.2206 161.469C72.2127 162.045 72.0317 162.602 71.6774 163.137C71.3184 163.68 70.8711 164.067 70.3355 164.296C69.8072 164.531 69.2338 164.606 68.6155 164.521C67.9972 164.436 67.3736 164.187 66.7447 163.774L65.2265 162.775L63.6431 165.147L61.3117 163.613L66.4532 155.836ZM67.4565 161.826C67.7023 161.988 67.9383 162.086 68.1644 162.12C68.4026 162.152 68.6189 162.123 68.8135 162.033C69.02 161.94 69.1903 161.792 69.3243 161.59C69.5302 161.278 69.5845 160.961 69.4873 160.637C69.3973 160.318 69.168 160.037 68.7993 159.795L67.6716 159.053L66.3396 161.091L67.4565 161.826Z" fill="white"/>
<path d="M59.7357 148.595L62.9255 151.971C63.4363 152.512 63.7869 153.079 63.9772 153.672C64.1675 154.266 64.1927 154.842 64.0528 155.403C63.913 155.963 63.6093 156.463 63.1419 156.904C62.6682 157.351 62.1446 157.625 61.5711 157.726C61.0036 157.833 60.4288 157.775 59.8469 157.551C59.265 157.327 58.7157 156.942 58.1989 156.395L56.9515 155.074L54.8677 157.022L52.952 154.995L59.7357 148.595ZM59.3377 154.66C59.5397 154.874 59.7467 155.024 59.9587 155.109C60.183 155.195 60.4001 155.216 60.61 155.172C60.8321 155.129 61.0316 155.024 61.2084 154.857C61.48 154.601 61.6057 154.304 61.5854 153.967C61.571 153.635 61.4124 153.309 61.1095 152.989L60.1828 152.008L58.42 153.689L59.3377 154.66Z" fill="white"/>
<path d="M55.5101 141.585L57.3124 144.528L51.0508 152.161L49.5127 149.649L50.6565 148.399L49.0371 145.755L47.3987 146.197L45.8742 143.707L55.5101 141.585ZM52.0513 147.01L54.5973 144.185L54.5838 144.162L50.9062 145.14L52.0513 147.01Z" fill="white"/>
<path d="M50.2559 129.02L51.2569 131.652L48.0709 132.872L49.1688 135.76L52.3548 134.54L53.3558 137.172L44.649 140.506L43.648 137.873L47.1137 136.546L46.0158 133.659L42.5501 134.986L41.5491 132.354L50.2559 129.02Z" fill="white"/>
<g clip-path="url(#clip0_977_13476)">
<path d="M82.8114 67.799L93.5952 69.01C96.0707 69.288 97.8452 71.4983 97.5537 73.9405L96.9189 79.2587C96.2769 84.6375 91.3302 88.5065 85.8782 87.8943C80.4261 87.282 76.5218 82.419 77.1638 77.0402L77.7986 71.722C78.0901 69.2797 80.3384 67.5213 82.8139 67.7993L82.8114 67.799Z" fill="black"/>
<path d="M102.566 70.0175L113.35 71.2285C115.826 71.5066 117.6 73.7168 117.309 76.159L116.674 81.4772C116.032 86.856 111.085 90.725 105.633 90.1128C100.181 89.5005 96.2766 84.6375 96.9187 79.2587L97.5535 73.9405C97.845 71.4983 100.093 69.7398 102.569 70.0178L102.566 70.0175Z" fill="black"/>
<path d="M119.541 105.434C121.256 112.455 118.263 119.409 114.212 125.098C112.423 127.62 110.389 130.458 107.67 132.156C111.995 124.799 116.09 120.334 117.561 110.555C118.092 107 118.097 103.792 117.578 100.961C118.492 102.333 119.159 103.874 119.541 105.434Z" fill="#F18221"/>
<path d="M117.183 96.2886C122.967 101.019 123.858 109.551 121.846 116.315C120.622 120.438 118.384 124.24 115.817 127.684C113.446 130.87 110.704 134.343 106.797 135.714C106.719 135.742 106.64 135.765 106.563 135.781C106.08 135.864 105.668 136.147 105.5 136.6C104.804 138.53 103.968 141.093 103.047 143.16C102.618 142.41 102.093 141.702 101.484 141.05C101.418 140.981 101.356 140.917 101.287 140.848C102.381 138.017 103.391 134.354 104.126 133.008C104.813 131.742 105.493 130.586 106.153 129.503C106.146 129.495 106.147 129.49 106.143 129.483C110.172 122.871 113.605 118.928 114.917 110.162C115.7 104.983 115.256 100.673 113.613 97.3781C113.517 97.188 113.282 96.9235 113.083 96.7587C109.932 97.1758 106.816 97.7589 103.633 97.9245C101.458 98.0288 99.2098 98.0735 97.0634 97.6655C96.9101 97.636 96.7372 97.6043 96.6043 97.5084C96.4049 97.3853 96.5497 97.3402 96.7131 97.3266C98.6329 97.1936 100.557 97.1249 102.492 96.8682C104.523 96.5979 106.551 96.2413 108.557 95.8085C111.062 95.2574 113.592 94.5569 115.683 93.0878C119.571 90.3521 120.742 85.5704 120.537 81.0959C120.348 76.9275 118.8 72.5232 115.95 69.3991C113.201 66.3846 109.242 65.0314 105.181 65.4593C104.798 65.5022 104.412 65.5596 104.033 65.63C102.774 65.8814 101.554 66.3411 100.414 67.0086C99.1763 67.8714 97.2852 67.659 96.2834 66.5447C94.3369 64.6909 91.8358 63.6267 89.2075 63.3561C87.3873 63.1763 85.5124 63.3709 83.7178 63.9771C83.4687 64.0621 83.2191 64.1519 82.9772 64.2598C82.9781 64.2525 82.986 64.2485 82.9918 64.2418L82.9138 64.2699C82.8024 64.3065 82.6942 64.3582 82.5896 64.4004C81.6433 64.8221 80.7613 65.3516 79.9428 65.9742C79.479 66.3149 79.0314 66.687 78.6252 67.0883C78.5194 67.182 78.421 67.2765 78.3144 67.3775C77.8072 67.873 77.3274 68.4108 76.8903 68.9657C76.7402 69.16 76.5931 69.3498 76.4512 69.5376C76.025 70.1061 75.6376 70.7034 75.2822 71.3043C75.1719 71.4982 75.0669 71.6902 74.9664 71.8852C74.7337 72.3133 74.5166 72.7554 74.325 73.1931C74.1603 73.5723 74.007 73.9602 73.8785 74.3485C73.6672 74.9091 73.4977 75.4745 73.3592 76.0507C73.1134 77.0052 72.9526 77.9766 72.8729 78.9572C72.6667 81.5392 72.8001 84.3213 74.101 86.6208C74.4502 87.2394 74.8547 87.8128 75.3126 88.3553C75.9923 89.1658 76.7813 89.8952 77.6427 90.5395C78.2787 91.0283 78.9509 91.4647 79.6487 91.8525C79.8835 91.9918 80.1273 92.1174 80.3709 92.2454C80.5184 92.3233 80.6729 92.4045 80.8366 92.472C80.9552 92.5418 81.0802 92.6001 81.2054 92.6559C81.3421 92.7203 81.4858 92.788 81.6347 92.8539C81.7837 92.9197 81.9397 92.9888 82.0969 93.0482C82.7027 93.3102 83.324 93.5469 83.9394 93.7707C84.0486 93.8149 84.163 93.8572 84.2707 93.8938C84.4835 93.9668 84.6895 94.0342 84.8955 94.1015C85.1009 94.1737 85.3183 94.2497 85.5319 94.3154L85.5516 94.3176C85.6789 94.3565 85.8061 94.3953 85.9285 94.4336C86.1468 94.5023 86.3727 94.5694 86.5916 94.6333C86.9641 94.7439 87.3337 94.859 87.7117 94.9653C87.9014 95.0234 88.0892 95.0765 88.2838 95.1351C88.383 95.1586 88.474 95.1884 88.5702 95.2164C88.5825 95.2178 88.6013 95.2273 88.6308 95.2306C88.8204 95.2887 89.362 95.4428 89.4265 95.4869C89.4792 95.5247 89.5073 95.6016 89.4524 95.6445C89.3358 95.7247 89.0942 95.6853 88.9708 95.6764C88.8275 95.6676 88.6826 95.6514 88.5352 95.6348C87.8018 95.5451 87.066 95.433 86.3355 95.319C84.6717 95.0585 82.9984 94.9197 81.358 94.5047C79.351 93.992 77.3412 93.2949 75.6061 92.2554C74.9989 92.3174 74.2367 92.6983 73.8821 93.125C71.527 96.0082 70.1356 100.117 69.7265 105.338C69.0411 114.186 71.5164 118.761 73.9649 126.063L73.9429 126.08C74.3435 127.269 74.7477 128.533 75.1313 129.906C76.013 133.028 75.4206 136.406 76.398 139.477C75.5937 140.19 74.9118 141.002 74.3579 141.89C73.6313 139.532 73.3197 135.846 73.0012 133.198C72.9352 132.687 72.5653 132.304 72.0868 132.101C72.0087 132.068 71.9314 132.027 71.8547 131.982C67.9778 129.599 65.948 124.961 64.297 120.946C61.1973 113.428 59.9766 104.702 64.3239 97.3674C66.1248 94.3114 69.005 91.6369 72.4609 90.5198C72.4854 90.5226 72.8257 90.3619 73.0929 90.2495C72.3278 89.4245 71.6936 88.462 71.2486 87.3317C69.9172 83.9534 69.7905 80.0106 70.3789 76.4575C71.1813 71.5902 73.7066 66.9066 77.5917 63.7778C80.9811 61.0499 85.2028 59.2086 89.8115 58.3586C92.8681 57.7933 96.0915 57.6643 99.3648 58.0147L99.4458 58.0238C99.4949 58.0293 99.5456 58.0424 99.5948 58.0479C107.693 58.9696 114.863 62.6795 119.306 68.2462C122.918 72.7818 124.06 78.8496 123.084 84.4855C122.55 87.5855 121.539 90.7793 119.48 93.2417C118.62 94.277 117.564 95.1357 116.363 95.7521C116.704 95.9647 117.114 96.2219 117.196 96.2875L117.183 96.2886ZM114.21 125.097C118.261 119.409 121.254 112.455 119.538 105.434C119.157 103.874 118.49 102.331 117.576 100.961C118.094 103.794 118.089 107.002 117.558 110.555C116.087 120.334 111.993 124.799 107.668 132.156C110.387 130.458 112.42 127.622 114.21 125.097ZM67.6088 121.494C68.7157 123.939 69.9384 126.539 71.8928 128.431C69.3159 120.286 66.29 115.07 67.0536 105.17C67.347 101.503 68.0824 98.3027 69.2721 95.6126C65.2539 99.2716 63.8547 105.302 64.4032 110.527C64.8035 114.346 66.0309 118.012 67.6085 121.497L67.6088 121.494Z" fill="#0057C7"/>
<path d="M120.534 81.1004C120.737 85.5772 119.569 90.3567 115.681 93.0924C113.589 94.5615 111.059 95.2595 108.554 95.813C106.549 96.2459 104.52 96.6049 102.489 96.8728C100.555 97.127 98.6301 97.1981 96.7103 97.3312C96.5445 97.3445 96.3997 97.3896 96.6015 97.5129C96.7344 97.6089 96.9073 97.6406 97.0606 97.6701C99.2046 98.0778 101.455 98.0334 103.63 97.929C106.813 97.7635 109.929 97.1804 113.08 96.7632C113.282 96.9283 113.514 97.1926 113.611 97.3827C115.253 100.676 115.697 104.986 114.914 110.167C113.604 118.933 110.17 122.873 106.14 129.487C104.376 126.522 100.097 121.713 90.5949 120.771C81.8641 119.771 76.481 123.564 73.9566 126.072C71.5057 118.769 69.0329 114.195 69.7182 105.347C70.1274 100.126 71.519 96.0147 73.8739 93.1338C74.2284 92.7071 74.9907 92.3262 75.5979 92.2643C77.3329 93.3038 79.3425 94.0033 81.3498 94.5136C82.9901 94.9286 84.6638 95.065 86.3272 95.3279C87.0578 95.4418 87.7935 95.5539 88.527 95.6437C88.6768 95.6605 88.8192 95.6765 88.9625 95.6852C89.0887 95.692 89.3276 95.7336 89.4442 95.6534C89.4991 95.6104 89.4712 95.5312 89.4182 95.4958C89.3538 95.4517 88.8122 95.2976 88.6225 95.2394C88.6708 95.2522 88.7267 95.2634 88.7866 95.2824C76.4812 90.4728 73.5108 84.2071 74.2326 78.5353C75.0933 71.7422 81.2372 65.8077 82.9714 64.2689C83.2111 64.1584 83.4607 64.0685 83.712 63.9863C85.5041 63.3797 87.3815 63.1854 89.2017 63.3653C91.83 63.6359 94.3311 64.7 96.2776 66.5539C97.2795 67.6682 99.1705 67.8805 100.408 67.0178C101.548 66.3502 102.768 65.8905 104.027 65.6391C104.407 65.5688 104.791 65.5138 105.175 65.4685C109.236 65.0406 113.196 66.3937 115.944 69.4082C118.792 72.532 120.342 76.9366 120.531 81.105L120.534 81.1004ZM104.999 88.9391C110.458 89.5201 115.438 85.3038 116.094 79.5386C116.751 73.7613 112.848 68.5964 107.39 68.013C103.252 67.5679 99.3856 69.8935 97.4745 73.5608C96.4369 69.5771 93.1935 66.4948 89.0533 66.047C83.5951 65.466 78.6218 69.6831 77.966 75.4483C77.3093 81.2208 81.2119 86.3905 86.6699 86.974C88.5249 87.1749 90.3204 86.8118 91.9067 86.0324L92.6449 88.9389C93.2131 91.2052 94.8536 91.5564 95.3448 91.6116C95.8359 91.6667 97.5369 91.6785 98.6066 89.5765L100.012 86.8297C101.401 87.9752 103.108 88.7316 104.999 88.9391Z" fill="#F18221"/>
<path d="M116.093 79.5386C115.438 85.3038 110.457 89.5225 104.999 88.939C103.107 88.7339 101.401 87.9751 100.012 86.8297L98.6061 89.5765C97.5367 91.676 95.8403 91.6672 95.3443 91.6115C94.8482 91.5558 93.2126 91.2052 92.6444 88.9389L91.9062 86.0323C90.3199 86.8118 88.5241 87.1773 86.6693 86.9739C81.2111 86.3929 77.3088 81.2207 77.9655 75.4483C78.6213 69.6831 83.5949 65.4635 89.0528 66.047C93.1908 66.4921 96.4366 69.5746 97.474 73.5608C99.3873 69.8962 103.252 67.5679 107.39 68.0129C112.848 68.594 116.751 73.7589 116.093 79.5386ZM105.184 87.3418C109.753 87.8303 113.925 84.2573 114.482 79.3625C115.041 74.468 111.776 70.0916 107.207 69.6032C104.507 69.3122 101.944 70.4558 100.186 72.4412C99.9018 72.758 99.6481 73.0904 99.4161 73.4499C98.6241 74.6426 98.0902 76.0509 97.9139 77.5903C97.3554 82.4776 100.621 86.8563 105.184 87.3442L105.184 87.3418ZM97.2424 88.9077L98.8684 85.7314C97.7965 84.5159 97.0086 83.0476 96.5831 81.421C95.782 82.9614 94.6319 84.2563 93.268 85.2154L94.1146 88.5687C94.4381 89.8622 95.2007 90.0829 95.5175 90.1185L95.5249 90.1193C95.8376 90.1471 96.6296 90.101 97.24 88.9074L97.2424 88.9077ZM86.8526 85.3764C91.4155 85.8692 95.5857 82.2911 96.1451 77.3966C96.6962 72.5085 93.4389 68.1257 88.8754 67.6378C84.2997 67.1485 80.1282 70.7363 79.5771 75.6244C79.0178 80.5189 82.279 84.8898 86.8523 85.3789L86.8526 85.3764Z" fill="#0057C7"/>
<path d="M114.482 79.3626C113.923 84.2571 109.753 87.8304 105.185 87.3419C100.622 86.854 97.3563 82.4752 97.9148 77.588C98.0913 76.0462 98.625 74.6403 99.4169 73.4475C99.649 73.0881 99.9027 72.7556 100.187 72.4389C101.942 70.4532 104.508 69.3098 107.208 69.6008C111.776 70.0893 115.042 74.4681 114.483 79.3602L114.482 79.3626ZM105.595 83.7441C108.332 84.0393 110.826 81.9131 111.152 79.0083C111.487 76.097 109.536 73.4961 106.796 73.2007C104.063 72.9062 101.565 75.0318 101.237 77.9439C100.902 80.8551 102.862 83.4496 105.595 83.7441Z" fill="white"/>
<path d="M103.047 143.16C104.401 145.487 104.882 148.218 104.387 150.947C104.202 151.972 103.527 152.23 103.137 152.287C102.885 152.332 102.641 152.317 102.405 152.249C101.557 152.011 100.758 151.094 99.7222 149.639C99.6621 149.559 99.6137 149.485 99.5812 149.444C99.1083 148.819 98.5698 148.243 97.9789 147.71C99.126 147.441 100.086 147.07 100.778 146.588C101.128 147.411 101.407 148.282 101.87 149.011C101.997 149.22 102.359 149.152 102.366 148.925C102.396 148.088 102.302 147.25 102.077 146.429C101.999 146.121 101.902 145.826 101.786 145.525C102.219 144.901 102.641 144.079 103.047 143.16Z" fill="#0057C7"/>
<path d="M106.142 129.485C106.142 129.485 106.148 129.498 106.152 129.506C105.493 130.588 104.812 131.744 104.126 133.01C103.392 134.359 102.38 138.02 101.286 140.851C101.286 140.851 101.279 140.842 101.275 140.842C102.375 138.004 103.394 134.32 104.132 132.959C104.812 131.705 105.483 130.563 106.142 129.485Z" fill="#E0752D"/>
<path d="M111.152 79.0082C110.825 81.913 108.332 84.0392 105.594 83.7441C102.862 83.4495 100.902 80.8551 101.237 77.9438C101.565 75.0317 104.063 72.9061 106.796 73.2007C109.533 73.4958 111.487 76.0969 111.152 79.0082ZM109.94 78.548C110.037 78.1168 109.862 77.6184 109.7 77.227C109.519 76.7843 109.268 76.3585 108.937 76.0094C108.656 75.7103 108.304 75.4522 107.897 75.3819C107.719 75.3496 107.556 75.4443 107.503 75.6175C107.402 75.9353 107.642 76.2421 107.836 76.4702C108.14 76.8284 108.492 77.1527 108.797 77.516C108.922 77.6725 109.042 77.8357 109.148 78.0097C109.275 78.218 109.339 78.4117 109.414 78.6435C109.428 78.6894 109.441 78.7276 109.469 78.7627C109.533 78.8509 109.671 78.8664 109.767 78.8085C109.861 78.7576 109.925 78.6519 109.943 78.5483L109.94 78.548Z" fill="black"/>
<path d="M106.143 129.485C105.484 130.563 104.812 131.705 104.132 132.959C103.398 134.321 102.375 138.004 101.275 140.842C100.798 140.359 100.291 139.953 99.754 139.596C99.754 139.596 98.3487 139.755 96.9638 139.201C96.4178 138.605 95.865 137.106 95.3957 136.388C95.2837 136.221 95.0182 136.277 94.9953 136.468C94.9052 137.286 94.1991 138.176 93.6454 138.333C92.4246 137.948 89.5062 138.315 89.5053 138.322C88.2616 138.295 87.1655 137.386 85.8894 137.506C85.2249 137.151 84.6215 137.14 84.9583 135.319C84.9963 135.105 84.7083 134.974 84.5684 135.145C83.9161 135.961 82.9763 137.287 82.4591 137.658C80.9864 137.903 79.6412 137.455 79.6412 137.455C78.9542 137.726 78.2812 138.068 77.6231 138.515C77.1974 138.808 76.7889 139.123 76.412 139.466C75.4223 136.394 76.0162 133.004 75.131 129.87C74.75 128.516 74.3526 127.258 73.9588 126.074C76.4832 123.566 81.8662 119.773 90.597 120.773C100.099 121.715 104.378 126.525 106.142 129.49L106.143 129.485Z" fill="#E0752D"/>
<path d="M102.366 148.925C102.358 149.155 101.997 149.22 101.87 149.011C101.41 148.282 101.128 147.411 100.778 146.588C100.854 146.535 100.923 146.479 100.994 146.426C101.259 146.212 101.529 145.906 101.789 145.526C101.905 145.826 102.001 146.121 102.079 146.43C102.302 147.25 102.399 148.089 102.368 148.925L102.366 148.925Z" fill="#FFBA00"/>
<path d="M109.7 77.2271C109.862 77.6185 110.034 78.1166 109.94 78.548C109.92 78.6514 109.858 78.7573 109.765 78.8083C109.671 78.8664 109.533 78.851 109.467 78.7625C109.438 78.7274 109.426 78.6891 109.411 78.6433C109.337 78.4115 109.273 78.2177 109.146 78.0095C109.04 77.8355 108.922 77.6726 108.794 77.5158C108.491 77.1528 108.14 76.826 107.834 76.47C107.639 76.2419 107.4 75.9351 107.5 75.6173C107.553 75.444 107.714 75.3491 107.894 75.3817C108.301 75.4519 108.656 75.7103 108.934 76.0092C109.263 76.358 109.516 76.7841 109.697 77.2268L109.7 77.2271Z" fill="white"/>
<path d="M103.046 143.16C102.641 144.079 102.221 144.901 101.786 145.525C101.447 144.615 100.965 143.749 100.345 142.957C100.663 142.364 100.975 141.641 101.284 140.848C101.351 140.917 101.413 140.98 101.482 141.049C102.091 141.702 102.619 142.407 103.044 143.16L103.046 143.16Z" fill="#0057C7"/>
<path d="M101.786 145.525C101.527 145.906 101.256 146.212 100.992 146.426C100.923 146.479 100.852 146.535 100.776 146.588C100.433 145.81 100.036 145.073 99.3754 144.54C99.3414 144.512 99.2828 144.461 99.21 144.404C99.2643 144.365 99.3217 144.323 99.3766 144.28C99.6983 144.024 100.022 143.562 100.348 142.957C100.966 143.749 101.449 144.618 101.789 145.525L101.786 145.525Z" fill="#FFBA00"/>
<path d="M101.275 140.842L101.286 140.851C100.978 141.643 100.665 142.367 100.348 142.96C100.342 142.947 100.338 142.939 100.33 142.938C100.651 142.353 100.964 141.63 101.275 140.842Z" fill="#0057C7"/>
<path d="M101.275 140.842C100.967 141.627 100.655 142.351 100.331 142.938C100.107 142.646 99.8642 142.363 99.6046 142.098C99.307 141.797 99.0012 141.502 98.6625 141.234C98.437 141.058 98.192 140.901 97.9271 140.785C97.3438 140.501 95.9572 140.608 95.3373 140.401L93.6833 139.371C93.4426 139.218 93.1664 139.114 92.8765 139.061L89.7826 139.939C89.4369 139.937 89.1828 139.835 88.8458 139.76L86.4902 139.103C86.2006 139.09 85.8856 138.414 85.6108 138.506L83.7678 139.163C83.1214 139.24 81.7953 138.841 81.1596 138.995C80.876 139.057 80.5921 139.163 80.3363 139.284C79.9549 139.476 79.581 139.69 79.2195 139.924C78.536 140.375 77.9106 140.902 77.3677 141.489C77.2695 141.353 77.1857 141.221 77.1012 141.074C76.8103 140.55 76.5856 140.014 76.4095 139.466C76.784 139.123 77.1949 138.808 77.6207 138.515C78.2791 138.065 78.9493 137.726 79.6387 137.455C79.6387 137.455 80.9836 137.905 82.4566 137.658C82.9739 137.286 83.9133 135.963 84.566 135.145C84.7058 134.974 84.9936 135.107 84.9559 135.319C84.619 137.14 85.2222 137.153 85.887 137.506C87.1628 137.389 88.2567 138.295 89.5029 138.322C89.5037 138.314 92.4221 137.947 93.6429 138.332C94.1967 138.176 94.9028 137.285 94.9929 136.468C95.0157 136.277 95.2813 136.221 95.3932 136.388C95.8625 137.106 96.4153 138.604 96.9614 139.201C98.3463 139.754 99.7515 139.595 99.7515 139.595C100.288 139.955 100.795 140.358 101.273 140.842L101.275 140.842Z" fill="#0057C7"/>
<path d="M100.33 142.936C100.33 142.936 100.342 142.945 100.348 142.957C100.024 143.562 99.6977 144.024 99.3759 144.28C99.321 144.323 99.2634 144.368 99.2093 144.404C99.1979 144.395 99.1911 144.389 99.1797 144.381C99.2478 144.332 99.3188 144.278 99.3795 144.229C99.7007 143.977 100.019 143.522 100.328 142.936L100.33 142.936Z" fill="#FFBA00"/>
<path d="M99.6067 142.096C99.8663 142.361 100.109 142.643 100.333 142.936C100.024 143.523 99.7032 143.978 99.3844 144.229C99.3213 144.279 99.2527 144.332 99.1846 144.381C98.9135 144.171 98.48 143.904 98.3259 144.236L98.0887 144.806C98.0015 145.014 97.7114 145.068 97.519 144.928C97.4025 144.841 97.3247 144.7 97.2635 144.588C97.1345 144.355 97.0288 144.114 96.8478 143.9C96.6486 143.671 96.4217 143.467 96.1786 143.273C96.1598 143.263 96.144 143.249 96.1235 143.254L95.5773 143.598C95.3783 143.575 95.1861 143.497 95.0116 143.416C94.2049 143.002 93.3632 142.652 92.5127 142.333C92.8306 142.256 91.3147 141.756 90.2369 141.549C89.999 141.479 89.7616 141.403 89.5188 141.331C89.4451 141.323 89.3239 141.317 89.2502 141.309C88.997 141.324 88.7481 141.345 88.4997 141.362C87.392 141.343 85.8037 141.513 86.1016 141.645C85.1962 141.786 84.2937 141.945 83.415 142.176C83.2285 142.216 83.019 142.261 82.8201 142.239C82.5721 142.211 82.4899 142.003 82.404 141.826C82.3931 141.813 82.3832 141.792 82.3635 141.79C82.3447 141.78 82.3258 141.793 82.313 141.796C82.033 141.932 81.7605 142.088 81.5127 142.266C81.2909 142.435 81.1339 142.646 80.9577 142.85C80.8643 142.945 80.763 143.064 80.6282 143.13C80.408 143.223 80.1382 143.106 80.109 142.892L79.9926 142.282C79.8963 141.817 79.1004 142.251 78.8941 142.353C78.7275 142.435 78.5696 142.528 78.4241 142.641C78.0239 142.304 77.6662 141.923 77.3701 141.484C77.9128 140.9 78.5359 140.37 79.2219 139.92C79.5831 139.688 79.957 139.474 80.3387 139.279C80.5921 139.158 80.876 139.052 81.162 138.991C81.7974 138.839 83.1238 139.236 83.7702 139.158L85.6132 138.501C85.8883 138.407 86.2057 139.083 86.4926 139.098L88.8482 139.756C89.1853 139.83 89.4391 139.935 89.7851 139.935L92.8789 139.057C93.1688 139.109 93.4475 139.214 93.6857 139.366L95.3397 140.396C95.9571 140.603 97.3462 140.496 97.9295 140.781C98.192 140.896 98.4391 141.056 98.6649 141.229C99.0037 141.498 99.3095 141.792 99.607 142.093L99.6067 142.096Z" fill="#FFBA00"/>
<path d="M99.3774 144.54C100.038 145.074 100.435 145.811 100.778 146.588C100.083 147.07 99.1257 147.441 97.9786 147.71C97.1138 146.928 96.1488 146.255 95.1093 145.664C96.6703 145.535 98.1416 145.177 99.2123 144.401C99.2876 144.459 99.3437 144.509 99.3777 144.538L99.3774 144.54Z" fill="#0057C7"/>
<path d="M99.1828 144.381C99.1942 144.39 99.201 144.395 99.2124 144.404C98.1416 145.18 96.6682 145.535 95.1094 145.667C95.0872 145.645 95.0632 145.637 95.0395 145.627C96.6122 145.504 98.1022 145.156 99.1852 144.381L99.1828 144.381Z" fill="#0057C7"/>
<path d="M98.3235 144.235C98.4776 143.904 98.9111 144.171 99.1822 144.381C98.0992 145.155 96.6092 145.504 95.0365 145.627C94.1048 145.092 93.1248 144.629 92.1198 144.229C91.2131 143.859 90.2837 143.556 89.3558 143.26L88.9694 143.224C87.9931 143.313 87.0227 143.416 86.0521 143.582C84.8102 143.791 83.5703 144.086 82.3874 144.488C80.8945 144.11 79.4939 143.542 78.4214 142.644C78.5669 142.53 78.7227 142.434 78.8914 142.355C79.1002 142.253 79.8934 141.822 79.9899 142.284L80.1063 142.894C80.1379 143.109 80.4075 143.228 80.6255 143.132C80.7603 143.066 80.8616 142.947 80.9551 142.852C81.1312 142.648 81.2885 142.435 81.51 142.269C81.7578 142.09 82.0278 141.934 82.3103 141.799C82.3234 141.793 82.3445 141.783 82.3608 141.792C82.3805 141.794 82.3904 141.815 82.4013 141.828C82.4872 142.005 82.5694 142.213 82.8174 142.241C83.0164 142.263 83.2234 142.218 83.4123 142.178C84.291 141.947 85.1938 141.786 86.0989 141.647C85.7988 141.513 87.3893 141.345 88.497 141.364C88.7454 141.348 88.9943 141.326 89.2475 141.311C89.3212 141.319 89.4424 141.325 89.5161 141.333C89.7589 141.405 89.9963 141.481 90.2342 141.552C91.312 141.759 92.8276 142.26 92.51 142.335C93.3605 142.654 94.2022 143.004 95.0089 143.419C95.1809 143.499 95.3757 143.578 95.5746 143.6L96.1208 143.256C96.1414 143.251 96.1568 143.268 96.1759 143.275C96.4165 143.469 96.6456 143.676 96.8451 143.902C97.0286 144.117 97.1318 144.357 97.2608 144.59C97.3221 144.702 97.4 144.841 97.5163 144.93C97.7087 145.07 97.9988 145.016 98.086 144.808L98.3233 144.238L98.3235 144.235Z" fill="#0057C7"/>
<path d="M95.1074 145.664C96.1472 146.252 97.1118 146.928 97.9766 147.71C95.2465 148.356 91.4762 148.416 87.7459 148.017C84.5656 147.679 81.4229 147.007 79.0085 146.071C80.0238 145.426 81.1372 144.918 82.3029 144.513C84.4489 145.071 86.7993 145.229 88.6775 145.404C90.4108 145.561 92.8554 145.848 95.1071 145.666L95.1074 145.664Z" fill="#0057C7"/>
<path d="M95.0366 145.624C95.0603 145.634 95.0843 145.642 95.1065 145.664C92.8524 145.845 90.4102 145.559 88.677 145.401C86.8013 145.227 84.4484 145.069 82.3024 144.511C82.3284 144.502 82.3618 144.493 82.3878 144.484C84.5106 145.027 86.8316 145.182 88.6828 145.353C90.3983 145.513 92.8036 145.796 95.0366 145.624Z" fill="#E0752D"/>
<path d="M95.0368 145.624C92.8038 145.796 90.3985 145.513 88.683 145.353C86.8318 145.182 84.5109 145.027 82.388 144.484C83.5709 144.081 84.8108 143.786 86.0528 143.577C87.023 143.413 87.9937 143.309 88.97 143.219L89.3564 143.255C90.2865 143.554 91.2135 143.857 92.1204 144.224C93.1254 144.624 94.1029 145.087 95.0371 145.622L95.0368 145.624Z" fill="#E0752D"/>
<path d="M98.8707 85.7317L97.2447 88.908C96.6368 90.1018 95.8421 90.1501 95.5296 90.1199L95.5222 90.119C95.2054 90.0835 94.4431 89.8604 94.1194 88.5693L93.2727 85.216C94.6341 84.2566 95.7867 82.9619 96.5878 81.4215C97.0109 83.0478 97.8009 84.5189 98.8732 85.732L98.8707 85.7317Z" fill="#FFBA00"/>
<path d="M96.1456 77.3967C95.5863 82.2912 91.4157 85.8717 86.8531 85.3765C82.2774 84.8872 79.0186 80.5166 79.5779 75.622C80.1291 70.7339 84.3029 67.1464 88.8762 67.6355C93.4397 68.1234 96.697 72.5061 96.1459 77.3942L96.1456 77.3967ZM87.2393 81.6828C89.9766 81.978 92.4703 79.8518 92.7971 76.947C93.1322 74.0357 91.1803 71.4348 88.4405 71.1394C85.7082 70.8448 83.2095 72.9705 82.8818 75.8826C82.5468 78.7938 84.5069 81.3883 87.2393 81.6828Z" fill="white"/>
<path d="M92.7967 76.9469C92.4699 79.8517 89.9762 81.9779 87.2389 81.6828C84.5065 81.3882 82.5464 78.7938 82.8814 75.8825C83.2091 72.9704 85.7078 70.8448 88.4401 71.1394C91.1774 71.4345 93.1318 74.0357 92.7967 76.9469ZM91.5824 76.4864C91.6786 76.0553 91.5116 75.5577 91.3418 75.1654C91.1607 74.7228 90.9104 74.2969 90.5788 73.9478C90.2984 73.6487 89.9509 73.3912 89.5387 73.3203C89.3609 73.2881 89.1978 73.3827 89.1447 73.556C89.0446 73.8738 89.2842 74.1806 89.4785 74.4086C89.7817 74.7668 90.1337 75.0912 90.4388 75.4544C90.5644 75.611 90.6843 75.7742 90.7905 75.9482C90.9174 76.1564 90.9888 76.351 91.0558 76.582C91.0702 76.6278 91.0831 76.6661 91.1113 76.7012C91.1754 76.7894 91.3129 76.8048 91.4094 76.7469C91.51 76.6968 91.5675 76.5903 91.5848 76.4867L91.5824 76.4864Z" fill="black"/>
<path d="M91.3441 75.1658C91.5114 75.5578 91.6784 76.0553 91.5846 76.4868C91.5648 76.5901 91.5098 76.6969 91.4092 76.747C91.3152 76.8052 91.1776 76.7897 91.1111 76.7012C91.0829 76.6661 91.07 76.6279 91.0556 76.582C90.9886 76.3511 90.9172 76.1565 90.7903 75.9482C90.6841 75.7743 90.5667 75.6113 90.4386 75.4545C90.136 75.0915 89.7842 74.7647 89.4783 74.4087C89.284 74.1806 89.0444 73.8738 89.1445 73.556C89.1976 73.3828 89.3582 73.2879 89.5385 73.3204C89.9531 73.3915 90.3007 73.6491 90.5786 73.9479C90.9078 74.2967 91.1605 74.7228 91.3417 75.1655L91.3441 75.1658Z" fill="white"/>
<path d="M88.7922 95.2781C88.7323 95.2591 88.6766 95.2455 88.6281 95.2351C88.5962 95.2315 88.5798 95.2223 88.5676 95.221C88.4692 95.1903 88.3779 95.1628 88.2811 95.1397C88.0865 95.081 87.8963 95.0277 87.709 94.9699C87.3307 94.866 86.959 94.7481 86.5889 94.6378C86.3697 94.5764 86.1441 94.5068 85.9258 94.4381C85.8035 94.3998 85.6762 94.361 85.5489 94.3221L85.5416 94.3213C85.3282 94.2532 85.1105 94.1796 84.8928 94.106C84.6868 94.0387 84.4805 93.9738 84.268 93.8984C84.1579 93.8615 84.0438 93.8167 83.9368 93.7752C83.314 93.5506 82.7003 93.3123 82.0942 93.0527C81.9373 92.9909 81.781 92.9242 81.6321 92.8584L81.2199 92.6623C81.0876 92.6033 80.9583 92.5396 80.8315 92.4763C80.6703 92.4091 80.5157 92.3279 80.3657 92.2497C80.1222 92.1216 79.8783 91.996 79.6436 91.8567C78.9466 91.4617 78.2745 91.0253 77.6376 90.5437C76.7885 89.9008 75.9995 89.1714 75.3262 88.369C74.8683 87.8265 74.4639 87.2532 74.122 86.6353C72.8143 84.3302 72.685 81.5559 72.8866 78.9709C72.9663 77.9904 73.1267 77.0213 73.3778 76.0649C73.5163 75.4888 73.6833 74.9231 73.8897 74.3619C74.0184 73.9713 74.1715 73.5858 74.3436 73.2073C74.5352 72.7697 74.7449 72.3267 74.9776 71.8986C75.0756 71.7034 75.1889 71.505 75.2983 71.3184C75.6464 70.7166 76.0411 70.1201 76.46 69.5508C76.6022 69.3605 76.7572 69.1668 76.9064 68.9798C77.3386 68.4243 77.8181 67.8888 78.3305 67.3915C78.4297 67.2897 78.5306 67.1954 78.6363 67.1017C79.05 66.7013 79.4905 66.326 79.954 65.9876C80.8817 65.284 81.8921 64.7002 82.9724 64.2616C81.2379 65.8028 75.0967 71.7352 74.2336 78.528C73.5118 84.1998 76.4846 90.4658 88.7876 95.2751L88.7922 95.2781Z" fill="#E0752D"/>
<path d="M82.3883 144.484C82.3623 144.493 82.329 144.502 82.303 144.511C80.8306 144.127 79.4477 143.557 78.3876 142.659C78.3964 142.648 78.4101 142.637 78.4224 142.639C79.4948 143.537 80.8955 144.105 82.3883 144.484Z" fill="#0057C7"/>
<path d="M82.3027 144.513C81.1394 144.918 80.0259 145.426 79.0082 146.071C78.0574 145.696 77.2106 145.284 76.527 144.839C77.0752 144.041 77.6162 143.221 78.3876 142.659C79.4477 143.557 80.8282 144.127 82.303 144.511L82.3027 144.513Z" fill="#0057C7"/>
<path d="M85.5414 94.3216L85.5292 94.3203C85.3157 94.252 85.0979 94.1784 84.8924 94.1061C85.1102 94.1797 85.3277 94.2558 85.5414 94.3216Z" fill="#0057C7"/>
<path d="M79.0106 146.071C78.5132 146.381 78.0445 146.721 77.601 147.101C77.5598 147.133 77.4952 147.195 77.4178 147.26C76.0823 148.46 75.1018 149.19 74.2191 149.246C73.9707 149.262 73.7242 149.222 73.4891 149.127C73.1277 148.985 72.5255 148.589 72.5741 147.556C72.6675 145.501 73.2839 143.569 74.3521 141.897C74.5784 142.649 74.8509 143.264 75.1809 143.669C75.3022 143.821 75.441 143.971 75.5998 144.122C75.3253 144.732 75.124 145.355 75.0039 146.007C74.9571 146.232 75.2893 146.368 75.4592 146.195C75.8527 145.798 76.1934 145.32 76.5292 144.842C77.213 145.285 78.0595 145.699 79.0104 146.074L79.0106 146.071Z" fill="#0057C7"/>
<path d="M78.4241 142.641C78.4119 142.64 78.3981 142.651 78.3893 142.662C77.9891 142.325 77.6363 141.944 77.3427 141.506C77.3509 141.499 77.3573 141.488 77.3701 141.484C77.6638 141.923 78.0214 142.304 78.4241 142.641Z" fill="#FFBA00"/>
<path d="M78.3893 142.662C77.6158 143.221 77.077 144.044 76.5288 144.842C76.1783 144.609 75.8659 144.37 75.5994 144.121C75.669 143.955 75.7534 143.79 75.8353 143.625C76.2344 142.867 76.7428 142.153 77.3427 141.506C77.6363 141.944 77.989 142.325 78.3893 142.662Z" fill="#FFBA00"/>
<path d="M82.0917 93.0525C82.6975 93.3145 83.3115 93.5504 83.9342 93.775C83.3188 93.5512 82.6978 93.3121 82.0917 93.0525Z" fill="#0057C7"/>
<path d="M77.3707 141.484C77.3576 141.49 77.3487 141.502 77.3433 141.506C77.2559 141.383 77.177 141.252 77.0984 141.117C76.8035 140.586 76.5726 140.039 76.3925 139.484C76.3939 139.472 76.4022 139.465 76.415 139.462C76.5886 140.009 76.8158 140.546 77.1067 141.069C77.1912 141.216 77.2749 141.348 77.3732 141.485L77.3707 141.484Z" fill="#0057C7"/>
<path d="M77.0978 141.117C77.1764 141.252 77.2553 141.383 77.3427 141.506C76.7428 142.153 76.2345 142.867 75.8354 143.625C75.7534 143.79 75.669 143.955 75.5994 144.122C75.4403 143.974 75.3018 143.82 75.1805 143.669C74.8503 143.266 74.578 142.649 74.3518 141.897C74.906 141.006 75.5878 140.194 76.3919 139.484C76.572 140.039 76.8026 140.588 77.0978 141.117Z" fill="#0057C7"/>
<path d="M76.5294 144.84C76.1961 145.318 75.8554 145.795 75.4595 146.193C75.2868 146.367 74.9573 146.23 75.0041 146.004C75.1267 145.353 75.3256 144.729 75.6 144.119C75.8665 144.368 76.179 144.606 76.5294 144.84Z" fill="#FFBA00"/>
<path d="M76.4146 139.46C76.4015 139.465 76.3935 139.469 76.3921 139.482C75.4172 136.411 76.0071 133.032 75.1254 129.911C74.7418 128.537 74.3376 127.274 73.937 126.084L73.959 126.067C74.3528 127.251 74.7529 128.506 75.1311 129.862C76.0188 132.997 75.425 136.387 76.4122 139.459L76.4146 139.46Z" fill="#E0752D"/>
<path d="M81.6294 92.8566C81.4804 92.7906 81.3366 92.7227 81.1999 92.6581C81.0749 92.5998 80.9496 92.5438 80.8309 92.4739C80.9553 92.5371 81.0869 92.6036 81.2195 92.6603L81.6319 92.8569L81.6294 92.8566Z" fill="#0057C7"/>
<path d="M82.9917 64.2467C82.9917 64.2467 82.9779 64.2574 82.9771 64.2647C81.8968 64.7032 80.8888 65.2873 79.9587 65.9907C79.4949 66.3314 79.0547 66.7043 78.641 67.1048C78.5353 67.1985 78.4369 67.293 78.3352 67.3945C77.8231 67.8895 77.3408 68.427 76.9111 68.9828C76.7616 69.1723 76.6066 69.366 76.4647 69.5539C76.0433 70.1228 75.6511 70.7196 75.303 71.3214C75.1936 71.508 75.0803 71.7064 74.9823 71.9017C74.7496 72.3298 74.5374 72.7725 74.3483 73.2104C74.1762 73.5888 74.0228 73.9767 73.8944 74.365C73.688 74.9262 73.5209 75.4918 73.3825 76.068C73.1293 77.0217 72.971 77.9934 72.8913 78.974C72.69 81.5565 72.819 84.3333 74.1267 86.6384C74.4686 87.2562 74.873 87.8295 75.3309 88.372C76.0042 89.1744 76.7932 89.9039 77.6423 90.5468C76.7809 89.9025 75.9919 89.1731 75.3121 88.3626C74.8542 87.8201 74.4498 87.2468 74.1006 86.6281C72.7993 84.3311 72.6636 81.5486 72.8725 78.9645C72.9522 77.9839 73.1127 77.0149 73.3588 76.058C73.4973 75.4818 73.6643 74.9162 73.878 74.3558C74.0068 73.9651 74.1598 73.5796 74.3246 73.2004C74.5162 72.7627 74.7332 72.3206 74.966 71.8925C75.064 71.6972 75.169 71.5052 75.2817 71.3116C75.6372 70.7107 76.0246 70.1134 76.4508 69.5449C76.593 69.3547 76.7422 69.1676 76.8899 68.9731C77.327 68.4181 77.809 67.883 78.3139 67.3848C78.4206 67.2838 78.519 67.1893 78.6247 67.0956C79.031 66.6943 79.4789 66.3198 79.9424 65.9815C80.7608 65.3589 81.6429 64.8294 82.5892 64.4077C82.6965 64.3633 82.802 64.3138 82.9134 64.2772L82.9914 64.2491L82.9917 64.2467Z" fill="#0057C7"/>
<path d="M77.6395 90.5441C78.2764 91.0256 78.9485 91.4621 79.6455 91.8571C78.948 91.4669 78.2758 91.0305 77.6395 90.5441Z" fill="#0057C7"/>
<path d="M71.8932 128.43C69.9388 126.539 68.7161 123.939 67.6092 121.494C66.034 118.01 64.8067 114.344 64.4039 110.525C63.8551 105.302 65.2544 99.2716 69.2728 95.6101C68.0806 98.2999 67.3477 101.5 67.0543 105.168C66.2879 115.07 69.3166 120.284 71.8935 128.428L71.8932 128.43Z" fill="#F18221"/>
</g>
<circle cx="144.319" cy="101.46" r="3" transform="rotate(6.60428 144.319 101.46)" fill="#86B9DF" stroke="#041E42"/>
<circle cx="44.1044" cy="88.851" r="3" transform="rotate(6.60428 44.1044 88.851)" fill="#86B9DF" stroke="#041E42"/>
<circle cx="143.162" cy="114.546" r="3" transform="rotate(15.3223 143.162 114.546)" fill="#86B9DF" stroke="#041E42"/>
<circle cx="41.8393" cy="102.815" r="3" transform="rotate(15.3223 41.8393 102.815)" fill="#86B9DF" stroke="#041E42"/>
<circle cx="140.709" cy="127.047" r="3" transform="rotate(15.3223 140.709 127.047)" fill="#86B9DF" stroke="#041E42"/>
<circle cx="41.2572" cy="116.539" r="3" transform="rotate(15.3223 41.2572 116.539)" fill="#86B9DF" stroke="#041E42"/>
<defs>
<clipPath id="clip0_977_13476">
<rect width="61.407" height="104.681" fill="white" transform="matrix(0.993759 0.1116 -0.118525 0.992957 69.0545 43.353)"/>
</clipPath>
</defs>
</svg>
