<svg width="39" height="45" viewBox="0 0 39 45" fill="none" xmlns="http://www.w3.org/2000/svg">
<path fill-rule="evenodd" clip-rule="evenodd" d="M13.5375 0.17371C12.7127 0.392842 12.0028 0.783201 11.3658 1.36791C10.6926 1.98584 10.2529 2.67145 9.93729 3.59597C9.69046 4.31894 9.67928 4.41976 9.63872 6.29491L9.59651 8.24275L8.7477 8.27263C7.80043 8.30586 7.55768 8.41802 7.23667 8.9709C7.07347 9.25183 7.06186 9.45347 7.03759 12.4117L7.01185 15.5541L4.00426 15.5543C0.648874 15.5544 0.58968 15.5638 0.196733 16.1604L0 16.4591V30.2772V44.0953L0.196733 44.3939C0.304893 44.5582 0.529187 44.7618 0.695067 44.8463C0.97942 44.9912 2.05686 45 19.5 45C36.9431 45 38.0206 44.9912 38.3049 44.8463C38.4708 44.7618 38.6951 44.5582 38.8033 44.3939L39 44.0953V30.2772V16.4591L38.8033 16.1604C38.4103 15.5638 38.3511 15.5544 34.9957 15.5543L31.9881 15.5541L31.9624 12.4117C31.9381 9.45347 31.9265 9.25183 31.7633 8.9709C31.4423 8.41802 31.1996 8.30586 30.2523 8.27263L29.4035 8.24275L29.3613 6.29491C29.3207 4.41976 29.3095 4.31894 29.0627 3.59597C28.4621 1.83702 27.1737 0.622346 25.4283 0.169578C24.7965 0.0057347 24.4622 -0.00375839 19.4645 0.000812354C14.5385 0.0052952 14.126 0.0173374 13.5375 0.17371ZM13.9883 2.79354C13.3417 3.02023 12.8793 3.43256 12.5719 4.05656L12.3067 4.59477V6.42667V8.25848H19.5H26.6933V6.42667V4.59477L26.4256 4.05137C26.2458 3.68651 26.028 3.40743 25.7624 3.20174C25.0252 2.63084 25.0452 2.6326 19.4626 2.63585C14.8864 2.6384 14.39 2.65272 13.9883 2.79354ZM9.70667 26.6294V42.3633H11.0933H12.48V38.9482C12.48 35.5441 12.4806 35.5322 12.6767 35.2345C13.094 34.6009 12.7844 34.6284 19.5 34.6284C26.2156 34.6284 25.906 34.6009 26.3233 35.2345C26.5194 35.5322 26.52 35.5441 26.52 38.9482V42.3633H27.9067H29.2933V26.6294V10.8955H19.5H9.70667V26.6294ZM13.1971 13.7164C11.9987 14.3181 12.4065 16.1678 13.7381 16.169C14.8322 16.1701 15.4461 14.8827 14.7509 14.0448C14.5088 13.753 14.0826 13.5324 13.7611 13.5325C13.6523 13.5325 13.3986 13.6153 13.1971 13.7164ZM19.019 13.6514C18.7041 13.7961 18.3078 14.2513 18.2328 14.5548C18.0934 15.1179 18.3806 15.747 18.8995 16.0154C19.8191 16.491 20.8731 15.7924 20.771 14.775C20.6831 13.9003 19.7627 13.31 19.019 13.6514ZM24.739 13.6561C24.3827 13.8134 24.0262 14.2607 23.9564 14.6376C23.8784 15.0593 24.1202 15.6747 24.4605 15.9205C24.8427 16.1966 25.5239 16.234 25.8924 15.9993C26.7584 15.4478 26.7205 14.1966 25.8235 13.7302C25.3926 13.5061 25.1206 13.4875 24.739 13.6561ZM2.6 30.2772V42.3633H4.81H7.02V30.2772V18.1911H4.81H2.6V30.2772ZM31.98 30.2772V42.3633H34.19H36.4V30.2772V18.1911H34.19H31.98V30.2772ZM13.1971 18.9903C11.9987 19.592 12.4065 21.4417 13.7381 21.443C14.8322 21.444 15.4461 20.1567 14.7509 19.3187C14.5088 19.0269 14.0826 18.8064 13.7611 18.8064C13.6523 18.8064 13.3986 18.8893 13.1971 18.9903ZM19.019 18.9254C18.7041 19.0701 18.3078 19.5252 18.2328 19.8287C18.0934 20.3919 18.3806 21.021 18.8995 21.2893C19.8191 21.765 20.8731 21.0663 20.771 20.0489C20.6831 19.1742 19.7627 18.584 19.019 18.9254ZM24.739 18.93C24.5937 18.9942 24.3731 19.1693 24.2488 19.3191C23.5539 20.1567 24.168 21.444 25.2619 21.443C26.5956 21.4417 27.005 19.5326 25.7916 18.9737C25.3739 18.7813 25.1013 18.77 24.739 18.93ZM13.1971 24.2643C11.9987 24.8659 12.4065 26.7157 13.7381 26.7169C14.8322 26.718 15.4461 25.4306 14.7509 24.5927C14.5088 24.3008 14.0826 24.0803 13.7611 24.0804C13.6523 24.0804 13.3986 24.1632 13.1971 24.2643ZM19.019 24.204C18.706 24.3422 18.3085 24.7966 18.2328 25.1027C18.0934 25.6658 18.3806 26.2949 18.8995 26.5633C20.0395 27.1529 21.19 26.0077 20.632 24.8388C20.3321 24.2103 19.6301 23.934 19.019 24.204ZM24.739 24.204C24.3827 24.3613 24.0262 24.8085 23.9564 25.1855C23.8784 25.6072 24.1202 26.2226 24.4605 26.4683C24.8427 26.7444 25.5239 26.7819 25.8924 26.5472C26.7731 25.9864 26.7154 24.6732 25.7916 24.2477C25.3739 24.0553 25.1013 24.0439 24.739 24.204ZM13.2084 29.5216C11.995 30.0805 12.4044 31.9896 13.7381 31.9909C14.8322 31.9919 15.4461 30.7045 14.7509 29.8666C14.5077 29.5736 14.0803 29.3531 13.7611 29.3562C13.6523 29.3572 13.4036 29.4317 13.2084 29.5216ZM18.9301 29.527C18.7139 29.6384 18.5037 29.8411 18.3884 30.0491C17.7541 31.1937 18.9433 32.4357 20.1005 31.8372C20.5135 31.6237 20.7308 31.2867 20.7765 30.7891C20.8676 29.7976 19.809 29.0739 18.9301 29.527ZM24.739 29.4779C24.3827 29.6353 24.0262 30.0825 23.9564 30.4594C23.8784 30.8811 24.1202 31.4965 24.4605 31.7423C24.8427 32.0184 25.5239 32.0558 25.8924 31.8211C26.7584 31.2696 26.7205 30.0184 25.8235 29.552C25.3926 29.328 25.1206 29.3093 24.739 29.4779ZM15.08 39.8142V42.3633H16.64H18.2V39.8142V37.2652H16.64H15.08V39.8142ZM20.8 39.8142V42.3633H22.36H23.92V39.8142V37.2652H22.36H20.8V39.8142Z" fill="#FFBA00"/>
</svg>
